<?xml version="1.0" encoding="UTF-8" standalone="no"?>
<!DOCTYPE svg PUBLIC "-//W3C//DTD SVG 1.1//EN" "http://www.w3.org/Graphics/SVG/1.1/DTD/svg11.dtd">

<!-- Created with Vectornator (http://vectornator.io/) -->
<svg height="100%" stroke-miterlimit="10" style="fill-rule:nonzero;clip-rule:evenodd;stroke-linecap:round;stroke-linejoin:round;" version="1.1" viewBox="0 0 16 16" width="100%" xml:space="preserve" xmlns="http://www.w3.org/2000/svg" xmlns:vectornator="http://vectornator.io" xmlns:xlink="http://www.w3.org/1999/xlink">
<metadata>
<vectornator:setting key="IsTimeLapseWatermarkDisabled" value="false"/>
<vectornator:setting key="UndoHistoryDisabled" value="true"/>
<vectornator:setting key="VNDimensionsVisible" value="true"/>
<vectornator:setting key="VNSnapToGuides" value="false"/>
<vectornator:setting key="WDCMYKEnabledKey" value="false"/>
<vectornator:setting key="WDDisplayWhiteBackground" value="false"/>
<vectornator:setting key="WDDynamicGuides" value="false"/>
<vectornator:setting key="WDGuidesVisible" value="true"/>
<vectornator:setting key="WDIsolateActiveLayer" value="false"/>
<vectornator:setting key="WDOutlineMode" value="false"/>
<vectornator:setting key="WDRulersVisible" value="true"/>
<vectornator:setting key="WDSnapToEdges" value="false"/>
<vectornator:setting key="WDSnapToGrid" value="true"/>
<vectornator:setting key="WDSnapToPoints" value="false"/>
<vectornator:setting key="WDUnits" value="Pixels"/>
</metadata>
<defs/>
<clipPath id="ArtboardFrame">
<rect height="16" width="16" x="0" y="0"/>
</clipPath>
<g clip-path="url(#ArtboardFrame)" id="图层-1" vectornator:layerName="图层 1">
<path d="M15 4L16 4L16 5L15 5L15 4Z" fill="#000000" fill-rule="evenodd" opacity="1" stroke="none"/>
<path d="M13 4L15 4L15 5L13 5L13 4Z" fill="#000000" fill-rule="evenodd" opacity="1" stroke="none"/>
<path d="M12 3L13 3L13 4L12 4L12 3Z" fill="#000000" fill-rule="evenodd" opacity="1" stroke="none"/>
<path d="M11 2L12 2L12 3L11 3L11 2Z" fill="#000000" fill-rule="evenodd" opacity="1" stroke="none"/>
<path d="M10 2L11 2L11 3L10 3L10 2Z" fill="#000000" fill-rule="evenodd" opacity="1" stroke="none"/>
<path d="M9 3L10 3L10 4L9 4L9 3Z" fill="#000000" fill-rule="evenodd" opacity="1" stroke="none"/>
<path d="M9 4L10 4L10 5L9 5L9 4Z" fill="#000000" fill-rule="evenodd" opacity="1" stroke="none"/>
<path d="M9 5L10 5L10 6L9 6L9 5Z" fill="#000000" fill-rule="evenodd" opacity="1" stroke="none"/>
<path d="M9 6L10 6L10 7L9 7L9 6Z" fill="#000000" fill-rule="evenodd" opacity="1" stroke="none"/>
<path d="M8 7L9 7L9 8L8 8L8 7Z" fill="#000000" fill-rule="evenodd" opacity="1" stroke="none"/>
<path d="M8 8L9 8L9 9L8 9L8 8Z" fill="#000000" fill-rule="evenodd" opacity="1" stroke="none"/>
<path d="M8 9L9 9L9 10L8 10L8 9Z" fill="#000000" fill-rule="evenodd" opacity="1" stroke="none"/>
<path d="M8 10L9 10L9 11L8 11L8 10Z" fill="#000000" fill-rule="evenodd" opacity="1" stroke="none"/>
<path d="M8 11L9 11L9 12L8 12L8 11Z" fill="#000000" fill-rule="evenodd" opacity="1" stroke="none"/>
<path d="M7 12L8 12L8 13L7 13L7 12Z" fill="#000000" fill-rule="evenodd" opacity="1" stroke="none"/>
<path d="M8 13L9 13L9 14L8 14L8 13Z" fill="#000000" fill-rule="evenodd" opacity="1" stroke="none"/>
<path d="M8 14L9 14L9 15L8 15L8 14Z" fill="#000000" fill-rule="evenodd" opacity="1" stroke="none"/>
<path d="M9 14L10 14L10 15L9 15L9 14Z" fill="#000000" fill-rule="evenodd" opacity="1" stroke="none"/>
<path d="M10 14L11 14L11 15L10 15L10 14Z" fill="#000000" fill-rule="evenodd" opacity="1" stroke="none"/>
<path d="M10 15L11 15L11 16L10 16L10 15Z" fill="#000000" fill-rule="evenodd" opacity="1" stroke="none"/>
<path d="M10 3L11 3L11 4L10 4L10 3Z" fill="#c08f5e" fill-rule="evenodd" opacity="1" stroke="none"/>
<path d="M11 3L12 3L12 4L11 4L11 3Z" fill="#c08f5e" fill-rule="evenodd" opacity="1" stroke="none"/>
<path d="M10 4L11 4L11 5L10 5L10 4Z" fill="#c08f5e" fill-rule="evenodd" opacity="1" stroke="none"/>
<path d="M11 4L12 4L12 5L11 5L11 4Z" fill="#debc7a" fill-rule="evenodd" opacity="1" stroke="none"/>
<path d="M12 4L13 4L13 5L12 5L12 4Z" fill="#c08f5e" fill-rule="evenodd" opacity="1" stroke="none"/>
<path d="M10 5L11 5L11 6L10 6L10 5Z" fill="#c08f5e" fill-rule="evenodd" opacity="1" stroke="none"/>
<path d="M11 5L12 5L12 6L11 6L11 5Z" fill="#debc7a" fill-rule="evenodd" opacity="1" stroke="none"/>
<path d="M12 5L13 5L13 6L12 6L12 5Z" fill="#debc7a" fill-rule="evenodd" opacity="1" stroke="none"/>
<path d="M13 5L14 5L14 6L13 6L13 5Z" fill="#c08f5e" fill-rule="evenodd" opacity="1" stroke="none"/>
<path d="M14 5L15 5L15 6L14 6L14 5Z" fill="#c08f5e" fill-rule="evenodd" opacity="1" stroke="none"/>
<path d="M15 5L16 5L16 6L15 6L15 5Z" fill="#c08f5e" fill-rule="evenodd" opacity="1" stroke="none"/>
<path d="M10 6L11 6L11 7L10 7L10 6Z" fill="#c08f5e" fill-rule="evenodd" opacity="1" stroke="none"/>
<path d="M11 6L12 6L12 7L11 7L11 6Z" fill="#c08f5e" fill-rule="evenodd" opacity="1" stroke="none"/>
<path d="M12 6L13 6L13 7L12 7L12 6Z" fill="#c08f5e" fill-rule="evenodd" opacity="1" stroke="none"/>
<path d="M13 6L14 6L14 7L13 7L13 6Z" fill="#c08f5e" fill-rule="evenodd" opacity="1" stroke="none"/>
<path d="M14 6L15 6L15 7L14 7L14 6Z" fill="#c08f5e" fill-rule="evenodd" opacity="1" stroke="none"/>
<path d="M15 6L16 6L16 7L15 7L15 6Z" fill="#c08f5e" fill-rule="evenodd" opacity="1" stroke="none"/>
<path d="M15 7L16 7L16 8L15 8L15 7Z" fill="#c08f5e" fill-rule="evenodd" opacity="1" stroke="none"/>
<path d="M14 7L15 7L15 8L14 8L14 7Z" fill="#c08f5e" fill-rule="evenodd" opacity="1" stroke="none"/>
<path d="M13 7L14 7L14 8L13 8L13 7Z" fill="#c08f5e" fill-rule="evenodd" opacity="1" stroke="none"/>
<path d="M12 7L13 7L13 8L12 8L12 7Z" fill="#c08f5e" fill-rule="evenodd" opacity="1" stroke="none"/>
<path d="M11 7L12 7L12 8L11 8L11 7Z" fill="#c08f5e" fill-rule="evenodd" opacity="1" stroke="none"/>
<path d="M10 7L11 7L11 8L10 8L10 7Z" fill="#c08f5e" fill-rule="evenodd" opacity="1" stroke="none"/>
<path d="M9 7L10 7L10 8L9 8L9 7Z" fill="#c08f5e" fill-rule="evenodd" opacity="1" stroke="none"/>
<path d="M9 8L10 8L10 9L9 9L9 8Z" fill="#c08f5e" fill-rule="evenodd" opacity="1" stroke="none"/>
<path d="M10 8L11 8L11 9L10 9L10 8Z" fill="#c08f5e" fill-rule="evenodd" opacity="1" stroke="none"/>
<path d="M11 8L12 8L12 9L11 9L11 8Z" fill="#000000" fill-rule="evenodd" opacity="1" stroke="none"/>
<path d="M12 8L13 8L13 9L12 9L12 8Z" fill="#000000" fill-rule="evenodd" opacity="1" stroke="none"/>
<path d="M13 8L14 8L14 9L13 9L13 8Z" fill="#000000" fill-rule="evenodd" opacity="1" stroke="none"/>
<path d="M14 8L15 8L15 9L14 9L14 8Z" fill="#c08f5e" fill-rule="evenodd" opacity="1" stroke="none"/>
<path d="M15 8L16 8L16 9L15 9L15 8Z" fill="#c08f5e" fill-rule="evenodd" opacity="1" stroke="none"/>
<path d="M15 9L16 9L16 10L15 10L15 9Z" fill="#c08f5e" fill-rule="evenodd" opacity="1" stroke="none"/>
<path d="M14 9L15 9L15 10L14 10L14 9Z" fill="#c08f5e" fill-rule="evenodd" opacity="1" stroke="none"/>
<path d="M13 9L14 9L14 10L13 10L13 9Z" fill="#c08f5e" fill-rule="evenodd" opacity="1" stroke="none"/>
<path d="M12 9L13 9L13 10L12 10L12 9Z" fill="#000000" fill-rule="evenodd" opacity="1" stroke="none"/>
<path d="M11 9L12 9L12 10L11 10L11 9Z" fill="#000000" fill-rule="evenodd" opacity="1" stroke="none"/>
<path d="M10 9L11 9L11 10L10 10L10 9Z" fill="#c08f5e" fill-rule="evenodd" opacity="1" stroke="none"/>
<path d="M9 9L10 9L10 10L9 10L9 9Z" fill="#c08f5e" fill-rule="evenodd" opacity="1" stroke="none"/>
<path d="M9 10L10 10L10 11L9 11L9 10Z" fill="#c08f5e" fill-rule="evenodd" opacity="1" stroke="none"/>
<path d="M10 10L11 10L11 11L10 11L10 10Z" fill="#c08f5e" fill-rule="evenodd" opacity="1" stroke="none"/>
<path d="M11 10L12 10L12 11L11 11L11 10Z" fill="#000000" fill-rule="evenodd" opacity="1" stroke="none"/>
<path d="M12 10L13 10L13 11L12 11L12 10Z" fill="#000000" fill-rule="evenodd" opacity="1" stroke="none"/>
<path d="M13 10L14 10L14 11L13 11L13 10Z" fill="#c08f5e" fill-rule="evenodd" opacity="1" stroke="none"/>
<path d="M14 10L15 10L15 11L14 11L14 10Z" fill="#c08f5e" fill-rule="evenodd" opacity="1" stroke="none"/>
<path d="M15 10L16 10L16 11L15 11L15 10Z" fill="#c08f5e" fill-rule="evenodd" opacity="1" stroke="none"/>
<path d="M15 11L16 11L16 12L15 12L15 11Z" fill="#c08f5e" fill-rule="evenodd" opacity="1" stroke="none"/>
<path d="M14 11L15 11L15 12L14 12L14 11Z" fill="#c08f5e" fill-rule="evenodd" opacity="1" stroke="none"/>
<path d="M13 11L14 11L14 12L13 12L13 11Z" fill="#c08f5e" fill-rule="evenodd" opacity="1" stroke="none"/>
<path d="M12 11L13 11L13 12L12 12L12 11Z" fill="#c08f5e" fill-rule="evenodd" opacity="1" stroke="none"/>
<path d="M11 11L12 11L12 12L11 12L11 11Z" fill="#c08f5e" fill-rule="evenodd" opacity="1" stroke="none"/>
<path d="M10 11L11 11L11 12L10 12L10 11Z" fill="#c08f5e" fill-rule="evenodd" opacity="1" stroke="none"/>
<path d="M9 11L10 11L10 12L9 12L9 11Z" fill="#c08f5e" fill-rule="evenodd" opacity="1" stroke="none"/>
<path d="M8 12L9 12L9 13L8 13L8 12Z" fill="#c08f5e" fill-rule="evenodd" opacity="1" stroke="none"/>
<path d="M9 12L10 12L10 13L9 13L9 12Z" fill="#c08f5e" fill-rule="evenodd" opacity="1" stroke="none"/>
<path d="M10 12L11 12L11 13L10 13L10 12Z" fill="#c08f5e" fill-rule="evenodd" opacity="1" stroke="none"/>
<path d="M11 12L12 12L12 13L11 13L11 12Z" fill="#c08f5e" fill-rule="evenodd" opacity="1" stroke="none"/>
<path d="M12 12L13 12L13 13L12 13L12 12Z" fill="#c08f5e" fill-rule="evenodd" opacity="1" stroke="none"/>
<path d="M13 12L14 12L14 13L13 13L13 12Z" fill="#c08f5e" fill-rule="evenodd" opacity="1" stroke="none"/>
<path d="M14 12L15 12L15 13L14 13L14 12Z" fill="#000000" fill-rule="evenodd" opacity="1" stroke="none"/>
<path d="M15 12L16 12L16 13L15 13L15 12Z" fill="#000000" fill-rule="evenodd" opacity="1" stroke="none"/>
<path d="M15 13L16 13L16 14L15 14L15 13Z" fill="#000000" fill-rule="evenodd" opacity="1" stroke="none"/>
<path d="M14 13L15 13L15 14L14 14L14 13Z" fill="#c08f5e" fill-rule="evenodd" opacity="1" stroke="none"/>
<path d="M13 13L14 13L14 14L13 14L13 13Z" fill="#c08f5e" fill-rule="evenodd" opacity="1" stroke="none"/>
<path d="M12 13L13 13L13 14L12 14L12 13Z" fill="#c08f5e" fill-rule="evenodd" opacity="1" stroke="none"/>
<path d="M11 13L12 13L12 14L11 14L11 13Z" fill="#c08f5e" fill-rule="evenodd" opacity="1" stroke="none"/>
<path d="M10 13L11 13L11 14L10 14L10 13Z" fill="#c08f5e" fill-rule="evenodd" opacity="1" stroke="none"/>
<path d="M9 13L10 13L10 14L9 14L9 13Z" fill="#c08f5e" fill-rule="evenodd" opacity="1" stroke="none"/>
<path d="M11 14L12 14L12 15L11 15L11 14Z" fill="#c08f5e" fill-rule="evenodd" opacity="1" stroke="none"/>
<path d="M12 14L13 14L13 15L12 15L12 14Z" fill="#c08f5e" fill-rule="evenodd" opacity="1" stroke="none"/>
<path d="M13 14L14 14L14 15L13 15L13 14Z" fill="#c08f5e" fill-rule="evenodd" opacity="1" stroke="none"/>
<path d="M14 14L15 14L15 15L14 15L14 14Z" fill="#c08f5e" fill-rule="evenodd" opacity="1" stroke="none"/>
<path d="M15 14L16 14L16 15L15 15L15 14Z" fill="#c08f5e" fill-rule="evenodd" opacity="1" stroke="none"/>
<path d="M15 15L16 15L16 16L15 16L15 15Z" fill="#c08f5e" fill-rule="evenodd" opacity="1" stroke="none"/>
<path d="M14 15L15 15L15 16L14 16L14 15Z" fill="#c08f5e" fill-rule="evenodd" opacity="1" stroke="none"/>
<path d="M13 15L14 15L14 16L13 16L13 15Z" fill="#c08f5e" fill-rule="evenodd" opacity="1" stroke="none"/>
<path d="M12 15L13 15L13 16L12 16L12 15Z" fill="#c08f5e" fill-rule="evenodd" opacity="1" stroke="none"/>
<path d="M11 15L12 15L12 16L11 16L11 15Z" fill="#c08f5e" fill-rule="evenodd" opacity="1" stroke="none"/>
<path d="M13 4L16 4" fill="none" fill-rule="evenodd" opacity="0.497649" stroke="#ffffff" stroke-linecap="round" stroke-linejoin="round" stroke-width="0.1"/>
<path d="M12 2L12 3" fill="none" fill-rule="evenodd" opacity="0.497649" stroke="#ffffff" stroke-linecap="round" stroke-linejoin="round" stroke-width="0.1"/>
<path d="M12 3L13 3" fill="none" fill-rule="evenodd" opacity="0.497649" stroke="#ffffff" stroke-linecap="round" stroke-linejoin="round" stroke-width="0.1"/>
<path d="M13 3L13 4" fill="none" fill-rule="evenodd" opacity="0.497649" stroke="#ffffff" stroke-linecap="round" stroke-linejoin="round" stroke-width="0.1"/>
<path d="M10 2L12 2" fill="none" fill-rule="evenodd" opacity="0.497649" stroke="#ffffff" stroke-linecap="round" stroke-linejoin="round" stroke-width="0.1"/>
<path d="M10 2L10 3" fill="none" fill-rule="evenodd" opacity="0.497649" stroke="#ffffff" stroke-linecap="round" stroke-linejoin="round" stroke-width="0.1"/>
<path d="M9 3L10 3" fill="none" fill-rule="evenodd" opacity="0.497649" stroke="#ffffff" stroke-linecap="round" stroke-linejoin="round" stroke-width="0.1"/>
<path d="M9 3L9 7" fill="none" fill-rule="evenodd" opacity="0.497649" stroke="#ffffff" stroke-linecap="round" stroke-linejoin="round" stroke-width="0.1"/>
<path d="M8 7L9 7" fill="none" fill-rule="evenodd" opacity="0.497649" stroke="#ffffff" stroke-linecap="round" stroke-linejoin="round" stroke-width="0.1"/>
<path d="M8 7L8 12" fill="none" fill-rule="evenodd" opacity="0.497649" stroke="#ffffff" stroke-linecap="round" stroke-linejoin="round" stroke-width="0.1"/>
<path d="M7 12L8 12" fill="none" fill-rule="evenodd" opacity="0.497649" stroke="#ffffff" stroke-linecap="round" stroke-linejoin="round" stroke-width="0.1"/>
<path d="M7 12L7 13" fill="none" fill-rule="evenodd" opacity="0.497649" stroke="#ffffff" stroke-linecap="round" stroke-linejoin="round" stroke-width="0.1"/>
<path d="M7 13L8 13" fill="none" fill-rule="evenodd" opacity="0.497649" stroke="#ffffff" stroke-linecap="round" stroke-linejoin="round" stroke-width="0.1"/>
<path d="M8 13L8 15" fill="none" fill-rule="evenodd" opacity="0.497649" stroke="#ffffff" stroke-linecap="round" stroke-linejoin="round" stroke-width="0.1"/>
<path d="M8 15L10 15" fill="none" fill-rule="evenodd" opacity="0.497649" stroke="#ffffff" stroke-linecap="round" stroke-linejoin="round" stroke-width="0.1"/>
<path d="M10 15L10 16" fill="none" fill-rule="evenodd" opacity="0.497649" stroke="#ffffff" stroke-linecap="round" stroke-linejoin="round" stroke-width="0.1"/>
</g>
<g clip-path="url(#ArtboardFrame)" id="-Copy-Copy-Copy-Copy-Copy-Copy-Copy-Copy-Copy-Copy-Copy-Copy-Copy-Copy-Copy-Copy-Copy" vectornator:layerName="‘ Copy Copy Copy Copy Copy Copy Copy Copy Copy Copy Copy Copy Copy Copy Copy Copy Copy">
<path d="M1 0L1 16" fill="#000000" fill-rule="evenodd" opacity="0.203488" stroke="#ffffff" stroke-linecap="round" stroke-linejoin="round" stroke-width="0.1"/>
<path d="M0 0L0 16" fill="#000000" fill-rule="evenodd" opacity="0.304264" stroke="#ffffff" stroke-linecap="round" stroke-linejoin="round" stroke-width="0.1"/>
<path d="M2 0L2 16" fill="#000000" fill-rule="evenodd" opacity="0.203488" stroke="#ffffff" stroke-linecap="round" stroke-linejoin="round" stroke-width="0.1"/>
<path d="M3 0L3 16" fill="#000000" fill-rule="evenodd" opacity="0.203488" stroke="#ffffff" stroke-linecap="round" stroke-linejoin="round" stroke-width="0.1"/>
<path d="M4 0L4 16" fill="#000000" fill-rule="evenodd" opacity="0.203488" stroke="#ffffff" stroke-linecap="round" stroke-linejoin="round" stroke-width="0.1"/>
<path d="M5 0L5 16" fill="#000000" fill-rule="evenodd" opacity="0.203488" stroke="#ffffff" stroke-linecap="round" stroke-linejoin="round" stroke-width="0.1"/>
<path d="M6 0L6 16" fill="#000000" fill-rule="evenodd" opacity="0.203488" stroke="#ffffff" stroke-linecap="round" stroke-linejoin="round" stroke-width="0.1"/>
<path d="M7 0L7 16" fill="#000000" fill-rule="evenodd" opacity="0.203488" stroke="#ffffff" stroke-linecap="round" stroke-linejoin="round" stroke-width="0.1"/>
<path d="M8 0L8 16" fill="#000000" fill-rule="evenodd" opacity="0.203488" stroke="#ffffff" stroke-linecap="round" stroke-linejoin="round" stroke-width="0.1"/>
<path d="M9 0L9 16" fill="#000000" fill-rule="evenodd" opacity="0.203488" stroke="#ffffff" stroke-linecap="round" stroke-linejoin="round" stroke-width="0.1"/>
<path d="M10 0L10 16" fill="#000000" fill-rule="evenodd" opacity="0.203488" stroke="#ffffff" stroke-linecap="round" stroke-linejoin="round" stroke-width="0.1"/>
<path d="M11 0L11 16" fill="#000000" fill-rule="evenodd" opacity="0.203488" stroke="#ffffff" stroke-linecap="round" stroke-linejoin="round" stroke-width="0.1"/>
<path d="M12 0L12 16" fill="#000000" fill-rule="evenodd" opacity="0.203488" stroke="#ffffff" stroke-linecap="round" stroke-linejoin="round" stroke-width="0.1"/>
<path d="M13 0L13 16" fill="#000000" fill-rule="evenodd" opacity="0.203488" stroke="#ffffff" stroke-linecap="round" stroke-linejoin="round" stroke-width="0.1"/>
<path d="M14 0L14 16" fill="#000000" fill-rule="evenodd" opacity="0.203488" stroke="#ffffff" stroke-linecap="round" stroke-linejoin="round" stroke-width="0.1"/>
<path d="M15 0L15 16" fill="#000000" fill-rule="evenodd" opacity="0.203488" stroke="#ffffff" stroke-linecap="round" stroke-linejoin="round" stroke-width="0.1"/>
<path d="M16 0L16 16" fill="#000000" fill-rule="evenodd" opacity="0.203488" stroke="#ffffff" stroke-linecap="round" stroke-linejoin="round" stroke-width="0.1"/>
<path d="M0 0L16 0" fill="#000000" fill-rule="evenodd" opacity="0.203488" stroke="#ffffff" stroke-linecap="round" stroke-linejoin="round" stroke-width="0.1"/>
<path d="M0 1L16 1" fill="#000000" fill-rule="evenodd" opacity="0.203488" stroke="#ffffff" stroke-linecap="round" stroke-linejoin="round" stroke-width="0.1"/>
<path d="M0 2L16 2" fill="#000000" fill-rule="evenodd" opacity="0.203488" stroke="#ffffff" stroke-linecap="round" stroke-linejoin="round" stroke-width="0.1"/>
<path d="M0 3L16 3" fill="#000000" fill-rule="evenodd" opacity="0.203488" stroke="#ffffff" stroke-linecap="round" stroke-linejoin="round" stroke-width="0.1"/>
<path d="M0 4L16 4" fill="#000000" fill-rule="evenodd" opacity="0.203488" stroke="#ffffff" stroke-linecap="round" stroke-linejoin="round" stroke-width="0.1"/>
<path d="M0 5L16 5" fill="#000000" fill-rule="evenodd" opacity="0.203488" stroke="#ffffff" stroke-linecap="round" stroke-linejoin="round" stroke-width="0.1"/>
<path d="M0 6L16 6" fill="#000000" fill-rule="evenodd" opacity="0.203488" stroke="#ffffff" stroke-linecap="round" stroke-linejoin="round" stroke-width="0.1"/>
<path d="M0 7L16 7" fill="#000000" fill-rule="evenodd" opacity="0.203488" stroke="#ffffff" stroke-linecap="round" stroke-linejoin="round" stroke-width="0.1"/>
<path d="M0 8L16 8" fill="#000000" fill-rule="evenodd" opacity="0.203488" stroke="#ffffff" stroke-linecap="round" stroke-linejoin="round" stroke-width="0.1"/>
<path d="M0 9L16 9" fill="#000000" fill-rule="evenodd" opacity="0.203488" stroke="#ffffff" stroke-linecap="round" stroke-linejoin="round" stroke-width="0.1"/>
<path d="M0 10L16 10" fill="#000000" fill-rule="evenodd" opacity="0.203488" stroke="#ffffff" stroke-linecap="round" stroke-linejoin="round" stroke-width="0.1"/>
<path d="M0 11L16 11" fill="#000000" fill-rule="evenodd" opacity="0.203488" stroke="#ffffff" stroke-linecap="round" stroke-linejoin="round" stroke-width="0.1"/>
<path d="M0 12L16 12" fill="#000000" fill-rule="evenodd" opacity="0.203488" stroke="#ffffff" stroke-linecap="round" stroke-linejoin="round" stroke-width="0.1"/>
<path d="M0 13L16 13" fill="#000000" fill-rule="evenodd" opacity="0.203488" stroke="#ffffff" stroke-linecap="round" stroke-linejoin="round" stroke-width="0.1"/>
<path d="M0 14L16 14" fill="#000000" fill-rule="evenodd" opacity="0.203488" stroke="#ffffff" stroke-linecap="round" stroke-linejoin="round" stroke-width="0.1"/>
<path d="M0 15L16 15" fill="#000000" fill-rule="evenodd" opacity="0.203488" stroke="#ffffff" stroke-linecap="round" stroke-linejoin="round" stroke-width="0.1"/>
<path d="M0 16L16 16" fill="#000000" fill-rule="evenodd" opacity="0.203488" stroke="#ffffff" stroke-linecap="round" stroke-linejoin="round" stroke-width="0.1"/>
</g>
</svg>
