<?xml version="1.0" encoding="UTF-8" standalone="no"?>
<!DOCTYPE svg PUBLIC "-//W3C//DTD SVG 1.1//EN" "http://www.w3.org/Graphics/SVG/1.1/DTD/svg11.dtd">

<!-- Created with Vectornator (http://vectornator.io/) -->
<svg height="100%" stroke-miterlimit="10" style="fill-rule:nonzero;clip-rule:evenodd;stroke-linecap:round;stroke-linejoin:round;" version="1.1" viewBox="0 0 16 16" width="100%" xml:space="preserve" xmlns="http://www.w3.org/2000/svg" xmlns:vectornator="http://vectornator.io" xmlns:xlink="http://www.w3.org/1999/xlink">
<metadata>
<vectornator:setting key="IsTimeLapseWatermarkDisabled" value="false"/>
<vectornator:setting key="UndoHistoryDisabled" value="true"/>
<vectornator:setting key="VNDimensionsVisible" value="true"/>
<vectornator:setting key="VNSnapToGuides" value="false"/>
<vectornator:setting key="WDCMYKEnabledKey" value="false"/>
<vectornator:setting key="WDDisplayWhiteBackground" value="false"/>
<vectornator:setting key="WDDynamicGuides" value="false"/>
<vectornator:setting key="WDGuidesVisible" value="true"/>
<vectornator:setting key="WDIsolateActiveLayer" value="false"/>
<vectornator:setting key="WDOutlineMode" value="false"/>
<vectornator:setting key="WDRulersVisible" value="true"/>
<vectornator:setting key="WDSnapToEdges" value="false"/>
<vectornator:setting key="WDSnapToGrid" value="true"/>
<vectornator:setting key="WDSnapToPoints" value="false"/>
<vectornator:setting key="WDUnits" value="Pixels"/>
</metadata>
<defs/>
<clipPath id="ArtboardFrame">
<rect height="16" width="16" x="0" y="0"/>
</clipPath>
<g clip-path="url(#ArtboardFrame)" id="图层-1" vectornator:layerName="图层 1">
<path d="M1 4L0 4L0 5L1 5L1 4Z" fill="#000000" fill-rule="evenodd" opacity="1" stroke="none"/>
<path d="M3 4L1 4L1 5L3 5L3 4Z" fill="#000000" fill-rule="evenodd" opacity="1" stroke="none"/>
<path d="M4 3L3 3L3 4L4 4L4 3Z" fill="#000000" fill-rule="evenodd" opacity="1" stroke="none"/>
<path d="M5 2L4 2L4 3L5 3L5 2Z" fill="#000000" fill-rule="evenodd" opacity="1" stroke="none"/>
<path d="M6 2L5 2L5 3L6 3L6 2Z" fill="#000000" fill-rule="evenodd" opacity="1" stroke="none"/>
<path d="M7 3L6 3L6 4L7 4L7 3Z" fill="#000000" fill-rule="evenodd" opacity="1" stroke="none"/>
<path d="M7 4L6 4L6 5L7 5L7 4Z" fill="#000000" fill-rule="evenodd" opacity="1" stroke="none"/>
<path d="M7 5L6 5L6 6L7 6L7 5Z" fill="#000000" fill-rule="evenodd" opacity="1" stroke="none"/>
<path d="M7 6L6 6L6 7L7 7L7 6Z" fill="#000000" fill-rule="evenodd" opacity="1" stroke="none"/>
<path d="M8 7L7 7L7 8L8 8L8 7Z" fill="#000000" fill-rule="evenodd" opacity="1" stroke="none"/>
<path d="M8 8L7 8L7 9L8 9L8 8Z" fill="#000000" fill-rule="evenodd" opacity="1" stroke="none"/>
<path d="M8 9L7 9L7 10L8 10L8 9Z" fill="#000000" fill-rule="evenodd" opacity="1" stroke="none"/>
<path d="M8 10L7 10L7 11L8 11L8 10Z" fill="#000000" fill-rule="evenodd" opacity="1" stroke="none"/>
<path d="M8 11L7 11L7 12L8 12L8 11Z" fill="#000000" fill-rule="evenodd" opacity="1" stroke="none"/>
<path d="M9 12L8 12L8 13L9 13L9 12Z" fill="#000000" fill-rule="evenodd" opacity="1" stroke="none"/>
<path d="M8 13L7 13L7 14L8 14L8 13Z" fill="#000000" fill-rule="evenodd" opacity="1" stroke="none"/>
<path d="M8 14L7 14L7 15L8 15L8 14Z" fill="#000000" fill-rule="evenodd" opacity="1" stroke="none"/>
<path d="M7 14L6 14L6 15L7 15L7 14Z" fill="#000000" fill-rule="evenodd" opacity="1" stroke="none"/>
<path d="M6 14L5 14L5 15L6 15L6 14Z" fill="#000000" fill-rule="evenodd" opacity="1" stroke="none"/>
<path d="M6 15L5 15L5 16L6 16L6 15Z" fill="#000000" fill-rule="evenodd" opacity="1" stroke="none"/>
<path d="M6 3L5 3L5 4L6 4L6 3Z" fill="#c08f5e" fill-rule="evenodd" opacity="1" stroke="none"/>
<path d="M5 3L4 3L4 4L5 4L5 3Z" fill="#c08f5e" fill-rule="evenodd" opacity="1" stroke="none"/>
<path d="M6 4L5 4L5 5L6 5L6 4Z" fill="#c08f5e" fill-rule="evenodd" opacity="1" stroke="none"/>
<path d="M5 4L4 4L4 5L5 5L5 4Z" fill="#debc7a" fill-rule="evenodd" opacity="1" stroke="none"/>
<path d="M4 4L3 4L3 5L4 5L4 4Z" fill="#c08f5e" fill-rule="evenodd" opacity="1" stroke="none"/>
<path d="M6 5L5 5L5 6L6 6L6 5Z" fill="#c08f5e" fill-rule="evenodd" opacity="1" stroke="none"/>
<path d="M5 5L4 5L4 6L5 6L5 5Z" fill="#debc7a" fill-rule="evenodd" opacity="1" stroke="none"/>
<path d="M4 5L3 5L3 6L4 6L4 5Z" fill="#debc7a" fill-rule="evenodd" opacity="1" stroke="none"/>
<path d="M3 5L2 5L2 6L3 6L3 5Z" fill="#c08f5e" fill-rule="evenodd" opacity="1" stroke="none"/>
<path d="M2 5L1 5L1 6L2 6L2 5Z" fill="#c08f5e" fill-rule="evenodd" opacity="1" stroke="none"/>
<path d="M1 5L0 5L0 6L1 6L1 5Z" fill="#c08f5e" fill-rule="evenodd" opacity="1" stroke="none"/>
<path d="M6 6L5 6L5 7L6 7L6 6Z" fill="#c08f5e" fill-rule="evenodd" opacity="1" stroke="none"/>
<path d="M5 6L4 6L4 7L5 7L5 6Z" fill="#c08f5e" fill-rule="evenodd" opacity="1" stroke="none"/>
<path d="M4 6L3 6L3 7L4 7L4 6Z" fill="#c08f5e" fill-rule="evenodd" opacity="1" stroke="none"/>
<path d="M3 6L2 6L2 7L3 7L3 6Z" fill="#c08f5e" fill-rule="evenodd" opacity="1" stroke="none"/>
<path d="M2 6L1 6L1 7L2 7L2 6Z" fill="#c08f5e" fill-rule="evenodd" opacity="1" stroke="none"/>
<path d="M1 6L0 6L0 7L1 7L1 6Z" fill="#c08f5e" fill-rule="evenodd" opacity="1" stroke="none"/>
<path d="M1 7L0 7L0 8L1 8L1 7Z" fill="#c08f5e" fill-rule="evenodd" opacity="1" stroke="none"/>
<path d="M2 7L1 7L1 8L2 8L2 7Z" fill="#c08f5e" fill-rule="evenodd" opacity="1" stroke="none"/>
<path d="M3 7L2 7L2 8L3 8L3 7Z" fill="#c08f5e" fill-rule="evenodd" opacity="1" stroke="none"/>
<path d="M4 7L3 7L3 8L4 8L4 7Z" fill="#c08f5e" fill-rule="evenodd" opacity="1" stroke="none"/>
<path d="M5 7L4 7L4 8L5 8L5 7Z" fill="#c08f5e" fill-rule="evenodd" opacity="1" stroke="none"/>
<path d="M6 7L5 7L5 8L6 8L6 7Z" fill="#c08f5e" fill-rule="evenodd" opacity="1" stroke="none"/>
<path d="M7 7L6 7L6 8L7 8L7 7Z" fill="#c08f5e" fill-rule="evenodd" opacity="1" stroke="none"/>
<path d="M7 8L6 8L6 9L7 9L7 8Z" fill="#c08f5e" fill-rule="evenodd" opacity="1" stroke="none"/>
<path d="M6 8L5 8L5 9L6 9L6 8Z" fill="#c08f5e" fill-rule="evenodd" opacity="1" stroke="none"/>
<path d="M5 8L4 8L4 9L5 9L5 8Z" fill="#000000" fill-rule="evenodd" opacity="1" stroke="none"/>
<path d="M4 8L3 8L3 9L4 9L4 8Z" fill="#000000" fill-rule="evenodd" opacity="1" stroke="none"/>
<path d="M3 8L2 8L2 9L3 9L3 8Z" fill="#000000" fill-rule="evenodd" opacity="1" stroke="none"/>
<path d="M2 8L1 8L1 9L2 9L2 8Z" fill="#c08f5e" fill-rule="evenodd" opacity="1" stroke="none"/>
<path d="M1 8L0 8L0 9L1 9L1 8Z" fill="#c08f5e" fill-rule="evenodd" opacity="1" stroke="none"/>
<path d="M1 9L0 9L0 10L1 10L1 9Z" fill="#c08f5e" fill-rule="evenodd" opacity="1" stroke="none"/>
<path d="M2 9L1 9L1 10L2 10L2 9Z" fill="#c08f5e" fill-rule="evenodd" opacity="1" stroke="none"/>
<path d="M3 9L2 9L2 10L3 10L3 9Z" fill="#c08f5e" fill-rule="evenodd" opacity="1" stroke="none"/>
<path d="M4 9L3 9L3 10L4 10L4 9Z" fill="#000000" fill-rule="evenodd" opacity="1" stroke="none"/>
<path d="M5 9L4 9L4 10L5 10L5 9Z" fill="#000000" fill-rule="evenodd" opacity="1" stroke="none"/>
<path d="M6 9L5 9L5 10L6 10L6 9Z" fill="#c08f5e" fill-rule="evenodd" opacity="1" stroke="none"/>
<path d="M7 9L6 9L6 10L7 10L7 9Z" fill="#c08f5e" fill-rule="evenodd" opacity="1" stroke="none"/>
<path d="M7 10L6 10L6 11L7 11L7 10Z" fill="#c08f5e" fill-rule="evenodd" opacity="1" stroke="none"/>
<path d="M6 10L5 10L5 11L6 11L6 10Z" fill="#c08f5e" fill-rule="evenodd" opacity="1" stroke="none"/>
<path d="M5 10L4 10L4 11L5 11L5 10Z" fill="#000000" fill-rule="evenodd" opacity="1" stroke="none"/>
<path d="M4 10L3 10L3 11L4 11L4 10Z" fill="#000000" fill-rule="evenodd" opacity="1" stroke="none"/>
<path d="M3 10L2 10L2 11L3 11L3 10Z" fill="#c08f5e" fill-rule="evenodd" opacity="1" stroke="none"/>
<path d="M2 10L1 10L1 11L2 11L2 10Z" fill="#c08f5e" fill-rule="evenodd" opacity="1" stroke="none"/>
<path d="M1 10L0 10L0 11L1 11L1 10Z" fill="#c08f5e" fill-rule="evenodd" opacity="1" stroke="none"/>
<path d="M1 11L0 11L0 12L1 12L1 11Z" fill="#c08f5e" fill-rule="evenodd" opacity="1" stroke="none"/>
<path d="M2 11L1 11L1 12L2 12L2 11Z" fill="#c08f5e" fill-rule="evenodd" opacity="1" stroke="none"/>
<path d="M3 11L2 11L2 12L3 12L3 11Z" fill="#c08f5e" fill-rule="evenodd" opacity="1" stroke="none"/>
<path d="M4 11L3 11L3 12L4 12L4 11Z" fill="#c08f5e" fill-rule="evenodd" opacity="1" stroke="none"/>
<path d="M5 11L4 11L4 12L5 12L5 11Z" fill="#c08f5e" fill-rule="evenodd" opacity="1" stroke="none"/>
<path d="M6 11L5 11L5 12L6 12L6 11Z" fill="#c08f5e" fill-rule="evenodd" opacity="1" stroke="none"/>
<path d="M7 11L6 11L6 12L7 12L7 11Z" fill="#c08f5e" fill-rule="evenodd" opacity="1" stroke="none"/>
<path d="M8 12L7 12L7 13L8 13L8 12Z" fill="#c08f5e" fill-rule="evenodd" opacity="1" stroke="none"/>
<path d="M7 12L6 12L6 13L7 13L7 12Z" fill="#c08f5e" fill-rule="evenodd" opacity="1" stroke="none"/>
<path d="M6 12L5 12L5 13L6 13L6 12Z" fill="#c08f5e" fill-rule="evenodd" opacity="1" stroke="none"/>
<path d="M5 12L4 12L4 13L5 13L5 12Z" fill="#c08f5e" fill-rule="evenodd" opacity="1" stroke="none"/>
<path d="M4 12L3 12L3 13L4 13L4 12Z" fill="#c08f5e" fill-rule="evenodd" opacity="1" stroke="none"/>
<path d="M3 12L2 12L2 13L3 13L3 12Z" fill="#c08f5e" fill-rule="evenodd" opacity="1" stroke="none"/>
<path d="M2 12L1 12L1 13L2 13L2 12Z" fill="#000000" fill-rule="evenodd" opacity="1" stroke="none"/>
<path d="M1 12L0 12L0 13L1 13L1 12Z" fill="#000000" fill-rule="evenodd" opacity="1" stroke="none"/>
<path d="M1 13L0 13L0 14L1 14L1 13Z" fill="#000000" fill-rule="evenodd" opacity="1" stroke="none"/>
<path d="M2 13L1 13L1 14L2 14L2 13Z" fill="#c08f5e" fill-rule="evenodd" opacity="1" stroke="none"/>
<path d="M3 13L2 13L2 14L3 14L3 13Z" fill="#c08f5e" fill-rule="evenodd" opacity="1" stroke="none"/>
<path d="M4 13L3 13L3 14L4 14L4 13Z" fill="#c08f5e" fill-rule="evenodd" opacity="1" stroke="none"/>
<path d="M5 13L4 13L4 14L5 14L5 13Z" fill="#c08f5e" fill-rule="evenodd" opacity="1" stroke="none"/>
<path d="M6 13L5 13L5 14L6 14L6 13Z" fill="#c08f5e" fill-rule="evenodd" opacity="1" stroke="none"/>
<path d="M7 13L6 13L6 14L7 14L7 13Z" fill="#c08f5e" fill-rule="evenodd" opacity="1" stroke="none"/>
<path d="M5 14L4 14L4 15L5 15L5 14Z" fill="#c08f5e" fill-rule="evenodd" opacity="1" stroke="none"/>
<path d="M4 14L3 14L3 15L4 15L4 14Z" fill="#c08f5e" fill-rule="evenodd" opacity="1" stroke="none"/>
<path d="M3 14L2 14L2 15L3 15L3 14Z" fill="#c08f5e" fill-rule="evenodd" opacity="1" stroke="none"/>
<path d="M2 14L1 14L1 15L2 15L2 14Z" fill="#c08f5e" fill-rule="evenodd" opacity="1" stroke="none"/>
<path d="M1 14L0 14L0 15L1 15L1 14Z" fill="#c08f5e" fill-rule="evenodd" opacity="1" stroke="none"/>
<path d="M1 15L0 15L0 16L1 16L1 15Z" fill="#c08f5e" fill-rule="evenodd" opacity="1" stroke="none"/>
<path d="M2 15L1 15L1 16L2 16L2 15Z" fill="#c08f5e" fill-rule="evenodd" opacity="1" stroke="none"/>
<path d="M3 15L2 15L2 16L3 16L3 15Z" fill="#c08f5e" fill-rule="evenodd" opacity="1" stroke="none"/>
<path d="M4 15L3 15L3 16L4 16L4 15Z" fill="#c08f5e" fill-rule="evenodd" opacity="1" stroke="none"/>
<path d="M5 15L4 15L4 16L5 16L5 15Z" fill="#c08f5e" fill-rule="evenodd" opacity="1" stroke="none"/>
<path d="M3 4L0 4" fill="none" fill-rule="evenodd" opacity="0.497649" stroke="#ffffff" stroke-linecap="round" stroke-linejoin="round" stroke-width="0.1"/>
<path d="M4 2L4 3" fill="none" fill-rule="evenodd" opacity="0.497649" stroke="#ffffff" stroke-linecap="round" stroke-linejoin="round" stroke-width="0.1"/>
<path d="M4 3L3 3" fill="none" fill-rule="evenodd" opacity="0.497649" stroke="#ffffff" stroke-linecap="round" stroke-linejoin="round" stroke-width="0.1"/>
<path d="M3 3L3 4" fill="none" fill-rule="evenodd" opacity="0.497649" stroke="#ffffff" stroke-linecap="round" stroke-linejoin="round" stroke-width="0.1"/>
<path d="M6 2L4 2" fill="none" fill-rule="evenodd" opacity="0.497649" stroke="#ffffff" stroke-linecap="round" stroke-linejoin="round" stroke-width="0.1"/>
<path d="M6 2L6 3" fill="none" fill-rule="evenodd" opacity="0.497649" stroke="#ffffff" stroke-linecap="round" stroke-linejoin="round" stroke-width="0.1"/>
<path d="M7 3L6 3" fill="none" fill-rule="evenodd" opacity="0.497649" stroke="#ffffff" stroke-linecap="round" stroke-linejoin="round" stroke-width="0.1"/>
<path d="M7 3L7 7" fill="none" fill-rule="evenodd" opacity="0.497649" stroke="#ffffff" stroke-linecap="round" stroke-linejoin="round" stroke-width="0.1"/>
<path d="M8 7L7 7" fill="none" fill-rule="evenodd" opacity="0.497649" stroke="#ffffff" stroke-linecap="round" stroke-linejoin="round" stroke-width="0.1"/>
<path d="M8 7L8 12" fill="none" fill-rule="evenodd" opacity="0.497649" stroke="#ffffff" stroke-linecap="round" stroke-linejoin="round" stroke-width="0.1"/>
<path d="M9 12L8 12" fill="none" fill-rule="evenodd" opacity="0.497649" stroke="#ffffff" stroke-linecap="round" stroke-linejoin="round" stroke-width="0.1"/>
<path d="M9 12L9 13" fill="none" fill-rule="evenodd" opacity="0.497649" stroke="#ffffff" stroke-linecap="round" stroke-linejoin="round" stroke-width="0.1"/>
<path d="M9 13L8 13" fill="none" fill-rule="evenodd" opacity="0.497649" stroke="#ffffff" stroke-linecap="round" stroke-linejoin="round" stroke-width="0.1"/>
<path d="M8 13L8 15" fill="none" fill-rule="evenodd" opacity="0.497649" stroke="#ffffff" stroke-linecap="round" stroke-linejoin="round" stroke-width="0.1"/>
<path d="M8 15L6 15" fill="none" fill-rule="evenodd" opacity="0.497649" stroke="#ffffff" stroke-linecap="round" stroke-linejoin="round" stroke-width="0.1"/>
<path d="M6 15L6 16" fill="none" fill-rule="evenodd" opacity="0.497649" stroke="#ffffff" stroke-linecap="round" stroke-linejoin="round" stroke-width="0.1"/>
</g>
<g clip-path="url(#ArtboardFrame)" id="-Copy-Copy-Copy-Copy-Copy-Copy-Copy-Copy-Copy-Copy-Copy-Copy-Copy-Copy-Copy-Copy-Copy" vectornator:layerName="‘ Copy Copy Copy Copy Copy Copy Copy Copy Copy Copy Copy Copy Copy Copy Copy Copy Copy">
<path d="M1 0L1 16" fill="#000000" fill-rule="evenodd" opacity="0.203488" stroke="#ffffff" stroke-linecap="round" stroke-linejoin="round" stroke-width="0.1"/>
<path d="M0 0L0 16" fill="#000000" fill-rule="evenodd" opacity="0.304264" stroke="#ffffff" stroke-linecap="round" stroke-linejoin="round" stroke-width="0.1"/>
<path d="M2 0L2 16" fill="#000000" fill-rule="evenodd" opacity="0.203488" stroke="#ffffff" stroke-linecap="round" stroke-linejoin="round" stroke-width="0.1"/>
<path d="M3 0L3 16" fill="#000000" fill-rule="evenodd" opacity="0.203488" stroke="#ffffff" stroke-linecap="round" stroke-linejoin="round" stroke-width="0.1"/>
<path d="M4 0L4 16" fill="#000000" fill-rule="evenodd" opacity="0.203488" stroke="#ffffff" stroke-linecap="round" stroke-linejoin="round" stroke-width="0.1"/>
<path d="M5 0L5 16" fill="#000000" fill-rule="evenodd" opacity="0.203488" stroke="#ffffff" stroke-linecap="round" stroke-linejoin="round" stroke-width="0.1"/>
<path d="M6 0L6 16" fill="#000000" fill-rule="evenodd" opacity="0.203488" stroke="#ffffff" stroke-linecap="round" stroke-linejoin="round" stroke-width="0.1"/>
<path d="M7 0L7 16" fill="#000000" fill-rule="evenodd" opacity="0.203488" stroke="#ffffff" stroke-linecap="round" stroke-linejoin="round" stroke-width="0.1"/>
<path d="M8 0L8 16" fill="#000000" fill-rule="evenodd" opacity="0.203488" stroke="#ffffff" stroke-linecap="round" stroke-linejoin="round" stroke-width="0.1"/>
<path d="M9 0L9 16" fill="#000000" fill-rule="evenodd" opacity="0.203488" stroke="#ffffff" stroke-linecap="round" stroke-linejoin="round" stroke-width="0.1"/>
<path d="M10 0L10 16" fill="#000000" fill-rule="evenodd" opacity="0.203488" stroke="#ffffff" stroke-linecap="round" stroke-linejoin="round" stroke-width="0.1"/>
<path d="M11 0L11 16" fill="#000000" fill-rule="evenodd" opacity="0.203488" stroke="#ffffff" stroke-linecap="round" stroke-linejoin="round" stroke-width="0.1"/>
<path d="M12 0L12 16" fill="#000000" fill-rule="evenodd" opacity="0.203488" stroke="#ffffff" stroke-linecap="round" stroke-linejoin="round" stroke-width="0.1"/>
<path d="M13 0L13 16" fill="#000000" fill-rule="evenodd" opacity="0.203488" stroke="#ffffff" stroke-linecap="round" stroke-linejoin="round" stroke-width="0.1"/>
<path d="M14 0L14 16" fill="#000000" fill-rule="evenodd" opacity="0.203488" stroke="#ffffff" stroke-linecap="round" stroke-linejoin="round" stroke-width="0.1"/>
<path d="M15 0L15 16" fill="#000000" fill-rule="evenodd" opacity="0.203488" stroke="#ffffff" stroke-linecap="round" stroke-linejoin="round" stroke-width="0.1"/>
<path d="M16 0L16 16" fill="#000000" fill-rule="evenodd" opacity="0.203488" stroke="#ffffff" stroke-linecap="round" stroke-linejoin="round" stroke-width="0.1"/>
<path d="M0 0L16 0" fill="#000000" fill-rule="evenodd" opacity="0.203488" stroke="#ffffff" stroke-linecap="round" stroke-linejoin="round" stroke-width="0.1"/>
<path d="M0 1L16 1" fill="#000000" fill-rule="evenodd" opacity="0.203488" stroke="#ffffff" stroke-linecap="round" stroke-linejoin="round" stroke-width="0.1"/>
<path d="M0 2L16 2" fill="#000000" fill-rule="evenodd" opacity="0.203488" stroke="#ffffff" stroke-linecap="round" stroke-linejoin="round" stroke-width="0.1"/>
<path d="M0 3L16 3" fill="#000000" fill-rule="evenodd" opacity="0.203488" stroke="#ffffff" stroke-linecap="round" stroke-linejoin="round" stroke-width="0.1"/>
<path d="M0 4L16 4" fill="#000000" fill-rule="evenodd" opacity="0.203488" stroke="#ffffff" stroke-linecap="round" stroke-linejoin="round" stroke-width="0.1"/>
<path d="M0 5L16 5" fill="#000000" fill-rule="evenodd" opacity="0.203488" stroke="#ffffff" stroke-linecap="round" stroke-linejoin="round" stroke-width="0.1"/>
<path d="M0 6L16 6" fill="#000000" fill-rule="evenodd" opacity="0.203488" stroke="#ffffff" stroke-linecap="round" stroke-linejoin="round" stroke-width="0.1"/>
<path d="M0 7L16 7" fill="#000000" fill-rule="evenodd" opacity="0.203488" stroke="#ffffff" stroke-linecap="round" stroke-linejoin="round" stroke-width="0.1"/>
<path d="M0 8L16 8" fill="#000000" fill-rule="evenodd" opacity="0.203488" stroke="#ffffff" stroke-linecap="round" stroke-linejoin="round" stroke-width="0.1"/>
<path d="M0 9L16 9" fill="#000000" fill-rule="evenodd" opacity="0.203488" stroke="#ffffff" stroke-linecap="round" stroke-linejoin="round" stroke-width="0.1"/>
<path d="M0 10L16 10" fill="#000000" fill-rule="evenodd" opacity="0.203488" stroke="#ffffff" stroke-linecap="round" stroke-linejoin="round" stroke-width="0.1"/>
<path d="M0 11L16 11" fill="#000000" fill-rule="evenodd" opacity="0.203488" stroke="#ffffff" stroke-linecap="round" stroke-linejoin="round" stroke-width="0.1"/>
<path d="M0 12L16 12" fill="#000000" fill-rule="evenodd" opacity="0.203488" stroke="#ffffff" stroke-linecap="round" stroke-linejoin="round" stroke-width="0.1"/>
<path d="M0 13L16 13" fill="#000000" fill-rule="evenodd" opacity="0.203488" stroke="#ffffff" stroke-linecap="round" stroke-linejoin="round" stroke-width="0.1"/>
<path d="M0 14L16 14" fill="#000000" fill-rule="evenodd" opacity="0.203488" stroke="#ffffff" stroke-linecap="round" stroke-linejoin="round" stroke-width="0.1"/>
<path d="M0 15L16 15" fill="#000000" fill-rule="evenodd" opacity="0.203488" stroke="#ffffff" stroke-linecap="round" stroke-linejoin="round" stroke-width="0.1"/>
<path d="M0 16L16 16" fill="#000000" fill-rule="evenodd" opacity="0.203488" stroke="#ffffff" stroke-linecap="round" stroke-linejoin="round" stroke-width="0.1"/>
</g>
</svg>
