<?xml version="1.0" encoding="UTF-8" standalone="no"?>
<!DOCTYPE svg PUBLIC "-//W3C//DTD SVG 1.1//EN" "http://www.w3.org/Graphics/SVG/1.1/DTD/svg11.dtd">

<!-- Created with Vectornator (http://vectornator.io/) -->
<svg height="100%" stroke-miterlimit="10" style="fill-rule:nonzero;clip-rule:evenodd;stroke-linecap:round;stroke-linejoin:round;" version="1.1" viewBox="0 0 16 16" width="100%" xml:space="preserve" xmlns="http://www.w3.org/2000/svg" xmlns:vectornator="http://vectornator.io" xmlns:xlink="http://www.w3.org/1999/xlink">
<metadata>
<vectornator:setting key="IsTimeLapseWatermarkDisabled" value="false"/>
<vectornator:setting key="UndoHistoryDisabled" value="true"/>
<vectornator:setting key="VNDimensionsVisible" value="true"/>
<vectornator:setting key="VNSnapToGuides" value="false"/>
<vectornator:setting key="WDCMYKEnabledKey" value="false"/>
<vectornator:setting key="WDDisplayWhiteBackground" value="false"/>
<vectornator:setting key="WDDynamicGuides" value="false"/>
<vectornator:setting key="WDGuidesVisible" value="true"/>
<vectornator:setting key="WDIsolateActiveLayer" value="false"/>
<vectornator:setting key="WDOutlineMode" value="false"/>
<vectornator:setting key="WDRulersVisible" value="true"/>
<vectornator:setting key="WDSnapToEdges" value="false"/>
<vectornator:setting key="WDSnapToGrid" value="true"/>
<vectornator:setting key="WDSnapToPoints" value="false"/>
<vectornator:setting key="WDUnits" value="Pixels"/>
</metadata>
<defs/>
<clipPath id="ArtboardFrame">
<rect height="16" width="16" x="0" y="0"/>
</clipPath>
<g clip-path="url(#ArtboardFrame)" id="图层-1" vectornator:layerName="图层 1">
<path d="M9 15L10 15L10 16L9 16L9 15Z" fill="#fff4e5" fill-rule="evenodd" opacity="1" stroke="none"/>
<path d="M10 17L11 17" fill="none" fill-rule="evenodd" opacity="0.502605" stroke="#ffffff" stroke-linecap="round" stroke-linejoin="round" stroke-width="0.1"/>
<path d="M4 2L5 2L5 1L4 1L4 2Z" fill="#000000" fill-rule="evenodd" opacity="1" stroke="none"/>
<path d="M5 2L6 2L6 1L5 1L5 2Z" fill="#000000" fill-rule="evenodd" opacity="1" stroke="none"/>
<path d="M6 3L7 3L7 2L6 2L6 3Z" fill="#000000" fill-rule="evenodd" opacity="1" stroke="none"/>
<path d="M7 4L8 4L8 3L7 3L7 4Z" fill="#000000" fill-rule="evenodd" opacity="1" stroke="none"/>
<path d="M8 4L9 4L9 3L8 3L8 4Z" fill="#000000" fill-rule="evenodd" opacity="1" stroke="none"/>
<path d="M9 3L10 3L10 2L9 2L9 3Z" fill="#000000" fill-rule="evenodd" opacity="1" stroke="none"/>
<path d="M10 2L11 2L11 1L10 1L10 2Z" fill="#000000" fill-rule="evenodd" opacity="1" stroke="none"/>
<path d="M11 2L12 2L12 1L11 1L11 2Z" fill="#000000" fill-rule="evenodd" opacity="1" stroke="none"/>
<path d="M12 3L13 3L13 2L12 2L12 3Z" fill="#000000" fill-rule="evenodd" opacity="1" stroke="none"/>
<path d="M3 3L4 3L4 2L3 2L3 3Z" fill="#000000" fill-rule="evenodd" opacity="1" stroke="none"/>
<path d="M2 4L3 4L3 3L2 3L2 4Z" fill="#000000" fill-rule="evenodd" opacity="1" stroke="none"/>
<path d="M2 5L3 5L3 4L2 4L2 5Z" fill="#000000" fill-rule="evenodd" opacity="1" stroke="none"/>
<path d="M2 6L3 6L3 5L2 5L2 6Z" fill="#000000" fill-rule="evenodd" opacity="1" stroke="none"/>
<path d="M3 7L4 7L4 6L3 6L3 7Z" fill="#000000" fill-rule="evenodd" opacity="1" stroke="none"/>
<path d="M4 8L5 8L5 7L4 7L4 8Z" fill="#000000" fill-rule="evenodd" opacity="1" stroke="none"/>
<path d="M5 8L6 8L6 7L5 7L5 8Z" fill="#000000" fill-rule="evenodd" opacity="1" stroke="none"/>
<path d="M5 9L6 9L6 8L5 8L5 9Z" fill="#000000" fill-rule="evenodd" opacity="1" stroke="none"/>
<path d="M5 10L6 10L6 9L5 9L5 10Z" fill="#000000" fill-rule="evenodd" opacity="1" stroke="none"/>
<path d="M5 11L6 11L6 10L5 10L5 11Z" fill="#000000" fill-rule="evenodd" opacity="1" stroke="none"/>
<path d="M5 12L6 12L6 11L5 11L5 12Z" fill="#000000" fill-rule="evenodd" opacity="1" stroke="none"/>
<path d="M5 13L6 13L6 12L5 12L5 13Z" fill="#000000" fill-rule="evenodd" opacity="1" stroke="none"/>
<path d="M5 14L6 14L6 13L5 13L5 14Z" fill="#000000" fill-rule="evenodd" opacity="1" stroke="none"/>
<path d="M5 15L6 15L6 14L5 14L5 15Z" fill="#000000" fill-rule="evenodd" opacity="1" stroke="none"/>
<path d="M5 16L6 16L6 15L5 15L5 16Z" fill="#000000" fill-rule="evenodd" opacity="1" stroke="none"/>
<path d="M10 8L11 8L11 7L10 7L10 8Z" fill="#000000" fill-rule="evenodd" opacity="1" stroke="none"/>
<path d="M10 9L11 9L11 8L10 8L10 9Z" fill="#000000" fill-rule="evenodd" opacity="1" stroke="none"/>
<path d="M10 10L11 10L11 9L10 9L10 10Z" fill="#000000" fill-rule="evenodd" opacity="1" stroke="none"/>
<path d="M10 11L11 11L11 10L10 10L10 11Z" fill="#000000" fill-rule="evenodd" opacity="1" stroke="none"/>
<path d="M10 12L11 12L11 11L10 11L10 12Z" fill="#000000" fill-rule="evenodd" opacity="1" stroke="none"/>
<path d="M10 13L11 13L11 12L10 12L10 13Z" fill="#000000" fill-rule="evenodd" opacity="1" stroke="none"/>
<path d="M10 14L11 14L11 13L10 13L10 14Z" fill="#000000" fill-rule="evenodd" opacity="1" stroke="none"/>
<path d="M10 15L11 15L11 14L10 14L10 15Z" fill="#000000" fill-rule="evenodd" opacity="1" stroke="none"/>
<path d="M10 16L11 16L11 15L10 15L10 16Z" fill="#000000" fill-rule="evenodd" opacity="1" stroke="none"/>
<path d="M11 8L12 8L12 7L11 7L11 8Z" fill="#000000" fill-rule="evenodd" opacity="1" stroke="none"/>
<path d="M12 7L13 7L13 6L12 6L12 7Z" fill="#000000" fill-rule="evenodd" opacity="1" stroke="none"/>
<path d="M13 6L14 6L14 5L13 5L13 6Z" fill="#000000" fill-rule="evenodd" opacity="1" stroke="none"/>
<path d="M13 5L14 5L14 4L13 4L13 5Z" fill="#000000" fill-rule="evenodd" opacity="1" stroke="none"/>
<path d="M13 4L14 4L14 3L13 3L13 4Z" fill="#000000" fill-rule="evenodd" opacity="1" stroke="none"/>
<path d="M6 16L7 16L7 15L6 15L6 16Z" fill="#fff4e5" fill-rule="evenodd" opacity="1" stroke="none"/>
<path d="M7 16L8 16L8 15L7 15L7 16Z" fill="#fff4e5" fill-rule="evenodd" opacity="1" stroke="none"/>
<path d="M8 16L8 16L8 15L8 15L8 16Z" fill="#fff4e5" fill-rule="evenodd" opacity="1" stroke="none"/>
<path d="M8 16L9 16L9 15L8 15L8 16Z" fill="#fff4e5" fill-rule="evenodd" opacity="1" stroke="none"/>
<path d="M6 15L7 15L7 14L6 14L6 15Z" fill="#fff4e5" fill-rule="evenodd" opacity="1" stroke="none"/>
<path d="M7 15L8 15L8 14L7 14L7 15Z" fill="#fff4e5" fill-rule="evenodd" opacity="1" stroke="none"/>
<path d="M8 15L9 15L9 14L8 14L8 15Z" fill="#fff4e5" fill-rule="evenodd" opacity="1" stroke="none"/>
<path d="M9 15L10 15L10 14L9 14L9 15Z" fill="#fff4e5" fill-rule="evenodd" opacity="1" stroke="none"/>
<path d="M8 14L9 14L9 13L8 13L8 14Z" fill="#fff4e5" fill-rule="evenodd" opacity="1" stroke="none"/>
<path d="M7 14L8 14L8 13L7 13L7 14Z" fill="#fff4e5" fill-rule="evenodd" opacity="1" stroke="none"/>
<path d="M6 14L7 14L7 13L6 13L6 14Z" fill="#fff4e5" fill-rule="evenodd" opacity="1" stroke="none"/>
<path d="M9 14L10 14L10 13L9 13L9 14Z" fill="#fff4e5" fill-rule="evenodd" opacity="1" stroke="none"/>
<path d="M7 13L9 13L9 12L7 12L7 13Z" fill="#fff4e5" fill-rule="evenodd" opacity="1" stroke="none"/>
<path d="M6 13L7 13L7 12L6 12L6 13Z" fill="#fff4e5" fill-rule="evenodd" opacity="1" stroke="none"/>
<path d="M9 13L10 13L10 12L9 12L9 13Z" fill="#fff4e5" fill-rule="evenodd" opacity="1" stroke="none"/>
<path d="M6 12L10 12L10 4L6 4L6 12Z" fill="#fff4e5" fill-rule="evenodd" opacity="1" stroke="none"/>
<path d="M4 7L6 7L6 2L4 2L4 7Z" fill="#fff4e5" fill-rule="evenodd" opacity="1" stroke="none"/>
<path d="M10 7L12 7L12 2L10 2L10 7Z" fill="#fff4e5" fill-rule="evenodd" opacity="1" stroke="none"/>
<path d="M9 4L10 4L10 3L9 3L9 4Z" fill="#fff4e5" fill-rule="evenodd" opacity="1" stroke="none"/>
<path d="M6 4L7 4L7 3L6 3L6 4Z" fill="#fff4e5" fill-rule="evenodd" opacity="1" stroke="none"/>
<path d="M3 6L4 6L4 3L3 3L3 6Z" fill="#fff4e5" fill-rule="evenodd" opacity="1" stroke="none"/>
<path d="M12 6L13 6L13 3L12 3L12 6Z" fill="#fff4e5" fill-rule="evenodd" opacity="1" stroke="none"/>
<path d="M11 16L11 8" fill="none" fill-rule="evenodd" opacity="0.502605" stroke="#ffffff" stroke-linecap="round" stroke-linejoin="round" stroke-width="0.1"/>
<path d="M11 8L12 8" fill="none" fill-rule="evenodd" opacity="0.502605" stroke="#ffffff" stroke-linecap="round" stroke-linejoin="round" stroke-width="0.1"/>
<path d="M12 8L12 7" fill="none" fill-rule="evenodd" opacity="0.502605" stroke="#ffffff" stroke-linecap="round" stroke-linejoin="round" stroke-width="0.1"/>
<path d="M12 7L13 7" fill="none" fill-rule="evenodd" opacity="0.502605" stroke="#ffffff" stroke-linecap="round" stroke-linejoin="round" stroke-width="0.1"/>
<path d="M13 7L13 6" fill="none" fill-rule="evenodd" opacity="0.502605" stroke="#ffffff" stroke-linecap="round" stroke-linejoin="round" stroke-width="0.1"/>
<path d="M13 6L14 6" fill="none" fill-rule="evenodd" opacity="0.502605" stroke="#ffffff" stroke-linecap="round" stroke-linejoin="round" stroke-width="0.1"/>
<path d="M14 6L14 3" fill="none" fill-rule="evenodd" opacity="0.502605" stroke="#ffffff" stroke-linecap="round" stroke-linejoin="round" stroke-width="0.1"/>
<path d="M13 3L14 3" fill="none" fill-rule="evenodd" opacity="0.502605" stroke="#ffffff" stroke-linecap="round" stroke-linejoin="round" stroke-width="0.1"/>
<path d="M13 3L13 2" fill="none" fill-rule="evenodd" opacity="0.502605" stroke="#ffffff" stroke-linecap="round" stroke-linejoin="round" stroke-width="0.1"/>
<path d="M12 2L13 2" fill="none" fill-rule="evenodd" opacity="0.502605" stroke="#ffffff" stroke-linecap="round" stroke-linejoin="round" stroke-width="0.1"/>
<path d="M12 2L12 1" fill="none" fill-rule="evenodd" opacity="0.502605" stroke="#ffffff" stroke-linecap="round" stroke-linejoin="round" stroke-width="0.1"/>
<path d="M10 1L12 1" fill="none" fill-rule="evenodd" opacity="0.502605" stroke="#ffffff" stroke-linecap="round" stroke-linejoin="round" stroke-width="0.1"/>
<path d="M10 2L10 1" fill="none" fill-rule="evenodd" opacity="0.502605" stroke="#ffffff" stroke-linecap="round" stroke-linejoin="round" stroke-width="0.1"/>
<path d="M9 2L10 2" fill="none" fill-rule="evenodd" opacity="0.502605" stroke="#ffffff" stroke-linecap="round" stroke-linejoin="round" stroke-width="0.1"/>
<path d="M9 3L9 2" fill="none" fill-rule="evenodd" opacity="0.502605" stroke="#ffffff" stroke-linecap="round" stroke-linejoin="round" stroke-width="0.1"/>
<path d="M7 3L9 3" fill="none" fill-rule="evenodd" opacity="0.502605" stroke="#ffffff" stroke-linecap="round" stroke-linejoin="round" stroke-width="0.1"/>
<path d="M7 3L7 2" fill="none" fill-rule="evenodd" opacity="0.502605" stroke="#ffffff" stroke-linecap="round" stroke-linejoin="round" stroke-width="0.1"/>
<path d="M6 2L7 2" fill="none" fill-rule="evenodd" opacity="0.502605" stroke="#ffffff" stroke-linecap="round" stroke-linejoin="round" stroke-width="0.1"/>
<path d="M6 2L6 1" fill="none" fill-rule="evenodd" opacity="0.502605" stroke="#ffffff" stroke-linecap="round" stroke-linejoin="round" stroke-width="0.1"/>
<path d="M4 1L6 1" fill="none" fill-rule="evenodd" opacity="0.502605" stroke="#ffffff" stroke-linecap="round" stroke-linejoin="round" stroke-width="0.1"/>
<path d="M4 2L4 1" fill="none" fill-rule="evenodd" opacity="0.502605" stroke="#ffffff" stroke-linecap="round" stroke-linejoin="round" stroke-width="0.1"/>
<path d="M3 2L4 2" fill="none" fill-rule="evenodd" opacity="0.502605" stroke="#ffffff" stroke-linecap="round" stroke-linejoin="round" stroke-width="0.1"/>
<path d="M3 3L3 2" fill="none" fill-rule="evenodd" opacity="0.502605" stroke="#ffffff" stroke-linecap="round" stroke-linejoin="round" stroke-width="0.1"/>
<path d="M2 3L3 3" fill="none" fill-rule="evenodd" opacity="0.502605" stroke="#ffffff" stroke-linecap="round" stroke-linejoin="round" stroke-width="0.1"/>
<path d="M2 6L2 3" fill="none" fill-rule="evenodd" opacity="0.502605" stroke="#ffffff" stroke-linecap="round" stroke-linejoin="round" stroke-width="0.1"/>
<path d="M2 6L3 6" fill="none" fill-rule="evenodd" opacity="0.502605" stroke="#ffffff" stroke-linecap="round" stroke-linejoin="round" stroke-width="0.1"/>
<path d="M3 7L3 6" fill="none" fill-rule="evenodd" opacity="0.502605" stroke="#ffffff" stroke-linecap="round" stroke-linejoin="round" stroke-width="0.1"/>
<path d="M3 7L4 7" fill="none" fill-rule="evenodd" opacity="0.502605" stroke="#ffffff" stroke-linecap="round" stroke-linejoin="round" stroke-width="0.1"/>
<path d="M4 8L4 7" fill="none" fill-rule="evenodd" opacity="0.502605" stroke="#ffffff" stroke-linecap="round" stroke-linejoin="round" stroke-width="0.1"/>
<path d="M4 8L5 8" fill="none" fill-rule="evenodd" opacity="0.502605" stroke="#ffffff" stroke-linecap="round" stroke-linejoin="round" stroke-width="0.1"/>
<path d="M5 16L5 8" fill="none" fill-rule="evenodd" opacity="0.502605" stroke="#ffffff" stroke-linecap="round" stroke-linejoin="round" stroke-width="0.1"/>
</g>
<g clip-path="url(#ArtboardFrame)" id="图层-2" vectornator:layerName="图层 2">
<path d="M1 0L1 16" fill="#000000" fill-rule="evenodd" opacity="0.203488" stroke="#ffffff" stroke-linecap="round" stroke-linejoin="round" stroke-width="0.1"/>
<path d="M0 0L0 16" fill="#000000" fill-rule="evenodd" opacity="0.304264" stroke="#ffffff" stroke-linecap="round" stroke-linejoin="round" stroke-width="0.1"/>
<path d="M2 0L2 16" fill="#000000" fill-rule="evenodd" opacity="0.203488" stroke="#ffffff" stroke-linecap="round" stroke-linejoin="round" stroke-width="0.1"/>
<path d="M3 0L3 16" fill="#000000" fill-rule="evenodd" opacity="0.203488" stroke="#ffffff" stroke-linecap="round" stroke-linejoin="round" stroke-width="0.1"/>
<path d="M4 0L4 16" fill="#000000" fill-rule="evenodd" opacity="0.203488" stroke="#ffffff" stroke-linecap="round" stroke-linejoin="round" stroke-width="0.1"/>
<path d="M5 0L5 16" fill="#000000" fill-rule="evenodd" opacity="0.203488" stroke="#ffffff" stroke-linecap="round" stroke-linejoin="round" stroke-width="0.1"/>
<path d="M6 0L6 16" fill="#000000" fill-rule="evenodd" opacity="0.203488" stroke="#ffffff" stroke-linecap="round" stroke-linejoin="round" stroke-width="0.1"/>
<path d="M7 0L7 16" fill="#000000" fill-rule="evenodd" opacity="0.203488" stroke="#ffffff" stroke-linecap="round" stroke-linejoin="round" stroke-width="0.1"/>
<path d="M8 0L8 16" fill="#000000" fill-rule="evenodd" opacity="0.203488" stroke="#ffffff" stroke-linecap="round" stroke-linejoin="round" stroke-width="0.1"/>
<path d="M9 0L9 16" fill="#000000" fill-rule="evenodd" opacity="0.203488" stroke="#ffffff" stroke-linecap="round" stroke-linejoin="round" stroke-width="0.1"/>
<path d="M10 0L10 16" fill="#000000" fill-rule="evenodd" opacity="0.203488" stroke="#ffffff" stroke-linecap="round" stroke-linejoin="round" stroke-width="0.1"/>
<path d="M11 0L11 16" fill="#000000" fill-rule="evenodd" opacity="0.203488" stroke="#ffffff" stroke-linecap="round" stroke-linejoin="round" stroke-width="0.1"/>
<path d="M12 0L12 16" fill="#000000" fill-rule="evenodd" opacity="0.203488" stroke="#ffffff" stroke-linecap="round" stroke-linejoin="round" stroke-width="0.1"/>
<path d="M13 0L13 16" fill="#000000" fill-rule="evenodd" opacity="0.203488" stroke="#ffffff" stroke-linecap="round" stroke-linejoin="round" stroke-width="0.1"/>
<path d="M14 0L14 16" fill="#000000" fill-rule="evenodd" opacity="0.203488" stroke="#ffffff" stroke-linecap="round" stroke-linejoin="round" stroke-width="0.1"/>
<path d="M15 0L15 16" fill="#000000" fill-rule="evenodd" opacity="0.203488" stroke="#ffffff" stroke-linecap="round" stroke-linejoin="round" stroke-width="0.1"/>
<path d="M16 0L16 16" fill="#000000" fill-rule="evenodd" opacity="0.203488" stroke="#ffffff" stroke-linecap="round" stroke-linejoin="round" stroke-width="0.1"/>
<path d="M0 0L16 0" fill="#000000" fill-rule="evenodd" opacity="0.203488" stroke="#ffffff" stroke-linecap="round" stroke-linejoin="round" stroke-width="0.1"/>
<path d="M0 1L16 1" fill="#000000" fill-rule="evenodd" opacity="0.203488" stroke="#ffffff" stroke-linecap="round" stroke-linejoin="round" stroke-width="0.1"/>
<path d="M0 2L16 2" fill="#000000" fill-rule="evenodd" opacity="0.203488" stroke="#ffffff" stroke-linecap="round" stroke-linejoin="round" stroke-width="0.1"/>
<path d="M0 3L16 3" fill="#000000" fill-rule="evenodd" opacity="0.203488" stroke="#ffffff" stroke-linecap="round" stroke-linejoin="round" stroke-width="0.1"/>
<path d="M0 4L16 4" fill="#000000" fill-rule="evenodd" opacity="0.203488" stroke="#ffffff" stroke-linecap="round" stroke-linejoin="round" stroke-width="0.1"/>
<path d="M0 5L16 5" fill="#000000" fill-rule="evenodd" opacity="0.203488" stroke="#ffffff" stroke-linecap="round" stroke-linejoin="round" stroke-width="0.1"/>
<path d="M0 6L16 6" fill="#000000" fill-rule="evenodd" opacity="0.203488" stroke="#ffffff" stroke-linecap="round" stroke-linejoin="round" stroke-width="0.1"/>
<path d="M0 7L16 7" fill="#000000" fill-rule="evenodd" opacity="0.203488" stroke="#ffffff" stroke-linecap="round" stroke-linejoin="round" stroke-width="0.1"/>
<path d="M0 8L16 8" fill="#000000" fill-rule="evenodd" opacity="0.203488" stroke="#ffffff" stroke-linecap="round" stroke-linejoin="round" stroke-width="0.1"/>
<path d="M0 9L16 9" fill="#000000" fill-rule="evenodd" opacity="0.203488" stroke="#ffffff" stroke-linecap="round" stroke-linejoin="round" stroke-width="0.1"/>
<path d="M0 10L16 10" fill="#000000" fill-rule="evenodd" opacity="0.203488" stroke="#ffffff" stroke-linecap="round" stroke-linejoin="round" stroke-width="0.1"/>
<path d="M0 11L16 11" fill="#000000" fill-rule="evenodd" opacity="0.203488" stroke="#ffffff" stroke-linecap="round" stroke-linejoin="round" stroke-width="0.1"/>
<path d="M0 12L16 12" fill="#000000" fill-rule="evenodd" opacity="0.203488" stroke="#ffffff" stroke-linecap="round" stroke-linejoin="round" stroke-width="0.1"/>
<path d="M0 13L16 13" fill="#000000" fill-rule="evenodd" opacity="0.203488" stroke="#ffffff" stroke-linecap="round" stroke-linejoin="round" stroke-width="0.1"/>
<path d="M0 14L16 14" fill="#000000" fill-rule="evenodd" opacity="0.203488" stroke="#ffffff" stroke-linecap="round" stroke-linejoin="round" stroke-width="0.1"/>
<path d="M0 15L16 15" fill="#000000" fill-rule="evenodd" opacity="0.203488" stroke="#ffffff" stroke-linecap="round" stroke-linejoin="round" stroke-width="0.1"/>
<path d="M0 16L16 16" fill="#000000" fill-rule="evenodd" opacity="0.203488" stroke="#ffffff" stroke-linecap="round" stroke-linejoin="round" stroke-width="0.1"/>
</g>
</svg>
