<?xml version="1.0" encoding="UTF-8" standalone="no"?>
<!DOCTYPE svg PUBLIC "-//W3C//DTD SVG 1.1//EN" "http://www.w3.org/Graphics/SVG/1.1/DTD/svg11.dtd">

<!-- Created with Vectornator (http://vectornator.io/) -->
<svg height="100%" stroke-miterlimit="10" style="fill-rule:nonzero;clip-rule:evenodd;stroke-linecap:round;stroke-linejoin:round;" version="1.1" viewBox="0 0 16 32" width="100%" xml:space="preserve" xmlns="http://www.w3.org/2000/svg" xmlns:vectornator="http://vectornator.io" xmlns:xlink="http://www.w3.org/1999/xlink">
<metadata>
<vectornator:setting key="IsTimeLapseWatermarkDisabled" value="false"/>
<vectornator:setting key="UndoHistoryDisabled" value="true"/>
<vectornator:setting key="VNDimensionsVisible" value="true"/>
<vectornator:setting key="VNSnapToGuides" value="false"/>
<vectornator:setting key="WDCMYKEnabledKey" value="false"/>
<vectornator:setting key="WDDisplayWhiteBackground" value="false"/>
<vectornator:setting key="WDDynamicGuides" value="false"/>
<vectornator:setting key="WDGuidesVisible" value="true"/>
<vectornator:setting key="WDIsolateActiveLayer" value="false"/>
<vectornator:setting key="WDOutlineMode" value="false"/>
<vectornator:setting key="WDRulersVisible" value="true"/>
<vectornator:setting key="WDSnapToEdges" value="false"/>
<vectornator:setting key="WDSnapToGrid" value="true"/>
<vectornator:setting key="WDSnapToPoints" value="false"/>
<vectornator:setting key="WDUnits" value="Pixels"/>
</metadata>
<defs/>
<g id="图层-1-Copy" vectornator:layerName="图层 1 Copy">
<path d="M2 15L3 15L3 16L2 16L2 15Z" fill="#000000" fill-rule="evenodd" opacity="1" stroke="none"/>
<path d="M3 14L4 14L4 15L3 15L3 14Z" fill="#000000" fill-rule="evenodd" opacity="1" stroke="none"/>
<path d="M4 13L5 13L5 14L4 14L4 13Z" fill="#000000" fill-rule="evenodd" opacity="1" stroke="none"/>
<path d="M13 15L14 15L14 16L13 16L13 15Z" fill="#000000" fill-rule="evenodd" opacity="1" stroke="none"/>
<path d="M12 14L13 14L13 15L12 15L12 14Z" fill="#000000" fill-rule="evenodd" opacity="1" stroke="none"/>
<path d="M11 13L12 13L12 14L11 14L11 13Z" fill="#000000" fill-rule="evenodd" opacity="1" stroke="none"/>
<path d="M5 12L6 12L6 13L5 13L5 12Z" fill="#000000" fill-rule="evenodd" opacity="1" stroke="none"/>
<path d="M5 11L6 11L6 12L5 12L5 11Z" fill="#000000" fill-rule="evenodd" opacity="1" stroke="none"/>
<path d="M5 10L6 10L6 11L5 11L5 10Z" fill="#000000" fill-rule="evenodd" opacity="1" stroke="none"/>
<path d="M5 9L6 9L6 10L5 10L5 9Z" fill="#000000" fill-rule="evenodd" opacity="1" stroke="none"/>
<path d="M5 8L6 8L6 9L5 9L5 8Z" fill="#000000" fill-rule="evenodd" opacity="1" stroke="none"/>
<path d="M5 7L6 7L6 8L5 8L5 7Z" fill="#000000" fill-rule="evenodd" opacity="1" stroke="none"/>
<path d="M6 2L7 2L7 3L6 3L6 2Z" fill="#000000" fill-rule="evenodd" opacity="1" stroke="none"/>
<path d="M7 2L8 2L8 3L7 3L7 2Z" fill="#000000" fill-rule="evenodd" opacity="1" stroke="none"/>
<path d="M8 2L9 2L9 3L8 3L8 2Z" fill="#000000" fill-rule="evenodd" opacity="1" stroke="none"/>
<path d="M9 2L10 2L10 3L9 3L9 2Z" fill="#000000" fill-rule="evenodd" opacity="1" stroke="none"/>
<path d="M10 3L11 3L11 4L10 4L10 3Z" fill="#000000" fill-rule="evenodd" opacity="1" stroke="none"/>
<path d="M10 4L11 4L11 5L10 5L10 4Z" fill="#000000" fill-rule="evenodd" opacity="1" stroke="none"/>
<path d="M10 5L11 5L11 6L10 6L10 5Z" fill="#000000" fill-rule="evenodd" opacity="1" stroke="none"/>
<path d="M10 6L11 6L11 7L10 7L10 6Z" fill="#000000" fill-rule="evenodd" opacity="1" stroke="none"/>
<path d="M10 7L11 7L11 8L10 8L10 7Z" fill="#000000" fill-rule="evenodd" opacity="1" stroke="none"/>
<path d="M10 8L11 8L11 9L10 9L10 8Z" fill="#000000" fill-rule="evenodd" opacity="1" stroke="none"/>
<path d="M10 9L11 9L11 10L10 10L10 9Z" fill="#000000" fill-rule="evenodd" opacity="1" stroke="none"/>
<path d="M10 10L11 10L11 11L10 11L10 10Z" fill="#000000" fill-rule="evenodd" opacity="1" stroke="none"/>
<path d="M10 11L11 11L11 12L10 12L10 11Z" fill="#000000" fill-rule="evenodd" opacity="1" stroke="none"/>
<path d="M10 12L11 12L11 13L10 13L10 12Z" fill="#000000" fill-rule="evenodd" opacity="1" stroke="none"/>
<path d="M5 3L6 3L6 4L5 4L5 3Z" fill="#000000" fill-rule="evenodd" opacity="1" stroke="none"/>
<path d="M5 4L6 4L6 5L5 5L5 4Z" fill="#000000" fill-rule="evenodd" opacity="1" stroke="none"/>
<path d="M5 5L6 5L6 6L5 6L5 5Z" fill="#000000" fill-rule="evenodd" opacity="1" stroke="none"/>
<path d="M5 6L6 6L6 7L5 7L5 6Z" fill="#000000" fill-rule="evenodd" opacity="1" stroke="none"/>
<path d="M6 4L7 4L7 5L6 5L6 4Z" fill="#000000" fill-rule="evenodd" opacity="1" stroke="none"/>
<path d="M7 4L8 4L8 5L7 5L7 4Z" fill="#000000" fill-rule="evenodd" opacity="1" stroke="none"/>
<path d="M8 4L9 4L9 5L8 5L8 4Z" fill="#000000" fill-rule="evenodd" opacity="1" stroke="none"/>
<path d="M9 4L10 4L10 5L9 5L9 4Z" fill="#000000" fill-rule="evenodd" opacity="1" stroke="none"/>
<path d="M6 5L7 5L7 6L6 6L6 5Z" fill="#3490ff" fill-rule="evenodd" opacity="1" stroke="none"/>
<path d="M6 6L7 6L7 7L6 7L6 6Z" fill="#3490ff" fill-rule="evenodd" opacity="1" stroke="none"/>
<path d="M6 7L7 7L7 8L6 8L6 7Z" fill="#3490ff" fill-rule="evenodd" opacity="1" stroke="none"/>
<path d="M6 8L7 8L7 9L6 9L6 8Z" fill="#3490ff" fill-rule="evenodd" opacity="1" stroke="none"/>
<path d="M6 9L7 9L7 10L6 10L6 9Z" fill="#3490ff" fill-rule="evenodd" opacity="1" stroke="none"/>
<path d="M6 10L7 10L7 11L6 11L6 10Z" fill="#3490ff" fill-rule="evenodd" opacity="1" stroke="none"/>
<path d="M6 11L7 11L7 12L6 12L6 11Z" fill="#3490ff" fill-rule="evenodd" opacity="1" stroke="none"/>
<path d="M6 12L7 12L7 13L6 13L6 12Z" fill="#3490ff" fill-rule="evenodd" opacity="1" stroke="none"/>
<path d="M5 13L6 13L6 14L5 14L5 13Z" fill="#3490ff" fill-rule="evenodd" opacity="1" stroke="none"/>
<path d="M6 13L7 13L7 14L6 14L6 13Z" fill="#3490ff" fill-rule="evenodd" opacity="1" stroke="none"/>
<path d="M4 14L5 14L5 15L4 15L4 14Z" fill="#3490ff" fill-rule="evenodd" opacity="1" stroke="none"/>
<path d="M5 14L6 14L6 15L5 15L5 14Z" fill="#3490ff" fill-rule="evenodd" opacity="1" stroke="none"/>
<path d="M6 14L7 14L7 15L6 15L6 14Z" fill="#3490ff" fill-rule="evenodd" opacity="1" stroke="none"/>
<path d="M3 15L4 15L4 16L3 16L3 15Z" fill="#3490ff" fill-rule="evenodd" opacity="1" stroke="none"/>
<path d="M4 15L5 15L5 16L4 16L4 15Z" fill="#3490ff" fill-rule="evenodd" opacity="1" stroke="none"/>
<path d="M5 15L6 15L6 16L5 16L5 15Z" fill="#3490ff" fill-rule="evenodd" opacity="1" stroke="none"/>
<path d="M6 15L7 15L7 16L6 16L6 15Z" fill="#3490ff" fill-rule="evenodd" opacity="1" stroke="none"/>
<path d="M7 6L8 6L8 7L7 7L7 6Z" fill="#3490ff" fill-rule="evenodd" opacity="1" stroke="none"/>
<path d="M7 7L8 7L8 8L7 8L7 7Z" fill="#3490ff" fill-rule="evenodd" opacity="1" stroke="none"/>
<path d="M7 8L8 8L8 9L7 9L7 8Z" fill="#3490ff" fill-rule="evenodd" opacity="1" stroke="none"/>
<path d="M7 9L8 9L8 10L7 10L7 9Z" fill="#3490ff" fill-rule="evenodd" opacity="1" stroke="none"/>
<path d="M7 10L8 10L8 11L7 11L7 10Z" fill="#3490ff" fill-rule="evenodd" opacity="1" stroke="none"/>
<path d="M7 11L8 11L8 12L7 12L7 11Z" fill="#3490ff" fill-rule="evenodd" opacity="1" stroke="none"/>
<path d="M7 12L8 12L8 13L7 13L7 12Z" fill="#3490ff" fill-rule="evenodd" opacity="1" stroke="none"/>
<path d="M7 13L8 13L8 14L7 14L7 13Z" fill="#3490ff" fill-rule="evenodd" opacity="1" stroke="none"/>
<path d="M7 14L8 14L8 15L7 15L7 14Z" fill="#46bffb" fill-rule="evenodd" opacity="1" stroke="none"/>
<path d="M7 5L8 5L8 6L7 6L7 5Z" fill="#ffffff" fill-rule="evenodd" opacity="1" stroke="none"/>
<path d="M8 5L9 5L9 6L8 6L8 5Z" fill="#ffffff" fill-rule="evenodd" opacity="1" stroke="none"/>
<path d="M9 5L10 5L10 6L9 6L9 5Z" fill="#ffffff" fill-rule="evenodd" opacity="1" stroke="none"/>
<path d="M9 3L10 3L10 4L9 4L9 3Z" fill="#3490ff" fill-rule="evenodd" opacity="1" stroke="none"/>
<path d="M6 3L7 3L7 4L6 4L6 3Z" fill="#3490ff" fill-rule="evenodd" opacity="1" stroke="none"/>
<path d="M7 3L8 3L8 4L7 4L7 3Z" fill="#3490ff" fill-rule="evenodd" opacity="1" stroke="none"/>
<path d="M8 3L9 3L9 4L8 4L8 3Z" fill="#3490ff" fill-rule="evenodd" opacity="1" stroke="none"/>
<path d="M8 6L9 6L9 7L8 7L8 6Z" fill="#46bffb" fill-rule="evenodd" opacity="1" stroke="none"/>
<path d="M8 7L9 7L9 8L8 8L8 7Z" fill="#46bffb" fill-rule="evenodd" opacity="1" stroke="none"/>
<path d="M8 8L9 8L9 9L8 9L8 8Z" fill="#46bffb" fill-rule="evenodd" opacity="1" stroke="none"/>
<path d="M8 9L9 9L9 10L8 10L8 9Z" fill="#46bffb" fill-rule="evenodd" opacity="1" stroke="none"/>
<path d="M9 8L10 8L10 9L9 9L9 8Z" fill="#46bffb" fill-rule="evenodd" opacity="1" stroke="none"/>
<path d="M9 9L10 9L10 10L9 10L9 9Z" fill="#46bffb" fill-rule="evenodd" opacity="1" stroke="none"/>
<path d="M9 7L10 7L10 8L9 8L9 7Z" fill="#ffffff" fill-rule="evenodd" opacity="1" stroke="none"/>
<path d="M9 6L10 6L10 7L9 7L9 6Z" fill="#ffffff" fill-rule="evenodd" opacity="1" stroke="none"/>
<path d="M8 10L9 10L9 11L8 11L8 10Z" fill="#46bffb" fill-rule="evenodd" opacity="1" stroke="none"/>
<path d="M9 10L10 10L10 11L9 11L9 10Z" fill="#46bffb" fill-rule="evenodd" opacity="1" stroke="none"/>
<path d="M8 11L9 11L9 12L8 12L8 11Z" fill="#46bffb" fill-rule="evenodd" opacity="1" stroke="none"/>
<path d="M9 11L10 11L10 12L9 12L9 11Z" fill="#46bffb" fill-rule="evenodd" opacity="1" stroke="none"/>
<path d="M8 12L9 12L9 13L8 13L8 12Z" fill="#46bffb" fill-rule="evenodd" opacity="1" stroke="none"/>
<path d="M9 12L10 12L10 13L9 13L9 12Z" fill="#46bffb" fill-rule="evenodd" opacity="1" stroke="none"/>
<path d="M8 13L9 13L9 14L8 14L8 13Z" fill="#46bffb" fill-rule="evenodd" opacity="1" stroke="none"/>
<path d="M9 13L10 13L10 14L9 14L9 13Z" fill="#46bffb" fill-rule="evenodd" opacity="1" stroke="none"/>
<path d="M10 13L11 13L11 14L10 14L10 13Z" fill="#46bffb" fill-rule="evenodd" opacity="1" stroke="none"/>
<path d="M7 15L8 15L8 16L7 16L7 15Z" fill="#46bffb" fill-rule="evenodd" opacity="1" stroke="none"/>
<path d="M8 14L9 14L9 15L8 15L8 14Z" fill="#46bffb" fill-rule="evenodd" opacity="1" stroke="none"/>
<path d="M8 15L9 15L9 16L8 16L8 15Z" fill="#46bffb" fill-rule="evenodd" opacity="1" stroke="none"/>
<path d="M9 14L10 14L10 15L9 15L9 14Z" fill="#46bffb" fill-rule="evenodd" opacity="1" stroke="none"/>
<path d="M9 15L10 15L10 16L9 16L9 15Z" fill="#46bffb" fill-rule="evenodd" opacity="1" stroke="none"/>
<path d="M12 15L13 15L13 16L12 16L12 15Z" fill="#46bffb" fill-rule="evenodd" opacity="1" stroke="none"/>
<path d="M11 14L12 14L12 15L11 15L11 14Z" fill="#46bffb" fill-rule="evenodd" opacity="1" stroke="none"/>
<path d="M10 14L11 14L11 15L10 15L10 14Z" fill="#46bffb" fill-rule="evenodd" opacity="1" stroke="none"/>
<path d="M10 15L11 15L11 16L10 16L10 15Z" fill="#46bffb" fill-rule="evenodd" opacity="1" stroke="none"/>
<path d="M11 15L12 15L12 16L11 16L11 15Z" fill="#ffffff" fill-rule="evenodd" opacity="1" stroke="none"/>
<path d="M5 3L5 13" fill="none" fill-rule="evenodd" opacity="0.5" stroke="#ffffff" stroke-linecap="round" stroke-linejoin="round" stroke-width="0.1"/>
<path d="M4 13L5 13" fill="none" fill-rule="evenodd" opacity="0.5" stroke="#ffffff" stroke-linecap="round" stroke-linejoin="round" stroke-width="0.1"/>
<path d="M4 13L4 14" fill="none" fill-rule="evenodd" opacity="0.5" stroke="#ffffff" stroke-linecap="round" stroke-linejoin="round" stroke-width="0.1"/>
<path d="M3 14L4 14" fill="none" fill-rule="evenodd" opacity="0.5" stroke="#ffffff" stroke-linecap="round" stroke-linejoin="round" stroke-width="0.1"/>
<path d="M3 14L3 15" fill="none" fill-rule="evenodd" opacity="0.5" stroke="#ffffff" stroke-linecap="round" stroke-linejoin="round" stroke-width="0.1"/>
<path d="M2 15L3 15" fill="none" fill-rule="evenodd" opacity="0.5" stroke="#ffffff" stroke-linecap="round" stroke-linejoin="round" stroke-width="0.1"/>
<path d="M2 15L2 16" fill="none" fill-rule="evenodd" opacity="0.5" stroke="#ffffff" stroke-linecap="round" stroke-linejoin="round" stroke-width="0.1"/>
<path d="M6 2L10 2" fill="none" fill-rule="evenodd" opacity="0.5" stroke="#ffffff" stroke-linecap="round" stroke-linejoin="round" stroke-width="0.1"/>
<path d="M5 3L6 3" fill="none" fill-rule="evenodd" opacity="0.5" stroke="#ffffff" stroke-linecap="round" stroke-linejoin="round" stroke-width="0.1"/>
<path d="M6 2L6 3" fill="none" fill-rule="evenodd" opacity="0.5" stroke="#ffffff" stroke-linecap="round" stroke-linejoin="round" stroke-width="0.1"/>
<path d="M10 2L10 3" fill="none" fill-rule="evenodd" opacity="0.5" stroke="#ffffff" stroke-linecap="round" stroke-linejoin="round" stroke-width="0.1"/>
<path d="M10 3L11 3" fill="none" fill-rule="evenodd" opacity="0.5" stroke="#ffffff" stroke-linecap="round" stroke-linejoin="round" stroke-width="0.1"/>
<path d="M11 3L11 13" fill="none" fill-rule="evenodd" opacity="0.5" stroke="#ffffff" stroke-linecap="round" stroke-linejoin="round" stroke-width="0.1"/>
<path d="M11 13L12 13" fill="none" fill-rule="evenodd" opacity="0.5" stroke="#ffffff" stroke-linecap="round" stroke-linejoin="round" stroke-width="0.1"/>
<path d="M12 13L12 14" fill="none" fill-rule="evenodd" opacity="0.5" stroke="#ffffff" stroke-linecap="round" stroke-linejoin="round" stroke-width="0.1"/>
<path d="M12 14L13 14" fill="none" fill-rule="evenodd" opacity="0.5" stroke="#ffffff" stroke-linecap="round" stroke-linejoin="round" stroke-width="0.1"/>
<path d="M13 14L13 15" fill="none" fill-rule="evenodd" opacity="0.5" stroke="#ffffff" stroke-linecap="round" stroke-linejoin="round" stroke-width="0.1"/>
<path d="M13 15L14 15" fill="none" fill-rule="evenodd" opacity="0.5" stroke="#ffffff" stroke-linecap="round" stroke-linejoin="round" stroke-width="0.1"/>
<path d="M14 15L14 16" fill="none" fill-rule="evenodd" opacity="0.5" stroke="#ffffff" stroke-linecap="round" stroke-linejoin="round" stroke-width="0.1"/>
</g>
<g id="图层-1-Copy-Copy" vectornator:layerName="图层 1 Copy Copy">
<path d="M1 16L2 16L2 17L1 17L1 16Z" fill="#000000" fill-rule="evenodd" opacity="1" stroke="none"/>
<path d="M1 17L2 17L2 18L1 18L1 17Z" fill="#3490ff" fill-rule="evenodd" opacity="1" stroke="none"/>
<path d="M1 18L2 18L2 19L1 19L1 18Z" fill="#000000" fill-rule="evenodd" opacity="1" stroke="none"/>
<path d="M1 19L2 19L2 20L1 20L1 19Z" fill="#000000" fill-rule="evenodd" opacity="1" stroke="none"/>
<path d="M1 20L2 20L2 21L1 21L1 20Z" fill="#000000" fill-rule="evenodd" opacity="1" stroke="none"/>
<path d="M1 21L2 21L2 22L1 22L1 21Z" fill="#000000" fill-rule="evenodd" opacity="1" stroke="none"/>
<path d="M1 22L2 22L2 23L1 23L1 22Z" fill="#000000" fill-rule="evenodd" opacity="1" stroke="none"/>
<path d="M5 29L6 29L6 30L5 30L5 29Z" fill="#000000" fill-rule="evenodd" opacity="1" stroke="none"/>
<path d="M6 29L7 29L7 30L6 30L6 29Z" fill="#000000" fill-rule="evenodd" opacity="1" stroke="none"/>
<path d="M7 29L8 29L8 30L7 30L7 29Z" fill="#000000" fill-rule="evenodd" opacity="1" stroke="none"/>
<path d="M8 29L9 29L9 30L8 30L8 29Z" fill="#000000" fill-rule="evenodd" opacity="1" stroke="none"/>
<path d="M9 29L10 29L10 30L9 30L9 29Z" fill="#000000" fill-rule="evenodd" opacity="1" stroke="none"/>
<path d="M10 29L11 29L11 30L10 30L10 29Z" fill="#000000" fill-rule="evenodd" opacity="1" stroke="none"/>
<path d="M11 28L12 28L12 29L11 29L11 28Z" fill="#000000" fill-rule="evenodd" opacity="1" stroke="none"/>
<path d="M11 27L12 27L12 28L11 28L11 27Z" fill="#000000" fill-rule="evenodd" opacity="1" stroke="none"/>
<path d="M12 25L13 25L13 26L12 26L12 25Z" fill="#000000" fill-rule="evenodd" opacity="1" stroke="none"/>
<path d="M12 26L13 26L13 27L12 27L12 26Z" fill="#000000" fill-rule="evenodd" opacity="1" stroke="none"/>
<path d="M13 23L14 23L14 24L13 24L13 23Z" fill="#000000" fill-rule="evenodd" opacity="1" stroke="none"/>
<path d="M13 24L14 24L14 25L13 25L13 24Z" fill="#000000" fill-rule="evenodd" opacity="1" stroke="none"/>
<path d="M14 22L15 22L15 23L14 23L14 22Z" fill="#000000" fill-rule="evenodd" opacity="1" stroke="none"/>
<path d="M14 21L15 21L15 22L14 22L14 21Z" fill="#000000" fill-rule="evenodd" opacity="1" stroke="none"/>
<path d="M14 20L15 20L15 21L14 21L14 20Z" fill="#000000" fill-rule="evenodd" opacity="1" stroke="none"/>
<path d="M14 19L15 19L15 20L14 20L14 19Z" fill="#000000" fill-rule="evenodd" opacity="1" stroke="none"/>
<path d="M14 18L15 18L15 19L14 19L14 18Z" fill="#000000" fill-rule="evenodd" opacity="1" stroke="none"/>
<path d="M14 17L15 17L15 18L14 18L14 17Z" fill="#000000" fill-rule="evenodd" opacity="1" stroke="none"/>
<path d="M14 16L15 16L15 17L14 17L14 16Z" fill="#000000" fill-rule="evenodd" opacity="1" stroke="none"/>
<path d="M2 23L3 23L3 24L2 24L2 23Z" fill="#000000" fill-rule="evenodd" opacity="1" stroke="none"/>
<path d="M2 24L3 24L3 25L2 25L2 24Z" fill="#000000" fill-rule="evenodd" opacity="1" stroke="none"/>
<path d="M3 25L4 25L4 26L3 26L3 25Z" fill="#000000" fill-rule="evenodd" opacity="1" stroke="none"/>
<path d="M3 26L4 26L4 27L3 27L3 26Z" fill="#000000" fill-rule="evenodd" opacity="1" stroke="none"/>
<path d="M4 27L5 27L5 28L4 28L4 27Z" fill="#000000" fill-rule="evenodd" opacity="1" stroke="none"/>
<path d="M4 28L5 28L5 29L4 29L4 28Z" fill="#000000" fill-rule="evenodd" opacity="1" stroke="none"/>
<path d="M2 16L3 16L3 17L2 17L2 16Z" fill="#3490ff" fill-rule="evenodd" opacity="1" stroke="none"/>
<path d="M3 16L4 16L4 17L3 17L3 16Z" fill="#3490ff" fill-rule="evenodd" opacity="1" stroke="none"/>
<path d="M4 16L5 16L5 17L4 17L4 16Z" fill="#3490ff" fill-rule="evenodd" opacity="1" stroke="none"/>
<path d="M5 16L6 16L6 17L5 17L5 16Z" fill="#3490ff" fill-rule="evenodd" opacity="1" stroke="none"/>
<path d="M5 17L6 17L6 18L5 18L5 17Z" fill="#3490ff" fill-rule="evenodd" opacity="1" stroke="none"/>
<path d="M4 17L5 17L5 18L4 18L4 17Z" fill="#3490ff" fill-rule="evenodd" opacity="1" stroke="none"/>
<path d="M3 17L4 17L4 18L3 18L3 17Z" fill="#3490ff" fill-rule="evenodd" opacity="1" stroke="none"/>
<path d="M2 17L3 17L3 18L2 18L2 17Z" fill="#3490ff" fill-rule="evenodd" opacity="1" stroke="none"/>
<path d="M2 18L3 18L3 19L2 19L2 18Z" fill="#3490ff" fill-rule="evenodd" opacity="1" stroke="none"/>
<path d="M3 18L4 18L4 19L3 19L3 18Z" fill="#3490ff" fill-rule="evenodd" opacity="1" stroke="none"/>
<path d="M4 18L5 18L5 19L4 19L4 18Z" fill="#3490ff" fill-rule="evenodd" opacity="1" stroke="none"/>
<path d="M2 19L3 19L3 20L2 20L2 19Z" fill="#3490ff" fill-rule="evenodd" opacity="1" stroke="none"/>
<path d="M3 19L4 19L4 20L3 20L3 19Z" fill="#3490ff" fill-rule="evenodd" opacity="1" stroke="none"/>
<path d="M4 19L5 19L5 20L4 20L4 19Z" fill="#3490ff" fill-rule="evenodd" opacity="1" stroke="none"/>
<path d="M2 20L3 20L3 21L2 21L2 20Z" fill="#3490ff" fill-rule="evenodd" opacity="1" stroke="none"/>
<path d="M3 20L4 20L4 21L3 21L3 20Z" fill="#3490ff" fill-rule="evenodd" opacity="1" stroke="none"/>
<path d="M4 20L5 20L5 21L4 21L4 20Z" fill="#3490ff" fill-rule="evenodd" opacity="1" stroke="none"/>
<path d="M2 21L3 21L3 22L2 22L2 21Z" fill="#3490ff" fill-rule="evenodd" opacity="1" stroke="none"/>
<path d="M3 21L4 21L4 22L3 22L3 21Z" fill="#3490ff" fill-rule="evenodd" opacity="1" stroke="none"/>
<path d="M4 21L5 21L5 22L4 22L4 21Z" fill="#3490ff" fill-rule="evenodd" opacity="1" stroke="none"/>
<path d="M5 22L6 22L6 23L5 23L5 22Z" fill="#3490ff" fill-rule="evenodd" opacity="1" stroke="none"/>
<path d="M4 22L5 22L5 23L4 23L4 22Z" fill="#3490ff" fill-rule="evenodd" opacity="1" stroke="none"/>
<path d="M3 22L4 22L4 23L3 23L3 22Z" fill="#3490ff" fill-rule="evenodd" opacity="1" stroke="none"/>
<path d="M2 22L3 22L3 23L2 23L2 22Z" fill="#3490ff" fill-rule="evenodd" opacity="1" stroke="none"/>
<path d="M3 23L4 23L4 24L3 24L3 23Z" fill="#3490ff" fill-rule="evenodd" opacity="1" stroke="none"/>
<path d="M6 23L7 23L7 24L6 24L6 23Z" fill="#3490ff" fill-rule="evenodd" opacity="1" stroke="none"/>
<path d="M6 24L7 24L7 25L6 25L6 24Z" fill="#3490ff" fill-rule="evenodd" opacity="1" stroke="none"/>
<path d="M6 25L7 25L7 26L6 26L6 25Z" fill="#3490ff" fill-rule="evenodd" opacity="1" stroke="none"/>
<path d="M6 26L7 26L7 27L6 27L6 26Z" fill="#46bffb" fill-rule="evenodd" opacity="1" stroke="none"/>
<path d="M10 27L11 27L11 28L10 28L10 27Z" fill="#ffffff" fill-rule="evenodd" opacity="1" stroke="none"/>
<path d="M9 28L10 28L10 29L9 29L9 28Z" fill="#ffffff" fill-rule="evenodd" opacity="1" stroke="none"/>
<path d="M10 28L11 28L11 29L10 29L10 28Z" fill="#ffffff" fill-rule="evenodd" opacity="1" stroke="none"/>
<path d="M12 17L13 17L13 18L12 18L12 17Z" fill="#ffffff" fill-rule="evenodd" opacity="1" stroke="none"/>
<path d="M12 18L13 18L13 19L12 19L12 18Z" fill="#ffffff" fill-rule="evenodd" opacity="1" stroke="none"/>
<path d="M10 16L11 16L11 17L10 17L10 16Z" fill="#ffffff" fill-rule="evenodd" opacity="1" stroke="none"/>
<path d="M11 16L12 16L12 17L11 17L11 16Z" fill="#ffffff" fill-rule="evenodd" opacity="1" stroke="none"/>
<path d="M6 16L7 16L7 17L6 17L6 16Z" fill="#46bffb" fill-rule="evenodd" opacity="1" stroke="none"/>
<path d="M7 16L8 16L8 17L7 17L7 16Z" fill="#46bffb" fill-rule="evenodd" opacity="1" stroke="none"/>
<path d="M8 16L9 16L9 17L8 17L8 16Z" fill="#46bffb" fill-rule="evenodd" opacity="1" stroke="none"/>
<path d="M9 16L10 16L10 17L9 17L9 16Z" fill="#46bffb" fill-rule="evenodd" opacity="1" stroke="none"/>
<path d="M12 16L13 16L13 17L12 17L12 16Z" fill="#46bffb" fill-rule="evenodd" opacity="1" stroke="none"/>
<path d="M13 16L14 16L14 17L13 17L13 16Z" fill="#46bffb" fill-rule="evenodd" opacity="1" stroke="none"/>
<path d="M13 17L14 17L14 18L13 18L13 17Z" fill="#46bffb" fill-rule="evenodd" opacity="1" stroke="none"/>
<path d="M13 18L14 18L14 19L13 19L13 18Z" fill="#46bffb" fill-rule="evenodd" opacity="1" stroke="none"/>
<path d="M11 17L12 17L12 18L11 18L11 17Z" fill="#46bffb" fill-rule="evenodd" opacity="1" stroke="none"/>
<path d="M10 17L11 17L11 18L10 18L10 17Z" fill="#46bffb" fill-rule="evenodd" opacity="1" stroke="none"/>
<path d="M9 17L10 17L10 18L9 18L9 17Z" fill="#46bffb" fill-rule="evenodd" opacity="1" stroke="none"/>
<path d="M8 17L9 17L9 18L8 18L8 17Z" fill="#46bffb" fill-rule="evenodd" opacity="1" stroke="none"/>
<path d="M7 17L8 17L8 18L7 18L7 17Z" fill="#46bffb" fill-rule="evenodd" opacity="1" stroke="none"/>
<path d="M6 17L7 17L7 18L6 18L6 17Z" fill="#46bffb" fill-rule="evenodd" opacity="1" stroke="none"/>
<path d="M5 18L6 18L6 19L5 19L5 18Z" fill="#46bffb" fill-rule="evenodd" opacity="1" stroke="none"/>
<path d="M6 18L7 18L7 19L6 19L6 18Z" fill="#46bffb" fill-rule="evenodd" opacity="1" stroke="none"/>
<path d="M7 18L8 18L8 19L7 19L7 18Z" fill="#46bffb" fill-rule="evenodd" opacity="1" stroke="none"/>
<path d="M8 18L9 18L9 19L8 19L8 18Z" fill="#46bffb" fill-rule="evenodd" opacity="1" stroke="none"/>
<path d="M9 18L10 18L10 19L9 19L9 18Z" fill="#46bffb" fill-rule="evenodd" opacity="1" stroke="none"/>
<path d="M10 18L11 18L11 19L10 19L10 18Z" fill="#46bffb" fill-rule="evenodd" opacity="1" stroke="none"/>
<path d="M11 18L12 18L12 19L11 19L11 18Z" fill="#46bffb" fill-rule="evenodd" opacity="1" stroke="none"/>
<path d="M11 19L12 19L12 20L11 20L11 19Z" fill="#46bffb" fill-rule="evenodd" opacity="1" stroke="none"/>
<path d="M12 19L13 19L13 20L12 20L12 19Z" fill="#46bffb" fill-rule="evenodd" opacity="1" stroke="none"/>
<path d="M13 19L14 19L14 20L13 20L13 19Z" fill="#46bffb" fill-rule="evenodd" opacity="1" stroke="none"/>
<path d="M10 19L11 19L11 20L10 20L10 19Z" fill="#46bffb" fill-rule="evenodd" opacity="1" stroke="none"/>
<path d="M9 19L10 19L10 20L9 20L9 19Z" fill="#46bffb" fill-rule="evenodd" opacity="1" stroke="none"/>
<path d="M8 19L9 19L9 20L8 20L8 19Z" fill="#46bffb" fill-rule="evenodd" opacity="1" stroke="none"/>
<path d="M7 19L8 19L8 20L7 20L7 19Z" fill="#46bffb" fill-rule="evenodd" opacity="1" stroke="none"/>
<path d="M6 19L7 19L7 20L6 20L6 19Z" fill="#46bffb" fill-rule="evenodd" opacity="1" stroke="none"/>
<path d="M5 19L6 19L6 20L5 20L5 19Z" fill="#46bffb" fill-rule="evenodd" opacity="1" stroke="none"/>
<path d="M5 20L6 20L6 21L5 21L5 20Z" fill="#46bffb" fill-rule="evenodd" opacity="1" stroke="none"/>
<path d="M6 20L7 20L7 21L6 21L6 20Z" fill="#46bffb" fill-rule="evenodd" opacity="1" stroke="none"/>
<path d="M7 20L8 20L8 21L7 21L7 20Z" fill="#46bffb" fill-rule="evenodd" opacity="1" stroke="none"/>
<path d="M8 20L9 20L9 21L8 21L8 20Z" fill="#46bffb" fill-rule="evenodd" opacity="1" stroke="none"/>
<path d="M9 20L10 20L10 21L9 21L9 20Z" fill="#46bffb" fill-rule="evenodd" opacity="1" stroke="none"/>
<path d="M10 20L11 20L11 21L10 21L10 20Z" fill="#46bffb" fill-rule="evenodd" opacity="1" stroke="none"/>
<path d="M11 20L12 20L12 21L11 21L11 20Z" fill="#46bffb" fill-rule="evenodd" opacity="1" stroke="none"/>
<path d="M12 20L13 20L13 21L12 21L12 20Z" fill="#46bffb" fill-rule="evenodd" opacity="1" stroke="none"/>
<path d="M13 20L14 20L14 21L13 21L13 20Z" fill="#46bffb" fill-rule="evenodd" opacity="1" stroke="none"/>
<path d="M13 21L14 21L14 22L13 22L13 21Z" fill="#46bffb" fill-rule="evenodd" opacity="1" stroke="none"/>
<path d="M12 21L13 21L13 22L12 22L12 21Z" fill="#46bffb" fill-rule="evenodd" opacity="1" stroke="none"/>
<path d="M11 21L12 21L12 22L11 22L11 21Z" fill="#46bffb" fill-rule="evenodd" opacity="1" stroke="none"/>
<path d="M10 21L11 21L11 22L10 22L10 21Z" fill="#46bffb" fill-rule="evenodd" opacity="1" stroke="none"/>
<path d="M9 21L10 21L10 22L9 22L9 21Z" fill="#46bffb" fill-rule="evenodd" opacity="1" stroke="none"/>
<path d="M8 21L9 21L9 22L8 22L8 21Z" fill="#46bffb" fill-rule="evenodd" opacity="1" stroke="none"/>
<path d="M7 21L8 21L8 22L7 22L7 21Z" fill="#46bffb" fill-rule="evenodd" opacity="1" stroke="none"/>
<path d="M6 21L7 21L7 22L6 22L6 21Z" fill="#46bffb" fill-rule="evenodd" opacity="1" stroke="none"/>
<path d="M5 21L6 21L6 22L5 22L5 21Z" fill="#46bffb" fill-rule="evenodd" opacity="1" stroke="none"/>
<path d="M6 22L7 22L7 23L6 23L6 22Z" fill="#46bffb" fill-rule="evenodd" opacity="1" stroke="none"/>
<path d="M7 22L8 22L8 23L7 23L7 22Z" fill="#46bffb" fill-rule="evenodd" opacity="1" stroke="none"/>
<path d="M8 22L9 22L9 23L8 23L8 22Z" fill="#46bffb" fill-rule="evenodd" opacity="1" stroke="none"/>
<path d="M9 22L10 22L10 23L9 23L9 22Z" fill="#46bffb" fill-rule="evenodd" opacity="1" stroke="none"/>
<path d="M10 22L11 22L11 23L10 23L10 22Z" fill="#46bffb" fill-rule="evenodd" opacity="1" stroke="none"/>
<path d="M11 22L12 22L12 23L11 23L11 22Z" fill="#46bffb" fill-rule="evenodd" opacity="1" stroke="none"/>
<path d="M12 22L13 22L13 23L12 23L12 22Z" fill="#46bffb" fill-rule="evenodd" opacity="1" stroke="none"/>
<path d="M13 22L14 22L14 23L13 23L13 22Z" fill="#46bffb" fill-rule="evenodd" opacity="1" stroke="none"/>
<path d="M12 23L13 23L13 24L12 24L12 23Z" fill="#46bffb" fill-rule="evenodd" opacity="1" stroke="none"/>
<path d="M11 23L12 23L12 24L11 24L11 23Z" fill="#46bffb" fill-rule="evenodd" opacity="1" stroke="none"/>
<path d="M10 23L11 23L11 24L10 24L10 23Z" fill="#46bffb" fill-rule="evenodd" opacity="1" stroke="none"/>
<path d="M9 23L10 23L10 24L9 24L9 23Z" fill="#46bffb" fill-rule="evenodd" opacity="1" stroke="none"/>
<path d="M8 23L9 23L9 24L8 24L8 23Z" fill="#46bffb" fill-rule="evenodd" opacity="1" stroke="none"/>
<path d="M7 23L8 23L8 24L7 24L7 23Z" fill="#46bffb" fill-rule="evenodd" opacity="1" stroke="none"/>
<path d="M7 24L8 24L8 25L7 25L7 24Z" fill="#46bffb" fill-rule="evenodd" opacity="1" stroke="none"/>
<path d="M8 24L9 24L9 25L8 25L8 24Z" fill="#46bffb" fill-rule="evenodd" opacity="1" stroke="none"/>
<path d="M9 24L10 24L10 25L9 25L9 24Z" fill="#46bffb" fill-rule="evenodd" opacity="1" stroke="none"/>
<path d="M10 24L11 24L11 25L10 25L10 24Z" fill="#46bffb" fill-rule="evenodd" opacity="1" stroke="none"/>
<path d="M11 24L12 24L12 25L11 25L11 24Z" fill="#46bffb" fill-rule="evenodd" opacity="1" stroke="none"/>
<path d="M12 24L13 24L13 25L12 25L12 24Z" fill="#46bffb" fill-rule="evenodd" opacity="1" stroke="none"/>
<path d="M11 25L12 25L12 26L11 26L11 25Z" fill="#46bffb" fill-rule="evenodd" opacity="1" stroke="none"/>
<path d="M10 25L11 25L11 26L10 26L10 25Z" fill="#46bffb" fill-rule="evenodd" opacity="1" stroke="none"/>
<path d="M9 25L10 25L10 26L9 26L9 25Z" fill="#46bffb" fill-rule="evenodd" opacity="1" stroke="none"/>
<path d="M8 25L9 25L9 26L8 26L8 25Z" fill="#46bffb" fill-rule="evenodd" opacity="1" stroke="none"/>
<path d="M7 25L8 25L8 26L7 26L7 25Z" fill="#46bffb" fill-rule="evenodd" opacity="1" stroke="none"/>
<path d="M7 26L8 26L8 27L7 27L7 26Z" fill="#46bffb" fill-rule="evenodd" opacity="1" stroke="none"/>
<path d="M8 26L9 26L9 27L8 27L8 26Z" fill="#46bffb" fill-rule="evenodd" opacity="1" stroke="none"/>
<path d="M9 26L10 26L10 27L9 27L9 26Z" fill="#46bffb" fill-rule="evenodd" opacity="1" stroke="none"/>
<path d="M10 26L11 26L11 27L10 27L10 26Z" fill="#46bffb" fill-rule="evenodd" opacity="1" stroke="none"/>
<path d="M11 26L12 26L12 27L11 27L11 26Z" fill="#46bffb" fill-rule="evenodd" opacity="1" stroke="none"/>
<path d="M9 27L10 27L10 28L9 28L9 27Z" fill="#46bffb" fill-rule="evenodd" opacity="1" stroke="none"/>
<path d="M8 27L9 27L9 28L8 28L8 27Z" fill="#46bffb" fill-rule="evenodd" opacity="1" stroke="none"/>
<path d="M7 27L8 27L8 28L7 28L7 27Z" fill="#46bffb" fill-rule="evenodd" opacity="1" stroke="none"/>
<path d="M6 27L7 27L7 28L6 28L6 27Z" fill="#46bffb" fill-rule="evenodd" opacity="1" stroke="none"/>
<path d="M5 27L6 27L6 28L5 28L5 27Z" fill="#46bffb" fill-rule="evenodd" opacity="1" stroke="none"/>
<path d="M5 26L6 26L6 27L5 27L5 26Z" fill="#46bffb" fill-rule="evenodd" opacity="1" stroke="none"/>
<path d="M4 26L5 26L5 27L4 27L4 26Z" fill="#46bffb" fill-rule="evenodd" opacity="1" stroke="none"/>
<path d="M4 25L5 25L5 26L4 26L4 25Z" fill="#46bffb" fill-rule="evenodd" opacity="1" stroke="none"/>
<path d="M5 25L6 25L6 26L5 26L5 25Z" fill="#46bffb" fill-rule="evenodd" opacity="1" stroke="none"/>
<path d="M5 24L6 24L6 25L5 25L5 24Z" fill="#46bffb" fill-rule="evenodd" opacity="1" stroke="none"/>
<path d="M5 23L6 23L6 24L5 24L5 23Z" fill="#46bffb" fill-rule="evenodd" opacity="1" stroke="none"/>
<path d="M4 23L5 23L5 24L4 24L4 23Z" fill="#46bffb" fill-rule="evenodd" opacity="1" stroke="none"/>
<path d="M4 24L5 24L5 25L4 25L4 24Z" fill="#46bffb" fill-rule="evenodd" opacity="1" stroke="none"/>
<path d="M3 24L4 24L4 25L3 25L3 24Z" fill="#46bffb" fill-rule="evenodd" opacity="1" stroke="none"/>
<path d="M5 28L6 28L6 29L5 29L5 28Z" fill="#46bffb" fill-rule="evenodd" opacity="1" stroke="none"/>
<path d="M6 28L7 28L7 29L6 29L6 28Z" fill="#46bffb" fill-rule="evenodd" opacity="1" stroke="none"/>
<path d="M7 28L8 28L8 29L7 29L7 28Z" fill="#46bffb" fill-rule="evenodd" opacity="1" stroke="none"/>
<path d="M8 28L9 28L9 29L8 29L8 28Z" fill="#46bffb" fill-rule="evenodd" opacity="1" stroke="none"/>
<path d="M1 16L1 23" fill="none" fill-rule="evenodd" opacity="0.502104" stroke="#ffffff" stroke-linecap="round" stroke-linejoin="round" stroke-width="0.1"/>
<path d="M1 23L2 23" fill="none" fill-rule="evenodd" opacity="0.502104" stroke="#ffffff" stroke-linecap="round" stroke-linejoin="round" stroke-width="0.1"/>
<path d="M2 23L2 25" fill="none" fill-rule="evenodd" opacity="0.502104" stroke="#ffffff" stroke-linecap="round" stroke-linejoin="round" stroke-width="0.1"/>
<path d="M2 25L3 25" fill="none" fill-rule="evenodd" opacity="0.502104" stroke="#ffffff" stroke-linecap="round" stroke-linejoin="round" stroke-width="0.1"/>
<path d="M3 25L3 27" fill="none" fill-rule="evenodd" opacity="0.502104" stroke="#ffffff" stroke-linecap="round" stroke-linejoin="round" stroke-width="0.1"/>
<path d="M3 27L4 27" fill="none" fill-rule="evenodd" opacity="0.502104" stroke="#ffffff" stroke-linecap="round" stroke-linejoin="round" stroke-width="0.1"/>
<path d="M4 27L4 29" fill="none" fill-rule="evenodd" opacity="0.502104" stroke="#ffffff" stroke-linecap="round" stroke-linejoin="round" stroke-width="0.1"/>
<path d="M4 29L5 29" fill="none" fill-rule="evenodd" opacity="0.502104" stroke="#ffffff" stroke-linecap="round" stroke-linejoin="round" stroke-width="0.1"/>
<path d="M5 29L5 30" fill="none" fill-rule="evenodd" opacity="0.502104" stroke="#ffffff" stroke-linecap="round" stroke-linejoin="round" stroke-width="0.1"/>
<path d="M5 30L11 30" fill="none" fill-rule="evenodd" opacity="0.502104" stroke="#ffffff" stroke-linecap="round" stroke-linejoin="round" stroke-width="0.1"/>
<path d="M11 29L11 30" fill="none" fill-rule="evenodd" opacity="0.502104" stroke="#ffffff" stroke-linecap="round" stroke-linejoin="round" stroke-width="0.1"/>
<path d="M11 29L12 29" fill="none" fill-rule="evenodd" opacity="0.502104" stroke="#ffffff" stroke-linecap="round" stroke-linejoin="round" stroke-width="0.1"/>
<path d="M12 27L12 29" fill="none" fill-rule="evenodd" opacity="0.502104" stroke="#ffffff" stroke-linecap="round" stroke-linejoin="round" stroke-width="0.1"/>
<path d="M12 27L13 27" fill="none" fill-rule="evenodd" opacity="0.502104" stroke="#ffffff" stroke-linecap="round" stroke-linejoin="round" stroke-width="0.1"/>
<path d="M13 25L13 27" fill="none" fill-rule="evenodd" opacity="0.502104" stroke="#ffffff" stroke-linecap="round" stroke-linejoin="round" stroke-width="0.1"/>
<path d="M13 25L14 25" fill="none" fill-rule="evenodd" opacity="0.502104" stroke="#ffffff" stroke-linecap="round" stroke-linejoin="round" stroke-width="0.1"/>
<path d="M14 23L14 25" fill="none" fill-rule="evenodd" opacity="0.502104" stroke="#ffffff" stroke-linecap="round" stroke-linejoin="round" stroke-width="0.1"/>
<path d="M14 23L15 23" fill="none" fill-rule="evenodd" opacity="0.502104" stroke="#ffffff" stroke-linecap="round" stroke-linejoin="round" stroke-width="0.1"/>
<path d="M15 16L15 23" fill="none" fill-rule="evenodd" opacity="0.502104" stroke="#ffffff" stroke-linecap="round" stroke-linejoin="round" stroke-width="0.1"/>
</g>
<g id="图层-1" vectornator:layerName="图层 1">
<path d="M1 16L2 16" fill="none" fill-rule="evenodd" opacity="0.502104" stroke="#ffffff" stroke-linecap="round" stroke-linejoin="round" stroke-width="0.1"/>
<path d="M14 16L15 16" fill="none" fill-rule="evenodd" opacity="0.502104" stroke="#ffffff" stroke-linecap="butt" stroke-linejoin="miter" stroke-width="0.1"/>
</g>
</svg>
