<?xml version="1.0" encoding="UTF-8" standalone="no"?>
<!DOCTYPE svg PUBLIC "-//W3C//DTD SVG 1.1//EN" "http://www.w3.org/Graphics/SVG/1.1/DTD/svg11.dtd">

<!-- Created with Vectornator (http://vectornator.io/) -->
<svg height="100%" stroke-miterlimit="10" style="fill-rule:nonzero;clip-rule:evenodd;stroke-linecap:round;stroke-linejoin:round;" version="1.1" viewBox="0 0 16 16" width="100%" xml:space="preserve" xmlns="http://www.w3.org/2000/svg" xmlns:vectornator="http://vectornator.io" xmlns:xlink="http://www.w3.org/1999/xlink">
<metadata>
<vectornator:setting key="IsTimeLapseWatermarkDisabled" value="false"/>
<vectornator:setting key="UndoHistoryDisabled" value="true"/>
<vectornator:setting key="VNDimensionsVisible" value="true"/>
<vectornator:setting key="VNSnapToGuides" value="false"/>
<vectornator:setting key="WDCMYKEnabledKey" value="false"/>
<vectornator:setting key="WDDisplayWhiteBackground" value="false"/>
<vectornator:setting key="WDDynamicGuides" value="false"/>
<vectornator:setting key="WDGuidesVisible" value="false"/>
<vectornator:setting key="WDIsolateActiveLayer" value="false"/>
<vectornator:setting key="WDOutlineMode" value="false"/>
<vectornator:setting key="WDRulersVisible" value="true"/>
<vectornator:setting key="WDSnapToEdges" value="false"/>
<vectornator:setting key="WDSnapToGrid" value="true"/>
<vectornator:setting key="WDSnapToPoints" value="false"/>
<vectornator:setting key="WDUnits" value="Pixels"/>
</metadata>
<defs>
<linearGradient gradientTransform="matrix(1 0 0 1 0 0)" gradientUnits="userSpaceOnUse" id="LinearGradient" x1="11" x2="12" y1="3.5" y2="3.5">
<stop offset="0" stop-color="#000000"/>
<stop offset="1" stop-color="#000000"/>
</linearGradient>
</defs>
<g id="图层-2" vectornator:layerName="图层 2">
<path d="M10 9L11 9L11 10L10 10L10 9Z" fill="#0020ff" fill-rule="evenodd" opacity="1" stroke="none"/>
<path d="M5 9L6 9L6 12L5 12L5 9Z" fill="#0020ff" fill-rule="evenodd" opacity="1" stroke="none"/>
<path d="M5 12L6 12L6 13L5 13L5 12Z" fill="#0020ff" fill-rule="evenodd" opacity="1" stroke="none"/>
<path d="M6 13L7 13L7 14L6 14L6 13Z" fill="#0020ff" fill-rule="evenodd" opacity="1" stroke="none"/>
<path d="M7 13L8 13L8 14L7 14L7 13Z" fill="#0020ff" fill-rule="evenodd" opacity="1" stroke="none"/>
<path d="M8 13L9 13L9 14L8 14L8 13Z" fill="#0020ff" fill-rule="evenodd" opacity="1" stroke="none"/>
<path d="M9 12L10 12L10 13L9 13L9 12Z" fill="#0020ff" fill-rule="evenodd" opacity="1" stroke="none"/>
<path d="M10 12L11 12L11 13L10 13L10 12Z" fill="#0020ff" fill-rule="evenodd" opacity="1" stroke="none"/>
<path d="M10 11L11 11L11 12L10 12L10 11Z" fill="#0020ff" fill-rule="evenodd" opacity="1" stroke="none"/>
<path d="M10 10L11 10L11 11L10 11L10 10Z" fill="#0020ff" fill-rule="evenodd" opacity="1" stroke="none"/>
<path d="M6 10L7 10L7 13L6 13L6 10Z" fill="#0020ff" fill-rule="evenodd" opacity="1" stroke="none"/>
<path d="M7 12L8 12L8 13L7 13L7 12Z" fill="#0020ff" fill-rule="evenodd" opacity="1" stroke="none"/>
<path d="M8 12L9 12L9 13L8 13L8 12Z" fill="#0020ff" fill-rule="evenodd" opacity="1" stroke="none"/>
<path d="M9 10L10 10L10 11L9 11L9 10Z" fill="#0020ff" fill-rule="evenodd" opacity="1" stroke="none"/>
<path d="M7 10L9 10L9 11L7 11L7 10Z" fill="#0020ff" fill-rule="evenodd" opacity="1" stroke="none"/>
<path d="M5 2L6 2L6 3L5 3L5 2Z" fill="#000000" fill-rule="evenodd" opacity="1" stroke="none"/>
<path d="M6 2L7 2L7 3L6 3L6 2Z" fill="#000000" fill-rule="evenodd" opacity="1" stroke="none"/>
<path d="M8 1L9 1L9 2L8 2L8 1Z" fill="#000000" fill-rule="evenodd" opacity="1" stroke="none"/>
<path d="M9 2L10 2L10 3L9 3L9 2Z" fill="#000000" fill-rule="evenodd" opacity="1" stroke="none"/>
<path d="M10 2L11 2L11 3L10 3L10 2Z" fill="#000000" fill-rule="evenodd" opacity="1" stroke="none"/>
<path d="M11 3L12 3L12 4L11 4L11 3Z" fill="url(#LinearGradient)" fill-rule="evenodd" opacity="1" stroke="none"/>
<path d="M10 4L11 4L11 5L10 5L10 4Z" fill="#000000" fill-rule="evenodd" opacity="1" stroke="none"/>
<path d="M11 4L12 4L12 5L11 5L11 4Z" fill="#000000" fill-rule="evenodd" opacity="1" stroke="none"/>
<path d="M11 5L12 5L12 6L11 6L11 5Z" fill="#000000" fill-rule="evenodd" opacity="1" stroke="none"/>
<path d="M11 6L12 6L12 7L11 7L11 6Z" fill="#000000" fill-rule="evenodd" opacity="1" stroke="none"/>
<path d="M11 7L12 7L12 8L11 8L11 7Z" fill="#000000" fill-rule="evenodd" opacity="1" stroke="none"/>
<path d="M11 8L12 8L12 9L11 9L11 8Z" fill="#000000" fill-rule="evenodd" opacity="1" stroke="none"/>
<path d="M11 9L12 9L12 10L11 10L11 9Z" fill="#000000" fill-rule="evenodd" opacity="1" stroke="none"/>
<path d="M11 10L12 10L12 11L11 11L11 10Z" fill="#000000" fill-rule="evenodd" opacity="1" stroke="none"/>
<path d="M11 11L12 11L12 12L11 12L11 11Z" fill="#000000" fill-rule="evenodd" opacity="1" stroke="none"/>
<path d="M11 12L12 12L12 13L11 13L11 12Z" fill="#000000" fill-rule="evenodd" opacity="1" stroke="none"/>
<path d="M10 13L11 13L11 14L10 14L10 13Z" fill="#000000" fill-rule="evenodd" opacity="1" stroke="none"/>
<path d="M9 13L10 13L10 14L9 14L9 13Z" fill="#0020ff" fill-rule="evenodd" opacity="1" stroke="none"/>
<path d="M9 14L10 14L10 15L9 15L9 14Z" fill="#000000" fill-rule="evenodd" opacity="1" stroke="none"/>
<path d="M8 14L9 14L9 15L8 15L8 14Z" fill="#000000" fill-rule="evenodd" opacity="1" stroke="none"/>
<path d="M7 14L8 14L8 15L7 15L7 14Z" fill="#000000" fill-rule="evenodd" opacity="1" stroke="none"/>
<path d="M6 14L7 14L7 15L6 15L6 14Z" fill="#000000" fill-rule="evenodd" opacity="1" stroke="none"/>
<path d="M5 13L6 13L6 14L5 14L5 13Z" fill="#000000" fill-rule="evenodd" opacity="1" stroke="none"/>
<path d="M4 12L5 12L5 13L4 13L4 12Z" fill="#000000" fill-rule="evenodd" opacity="1" stroke="none"/>
<path d="M4 11L5 11L5 12L4 12L4 11Z" fill="#000000" fill-rule="evenodd" opacity="1" stroke="none"/>
<path d="M4 10L5 10L5 11L4 11L4 10Z" fill="#000000" fill-rule="evenodd" opacity="1" stroke="none"/>
<path d="M4 9L5 9L5 10L4 10L4 9Z" fill="#000000" fill-rule="evenodd" opacity="1" stroke="none"/>
<path d="M4 8L5 8L5 9L4 9L4 8Z" fill="#000000" fill-rule="evenodd" opacity="1" stroke="none"/>
<path d="M4 7L5 7L5 8L4 8L4 7Z" fill="#000000" fill-rule="evenodd" opacity="1" stroke="none"/>
<path d="M4 6L5 6L5 7L4 7L4 6Z" fill="#000000" fill-rule="evenodd" opacity="1" stroke="none"/>
<path d="M4 5L5 5L5 6L4 6L4 5Z" fill="#000000" fill-rule="evenodd" opacity="1" stroke="none"/>
<path d="M4 4L5 4L5 5L4 5L4 4Z" fill="#000000" fill-rule="evenodd" opacity="1" stroke="none"/>
<path d="M4 3L5 3L5 4L4 4L4 3Z" fill="#000000" fill-rule="evenodd" opacity="1" stroke="none"/>
<path d="M5 4L6 4L6 5L5 5L5 4Z" fill="#000000" fill-rule="evenodd" opacity="1" stroke="none"/>
<path d="M6 5L7 5L7 6L6 6L6 5Z" fill="#000000" fill-rule="evenodd" opacity="1" stroke="none"/>
<path d="M7 5L8 5L8 6L7 6L7 5Z" fill="#000000" fill-rule="evenodd" opacity="1" stroke="none"/>
<path d="M8 5L9 5L9 6L8 6L8 5Z" fill="#000000" fill-rule="evenodd" opacity="1" stroke="none"/>
<path d="M9 5L10 5L10 6L9 6L9 5Z" fill="#000000" fill-rule="evenodd" opacity="1" stroke="none"/>
<path d="M7 8L8 8L8 9L7 9L7 8Z" fill="#000000" fill-rule="evenodd" opacity="1" stroke="none"/>
<path d="M8 8L9 8L9 9L8 9L8 8Z" fill="#000000" fill-rule="evenodd" opacity="1" stroke="none"/>
<path d="M9 8L10 8L10 9L9 9L9 8Z" fill="#000000" fill-rule="evenodd" opacity="1" stroke="none"/>
<path d="M8 7L9 7L9 8L8 8L8 7Z" fill="#000000" fill-rule="evenodd" opacity="1" stroke="none"/>
<path d="M8 9L9 9L9 10L8 10L8 9Z" fill="#000000" fill-rule="evenodd" opacity="1" stroke="none"/>
<path d="M7 11L8 11L8 12L7 12L7 11Z" fill="#000000" fill-rule="evenodd" opacity="1" stroke="none"/>
<path d="M8 11L9 11L9 12L8 12L8 11Z" fill="#000000" fill-rule="evenodd" opacity="1" stroke="none"/>
<path d="M9 11L10 11L10 12L9 12L9 11Z" fill="#000000" fill-rule="evenodd" opacity="1" stroke="none"/>
<path d="M5 5L6 5L6 6L5 6L5 5Z" fill="#ff0000" fill-rule="evenodd" opacity="1" stroke="none"/>
<path d="M5 6L6 6L6 7L5 7L5 6Z" fill="#ff0000" fill-rule="evenodd" opacity="1" stroke="none"/>
<path d="M6 6L7 6L7 7L6 7L6 6Z" fill="#ff0000" fill-rule="evenodd" opacity="1" stroke="none"/>
<path d="M7 6L8 6L8 7L7 7L7 6Z" fill="#ff0000" fill-rule="evenodd" opacity="1" stroke="none"/>
<path d="M8 6L9 6L9 7L8 7L8 6Z" fill="#ff0000" fill-rule="evenodd" opacity="1" stroke="none"/>
<path d="M9 6L10 6L10 7L9 7L9 6Z" fill="#ff0000" fill-rule="evenodd" opacity="1" stroke="none"/>
<path d="M10 6L10 6L10 7L10 7L10 6Z" fill="#ff0000" fill-rule="evenodd" opacity="1" stroke="none"/>
<path d="M10 5L11 5L11 6L10 6L10 5Z" fill="#ff0000" fill-rule="evenodd" opacity="1" stroke="none"/>
<path d="M10 6L11 6L11 7L10 7L10 6Z" fill="#ff0000" fill-rule="evenodd" opacity="1" stroke="none"/>
<path d="M7 7L8 7L8 8L7 8L7 7Z" fill="#ff0000" fill-rule="evenodd" opacity="1" stroke="none"/>
<path d="M6 7L7 7L7 8L6 8L6 7Z" fill="#ff0000" fill-rule="evenodd" opacity="1" stroke="none"/>
<path d="M5 7L6 7L6 8L5 8L5 7Z" fill="#ff0000" fill-rule="evenodd" opacity="1" stroke="none"/>
<path d="M10 7L11 7L11 8L10 8L10 7Z" fill="#ff0000" fill-rule="evenodd" opacity="1" stroke="none"/>
<path d="M9 7L10 7L10 8L9 8L9 7Z" fill="#ff0000" fill-rule="evenodd" opacity="1" stroke="none"/>
<path d="M10 8L11 8L11 9L10 9L10 8Z" fill="#ff0000" fill-rule="evenodd" opacity="1" stroke="none"/>
<path d="M9 9L10 9L10 10L9 10L9 9Z" fill="#ff0000" fill-rule="evenodd" opacity="1" stroke="none"/>
<path d="M7 9L8 9L8 10L7 10L7 9Z" fill="#ff0000" fill-rule="evenodd" opacity="1" stroke="none"/>
<path d="M6 9L7 9L7 10L6 10L6 9Z" fill="#ff0000" fill-rule="evenodd" opacity="1" stroke="none"/>
<path d="M6 8L7 8L7 9L6 9L6 8Z" fill="#ff0000" fill-rule="evenodd" opacity="1" stroke="none"/>
<path d="M5 8L6 8L6 9L5 9L5 8Z" fill="#ff0000" fill-rule="evenodd" opacity="1" stroke="none"/>
<path d="M7 1L8 1L8 2L7 2L7 1Z" fill="#7a7171" fill-rule="evenodd" opacity="1" stroke="none"/>
<path d="M7 2L8 2L8 3L7 3L7 2Z" fill="#7a7171" fill-rule="evenodd" opacity="1" stroke="none"/>
<path d="M8 2L9 2L9 3L8 3L8 2Z" fill="#7a7171" fill-rule="evenodd" opacity="1" stroke="none"/>
<path d="M8 3L9 3L9 4L8 4L8 3Z" fill="#7a7171" fill-rule="evenodd" opacity="1" stroke="none"/>
<path d="M9 3L10 3L10 4L9 4L9 3Z" fill="#7a7171" fill-rule="evenodd" opacity="1" stroke="none"/>
<path d="M10 3L11 3L11 4L10 4L10 3Z" fill="#7a7171" fill-rule="evenodd" opacity="1" stroke="none"/>
<path d="M9 4L10 4L10 5L9 5L9 4Z" fill="#7a7171" fill-rule="evenodd" opacity="1" stroke="none"/>
<path d="M7 4L9 4L9 5L7 5L7 4Z" fill="#7a7171" fill-rule="evenodd" opacity="1" stroke="none"/>
<path d="M7 3L8 3L8 4L7 4L7 3Z" fill="#7a7171" fill-rule="evenodd" opacity="1" stroke="none"/>
<path d="M6 3L7 3L7 4L6 4L6 3Z" fill="#7a7171" fill-rule="evenodd" opacity="1" stroke="none"/>
<path d="M5 3L6 3L6 4L5 4L5 3Z" fill="#7a7171" fill-rule="evenodd" opacity="1" stroke="none"/>
<path d="M6 4L7 4L7 5L6 5L6 4Z" fill="#7a7171" fill-rule="evenodd" opacity="1" stroke="none"/>
<path d="M12 3L12 13" fill="#000000" fill-rule="evenodd" opacity="0.501938" stroke="#ffffff" stroke-linecap="butt" stroke-linejoin="miter" stroke-width="0.1"/>
<path d="M11 13L12 13" fill="none" fill-rule="evenodd" opacity="0.501938" stroke="#ffffff" stroke-linecap="butt" stroke-linejoin="miter" stroke-width="0.1"/>
<path d="M11 13L11 14" fill="none" fill-rule="evenodd" opacity="0.501938" stroke="#ffffff" stroke-linecap="round" stroke-linejoin="round" stroke-width="0.1"/>
<path d="M10 14L11 14" fill="none" fill-rule="evenodd" opacity="0.501938" stroke="#ffffff" stroke-linecap="round" stroke-linejoin="round" stroke-width="0.1"/>
<path d="M10 14L10 15" fill="none" fill-rule="evenodd" opacity="0.501938" stroke="#ffffff" stroke-linecap="round" stroke-linejoin="round" stroke-width="0.1"/>
<path d="M6 15L10 15" fill="none" fill-rule="evenodd" opacity="0.501938" stroke="#ffffff" stroke-linecap="round" stroke-linejoin="round" stroke-width="0.1"/>
<path d="M6 14L6 15" fill="none" fill-rule="evenodd" opacity="0.501938" stroke="#ffffff" stroke-linecap="round" stroke-linejoin="round" stroke-width="0.1"/>
<path d="M5 14L6 14" fill="none" fill-rule="evenodd" opacity="0.501938" stroke="#ffffff" stroke-linecap="round" stroke-linejoin="round" stroke-width="0.1"/>
<path d="M5 13L5 14" fill="none" fill-rule="evenodd" opacity="0.501938" stroke="#ffffff" stroke-linecap="round" stroke-linejoin="round" stroke-width="0.1"/>
<path d="M4 13L5 13" fill="none" fill-rule="evenodd" opacity="0.501938" stroke="#ffffff" stroke-linecap="round" stroke-linejoin="round" stroke-width="0.1"/>
<path d="M4 3L4 13" fill="none" fill-rule="evenodd" opacity="0.501938" stroke="#ffffff" stroke-linecap="round" stroke-linejoin="round" stroke-width="0.1"/>
<path d="M4 3L5 3" fill="none" fill-rule="evenodd" opacity="0.501938" stroke="#ffffff" stroke-linecap="round" stroke-linejoin="round" stroke-width="0.1"/>
<path d="M5 2L5 3" fill="none" fill-rule="evenodd" opacity="0.501938" stroke="#ffffff" stroke-linecap="round" stroke-linejoin="round" stroke-width="0.1"/>
<path d="M5 2L7 2" fill="none" fill-rule="evenodd" opacity="0.501938" stroke="#ffffff" stroke-linecap="round" stroke-linejoin="round" stroke-width="0.1"/>
<path d="M7 1L7 2" fill="none" fill-rule="evenodd" opacity="0.501938" stroke="#ffffff" stroke-linecap="round" stroke-linejoin="round" stroke-width="0.1"/>
<path d="M7 1L9 1" fill="none" fill-rule="evenodd" opacity="0.501938" stroke="#ffffff" stroke-linecap="round" stroke-linejoin="round" stroke-width="0.1"/>
<path d="M9 1L9 2" fill="none" fill-rule="evenodd" opacity="0.501938" stroke="#ffffff" stroke-linecap="round" stroke-linejoin="round" stroke-width="0.1"/>
<path d="M9 2L11 2" fill="none" fill-rule="evenodd" opacity="0.501938" stroke="#ffffff" stroke-linecap="round" stroke-linejoin="round" stroke-width="0.1"/>
<path d="M11 2L11 3" fill="none" fill-rule="evenodd" opacity="0.501938" stroke="#ffffff" stroke-linecap="round" stroke-linejoin="round" stroke-width="0.1"/>
<path d="M11 3L12 3" fill="none" fill-rule="evenodd" opacity="0.501938" stroke="#ffffff" stroke-linecap="round" stroke-linejoin="round" stroke-width="0.1"/>
</g>
<clipPath id="ArtboardFrame">
<rect height="16" width="16" x="0" y="0"/>
</clipPath>
<g clip-path="url(#ArtboardFrame)" id="图层-2-复制-Copy" vectornator:layerName="图层 2 复制 C,opy">
<path d="M1 0L1 16" fill="#000000" fill-rule="evenodd" opacity="0.203488" stroke="#ffffff" stroke-linecap="round" stroke-linejoin="round" stroke-width="0.1"/>
<path d="M0 0L0 16" fill="#000000" fill-rule="evenodd" opacity="0.304264" stroke="#ffffff" stroke-linecap="round" stroke-linejoin="round" stroke-width="0.1"/>
<path d="M2 0L2 16" fill="#000000" fill-rule="evenodd" opacity="0.203488" stroke="#ffffff" stroke-linecap="round" stroke-linejoin="round" stroke-width="0.1"/>
<path d="M3 0L3 16" fill="#000000" fill-rule="evenodd" opacity="0.203488" stroke="#ffffff" stroke-linecap="round" stroke-linejoin="round" stroke-width="0.1"/>
<path d="M4 0L4 16" fill="#000000" fill-rule="evenodd" opacity="0.203488" stroke="#ffffff" stroke-linecap="round" stroke-linejoin="round" stroke-width="0.1"/>
<path d="M5 0L5 16" fill="#000000" fill-rule="evenodd" opacity="0.203488" stroke="#ffffff" stroke-linecap="round" stroke-linejoin="round" stroke-width="0.1"/>
<path d="M6 0L6 16" fill="#000000" fill-rule="evenodd" opacity="0.203488" stroke="#ffffff" stroke-linecap="round" stroke-linejoin="round" stroke-width="0.1"/>
<path d="M7 0L7 16" fill="#000000" fill-rule="evenodd" opacity="0.203488" stroke="#ffffff" stroke-linecap="round" stroke-linejoin="round" stroke-width="0.1"/>
<path d="M8 0L8 16" fill="#000000" fill-rule="evenodd" opacity="0.203488" stroke="#ffffff" stroke-linecap="round" stroke-linejoin="round" stroke-width="0.1"/>
<path d="M9 0L9 16" fill="#000000" fill-rule="evenodd" opacity="0.203488" stroke="#ffffff" stroke-linecap="round" stroke-linejoin="round" stroke-width="0.1"/>
<path d="M10 0L10 16" fill="#000000" fill-rule="evenodd" opacity="0.203488" stroke="#ffffff" stroke-linecap="round" stroke-linejoin="round" stroke-width="0.1"/>
<path d="M11 0L11 16" fill="#000000" fill-rule="evenodd" opacity="0.203488" stroke="#ffffff" stroke-linecap="round" stroke-linejoin="round" stroke-width="0.1"/>
<path d="M12 0L12 16" fill="#000000" fill-rule="evenodd" opacity="0.203488" stroke="#ffffff" stroke-linecap="round" stroke-linejoin="round" stroke-width="0.1"/>
<path d="M13 0L13 16" fill="#000000" fill-rule="evenodd" opacity="0.203488" stroke="#ffffff" stroke-linecap="round" stroke-linejoin="round" stroke-width="0.1"/>
<path d="M14 0L14 16" fill="#000000" fill-rule="evenodd" opacity="0.203488" stroke="#ffffff" stroke-linecap="round" stroke-linejoin="round" stroke-width="0.1"/>
<path d="M15 0L15 16" fill="#000000" fill-rule="evenodd" opacity="0.203488" stroke="#ffffff" stroke-linecap="round" stroke-linejoin="round" stroke-width="0.1"/>
<path d="M16 0L16 16" fill="#000000" fill-rule="evenodd" opacity="0.203488" stroke="#ffffff" stroke-linecap="round" stroke-linejoin="round" stroke-width="0.1"/>
<path d="M0 0L16 0" fill="#000000" fill-rule="evenodd" opacity="0.203488" stroke="#ffffff" stroke-linecap="round" stroke-linejoin="round" stroke-width="0.1"/>
<path d="M0 1L16 1" fill="#000000" fill-rule="evenodd" opacity="0.203488" stroke="#ffffff" stroke-linecap="round" stroke-linejoin="round" stroke-width="0.1"/>
<path d="M0 2L16 2" fill="#000000" fill-rule="evenodd" opacity="0.203488" stroke="#ffffff" stroke-linecap="round" stroke-linejoin="round" stroke-width="0.1"/>
<path d="M0 3L16 3" fill="#000000" fill-rule="evenodd" opacity="0.203488" stroke="#ffffff" stroke-linecap="round" stroke-linejoin="round" stroke-width="0.1"/>
<path d="M0 4L16 4" fill="#000000" fill-rule="evenodd" opacity="0.203488" stroke="#ffffff" stroke-linecap="round" stroke-linejoin="round" stroke-width="0.1"/>
<path d="M0 5L16 5" fill="#000000" fill-rule="evenodd" opacity="0.203488" stroke="#ffffff" stroke-linecap="round" stroke-linejoin="round" stroke-width="0.1"/>
<path d="M0 6L16 6" fill="#000000" fill-rule="evenodd" opacity="0.203488" stroke="#ffffff" stroke-linecap="round" stroke-linejoin="round" stroke-width="0.1"/>
<path d="M0 7L16 7" fill="#000000" fill-rule="evenodd" opacity="0.203488" stroke="#ffffff" stroke-linecap="round" stroke-linejoin="round" stroke-width="0.1"/>
<path d="M0 8L16 8" fill="#000000" fill-rule="evenodd" opacity="0.203488" stroke="#ffffff" stroke-linecap="round" stroke-linejoin="round" stroke-width="0.1"/>
<path d="M0 9L16 9" fill="#000000" fill-rule="evenodd" opacity="0.203488" stroke="#ffffff" stroke-linecap="round" stroke-linejoin="round" stroke-width="0.1"/>
<path d="M0 10L16 10" fill="#000000" fill-rule="evenodd" opacity="0.203488" stroke="#ffffff" stroke-linecap="round" stroke-linejoin="round" stroke-width="0.1"/>
<path d="M0 11L16 11" fill="#000000" fill-rule="evenodd" opacity="0.203488" stroke="#ffffff" stroke-linecap="round" stroke-linejoin="round" stroke-width="0.1"/>
<path d="M0 12L16 12" fill="#000000" fill-rule="evenodd" opacity="0.203488" stroke="#ffffff" stroke-linecap="round" stroke-linejoin="round" stroke-width="0.1"/>
<path d="M0 13L16 13" fill="#000000" fill-rule="evenodd" opacity="0.203488" stroke="#ffffff" stroke-linecap="round" stroke-linejoin="round" stroke-width="0.1"/>
<path d="M0 14L16 14" fill="#000000" fill-rule="evenodd" opacity="0.203488" stroke="#ffffff" stroke-linecap="round" stroke-linejoin="round" stroke-width="0.1"/>
<path d="M0 15L16 15" fill="#000000" fill-rule="evenodd" opacity="0.203488" stroke="#ffffff" stroke-linecap="round" stroke-linejoin="round" stroke-width="0.1"/>
<path d="M0 16L16 16" fill="#000000" fill-rule="evenodd" opacity="0.203488" stroke="#ffffff" stroke-linecap="round" stroke-linejoin="round" stroke-width="0.1"/>
</g>
</svg>
