<?xml version="1.0" encoding="UTF-8" standalone="no"?>
<!DOCTYPE svg PUBLIC "-//W3C//DTD SVG 1.1//EN" "http://www.w3.org/Graphics/SVG/1.1/DTD/svg11.dtd">

<!-- Created with Vectornator (http://vectornator.io/) -->
<svg height="100%" stroke-miterlimit="10" style="fill-rule:nonzero;clip-rule:evenodd;stroke-linecap:round;stroke-linejoin:round;" version="1.1" viewBox="0 0 32 16" width="100%" xml:space="preserve" xmlns="http://www.w3.org/2000/svg" xmlns:vectornator="http://vectornator.io" xmlns:xlink="http://www.w3.org/1999/xlink">
<metadata>
<vectornator:setting key="IsTimeLapseWatermarkDisabled" value="false"/>
<vectornator:setting key="UndoHistoryDisabled" value="true"/>
<vectornator:setting key="VNDimensionsVisible" value="true"/>
<vectornator:setting key="VNSnapToGuides" value="true"/>
<vectornator:setting key="WDCMYKEnabledKey" value="false"/>
<vectornator:setting key="WDDisplayWhiteBackground" value="false"/>
<vectornator:setting key="WDDynamicGuides" value="false"/>
<vectornator:setting key="WDGuidesVisible" value="true"/>
<vectornator:setting key="WDIsolateActiveLayer" value="false"/>
<vectornator:setting key="WDOutlineMode" value="false"/>
<vectornator:setting key="WDRulersVisible" value="true"/>
<vectornator:setting key="WDSnapToEdges" value="false"/>
<vectornator:setting key="WDSnapToGrid" value="true"/>
<vectornator:setting key="WDSnapToPoints" value="false"/>
<vectornator:setting key="WDUnits" value="Pixels"/>
</metadata>
<defs/>
<g id="图层-1-Copy" vectornator:layerName="图层 1 Copy">
<path d="M15 1L16 1L16 2L15 2L15 1Z" fill="#000000" fill-rule="evenodd" opacity="1" stroke="none"/>
<path d="M17 1L16 1L16 2L17 2L17 1Z" fill="#000000" fill-rule="evenodd" opacity="1" stroke="none"/>
<path d="M14 1L15 1L15 2L14 2L14 1Z" fill="#000000" fill-rule="evenodd" opacity="1" stroke="none"/>
<path d="M18 1L17 1L17 2L18 2L18 1Z" fill="#000000" fill-rule="evenodd" opacity="1" stroke="none"/>
<path d="M13 1L14 1L14 2L13 2L13 1Z" fill="#000000" fill-rule="evenodd" opacity="1" stroke="none"/>
<path d="M19 1L18 1L18 2L19 2L19 1Z" fill="#000000" fill-rule="evenodd" opacity="1" stroke="none"/>
<path d="M12 1L13 1L13 2L12 2L12 1Z" fill="#000000" fill-rule="evenodd" opacity="1" stroke="none"/>
<path d="M20 1L19 1L19 2L20 2L20 1Z" fill="#000000" fill-rule="evenodd" opacity="1" stroke="none"/>
<path d="M11 1L12 1L12 2L11 2L11 1Z" fill="#000000" fill-rule="evenodd" opacity="1" stroke="none"/>
<path d="M21 1L20 1L20 2L21 2L21 1Z" fill="#000000" fill-rule="evenodd" opacity="1" stroke="none"/>
<path d="M10 1L11 1L11 2L10 2L10 1Z" fill="#000000" fill-rule="evenodd" opacity="1" stroke="none"/>
<path d="M22 1L21 1L21 2L22 2L22 1Z" fill="#000000" fill-rule="evenodd" opacity="1" stroke="none"/>
<path d="M9 1L10 1L10 2L9 2L9 1Z" fill="#000000" fill-rule="evenodd" opacity="1" stroke="none"/>
<path d="M23 1L22 1L22 2L23 2L23 1Z" fill="#000000" fill-rule="evenodd" opacity="1" stroke="none"/>
<path d="M8 1L9 1L9 2L8 2L8 1Z" fill="#000000" fill-rule="evenodd" opacity="1" stroke="none"/>
<path d="M24 1L23 1L23 2L24 2L24 1Z" fill="#000000" fill-rule="evenodd" opacity="1" stroke="none"/>
<path d="M15 14L16 14L16 15L15 15L15 14Z" fill="#000000" fill-rule="evenodd" opacity="1" stroke="none"/>
<path d="M17 14L16 14L16 15L17 15L17 14Z" fill="#000000" fill-rule="evenodd" opacity="1" stroke="none"/>
<path d="M14 14L15 14L15 15L14 15L14 14Z" fill="#000000" fill-rule="evenodd" opacity="1" stroke="none"/>
<path d="M18 14L17 14L17 15L18 15L18 14Z" fill="#000000" fill-rule="evenodd" opacity="1" stroke="none"/>
<path d="M13 14L14 14L14 15L13 15L13 14Z" fill="#000000" fill-rule="evenodd" opacity="1" stroke="none"/>
<path d="M19 14L18 14L18 15L19 15L19 14Z" fill="#000000" fill-rule="evenodd" opacity="1" stroke="none"/>
<path d="M12 14L13 14L13 15L12 15L12 14Z" fill="#000000" fill-rule="evenodd" opacity="1" stroke="none"/>
<path d="M20 14L19 14L19 15L20 15L20 14Z" fill="#000000" fill-rule="evenodd" opacity="1" stroke="none"/>
<path d="M11 14L12 14L12 15L11 15L11 14Z" fill="#000000" fill-rule="evenodd" opacity="1" stroke="none"/>
<path d="M21 14L20 14L20 15L21 15L21 14Z" fill="#000000" fill-rule="evenodd" opacity="1" stroke="none"/>
<path d="M10 14L11 14L11 15L10 15L10 14Z" fill="#000000" fill-rule="evenodd" opacity="1" stroke="none"/>
<path d="M22 14L21 14L21 15L22 15L22 14Z" fill="#000000" fill-rule="evenodd" opacity="1" stroke="none"/>
<path d="M9 14L10 14L10 15L9 15L9 14Z" fill="#000000" fill-rule="evenodd" opacity="1" stroke="none"/>
<path d="M23 14L22 14L22 15L23 15L23 14Z" fill="#000000" fill-rule="evenodd" opacity="1" stroke="none"/>
<path d="M7 13L8 13L8 14L7 14L7 13Z" fill="#000000" fill-rule="evenodd" opacity="1" stroke="none"/>
<path d="M25 13L24 13L24 14L25 14L25 13Z" fill="#000000" fill-rule="evenodd" opacity="1" stroke="none"/>
<path d="M8 13L9 13L9 14L8 14L8 13Z" fill="#000000" fill-rule="evenodd" opacity="1" stroke="none"/>
<path d="M24 13L23 13L23 14L24 14L24 13Z" fill="#000000" fill-rule="evenodd" opacity="1" stroke="none"/>
<path d="M15 13L16 13L16 14L15 14L15 13Z" fill="#000000" fill-rule="evenodd" opacity="1" stroke="none"/>
<path d="M17 13L16 13L16 14L17 14L17 13Z" fill="#000000" fill-rule="evenodd" opacity="1" stroke="none"/>
<path d="M14 13L15 13L15 14L14 14L14 13Z" fill="#000000" fill-rule="evenodd" opacity="1" stroke="none"/>
<path d="M18 13L17 13L17 14L18 14L18 13Z" fill="#000000" fill-rule="evenodd" opacity="1" stroke="none"/>
<path d="M13 13L14 13L14 14L13 14L13 13Z" fill="#000000" fill-rule="evenodd" opacity="1" stroke="none"/>
<path d="M19 13L18 13L18 14L19 14L19 13Z" fill="#000000" fill-rule="evenodd" opacity="1" stroke="none"/>
<path d="M12 13L13 13L13 14L12 14L12 13Z" fill="#000000" fill-rule="evenodd" opacity="1" stroke="none"/>
<path d="M20 13L19 13L19 14L20 14L20 13Z" fill="#000000" fill-rule="evenodd" opacity="1" stroke="none"/>
<path d="M11 13L12 13L12 14L11 14L11 13Z" fill="#000000" fill-rule="evenodd" opacity="1" stroke="none"/>
<path d="M21 13L20 13L20 14L21 14L21 13Z" fill="#000000" fill-rule="evenodd" opacity="1" stroke="none"/>
<path d="M10 13L11 13L11 14L10 14L10 13Z" fill="#000000" fill-rule="evenodd" opacity="1" stroke="none"/>
<path d="M22 13L21 13L21 14L22 14L22 13Z" fill="#000000" fill-rule="evenodd" opacity="1" stroke="none"/>
<path d="M9 13L10 13L10 14L9 14L9 13Z" fill="#000000" fill-rule="evenodd" opacity="1" stroke="none"/>
<path d="M23 13L22 13L22 14L23 14L23 13Z" fill="#000000" fill-rule="evenodd" opacity="1" stroke="none"/>
<path d="M7 1L8 1L8 2L7 2L7 1Z" fill="#000000" fill-rule="evenodd" opacity="1" stroke="none"/>
<path d="M25 1L24 1L24 2L25 2L25 1Z" fill="#000000" fill-rule="evenodd" opacity="1" stroke="none"/>
<path d="M6 2L7 2L7 3L6 3L6 2Z" fill="#000000" fill-rule="evenodd" opacity="1" stroke="none"/>
<path d="M26 2L25 2L25 3L26 3L26 2Z" fill="#000000" fill-rule="evenodd" opacity="1" stroke="none"/>
<path d="M5 2L6 2L6 3L5 3L5 2Z" fill="#000000" fill-rule="evenodd" opacity="1" stroke="none"/>
<path d="M27 2L26 2L26 3L27 3L27 2Z" fill="#000000" fill-rule="evenodd" opacity="1" stroke="none"/>
<path d="M4 3L5 3L5 4L4 4L4 3Z" fill="#000000" fill-rule="evenodd" opacity="1" stroke="none"/>
<path d="M28 3L27 3L27 4L28 4L28 3Z" fill="#000000" fill-rule="evenodd" opacity="1" stroke="none"/>
<path d="M3 4L4 4L4 5L3 5L3 4Z" fill="#000000" fill-rule="evenodd" opacity="1" stroke="none"/>
<path d="M29 4L28 4L28 5L29 5L29 4Z" fill="#000000" fill-rule="evenodd" opacity="1" stroke="none"/>
<path d="M2 5L3 5L3 6L2 6L2 5Z" fill="#000000" fill-rule="evenodd" opacity="1" stroke="none"/>
<path d="M30 5L29 5L29 6L30 6L30 5Z" fill="#000000" fill-rule="evenodd" opacity="1" stroke="none"/>
<path d="M3 5L4 5L4 6L3 6L3 5Z" fill="#000000" fill-rule="evenodd" opacity="1" stroke="none"/>
<path d="M29 5L28 5L28 6L29 6L29 5Z" fill="#000000" fill-rule="evenodd" opacity="1" stroke="none"/>
<path d="M2 6L3 6L3 7L2 7L2 6Z" fill="#000000" fill-rule="evenodd" opacity="1" stroke="none"/>
<path d="M30 6L29 6L29 7L30 7L30 6Z" fill="#000000" fill-rule="evenodd" opacity="1" stroke="none"/>
<path d="M2 7L3 7L3 8L2 8L2 7Z" fill="#000000" fill-rule="evenodd" opacity="1" stroke="none"/>
<path d="M30 7L29 7L29 8L30 8L30 7Z" fill="#000000" fill-rule="evenodd" opacity="1" stroke="none"/>
<path d="M3 6L4 6L4 7L3 7L3 6Z" fill="#000000" fill-rule="evenodd" opacity="1" stroke="none"/>
<path d="M29 6L28 6L28 7L29 7L29 6Z" fill="#000000" fill-rule="evenodd" opacity="1" stroke="none"/>
<path d="M4 6L5 6L5 7L4 7L4 6Z" fill="#000000" fill-rule="evenodd" opacity="1" stroke="none"/>
<path d="M28 6L27 6L27 7L28 7L28 6Z" fill="#000000" fill-rule="evenodd" opacity="1" stroke="none"/>
<path d="M3 7L4 7L4 8L3 8L3 7Z" fill="#000000" fill-rule="evenodd" opacity="1" stroke="none"/>
<path d="M29 7L28 7L28 8L29 8L29 7Z" fill="#000000" fill-rule="evenodd" opacity="1" stroke="none"/>
<path d="M3 8L4 8L4 9L3 9L3 8Z" fill="#000000" fill-rule="evenodd" opacity="1" stroke="none"/>
<path d="M29 8L28 8L28 9L29 9L29 8Z" fill="#000000" fill-rule="evenodd" opacity="1" stroke="none"/>
<path d="M3 9L4 9L4 10L3 10L3 9Z" fill="#000000" fill-rule="evenodd" opacity="1" stroke="none"/>
<path d="M29 9L28 9L28 10L29 10L29 9Z" fill="#000000" fill-rule="evenodd" opacity="1" stroke="none"/>
<path d="M4 10L5 10L5 11L4 11L4 10Z" fill="#000000" fill-rule="evenodd" opacity="1" stroke="none"/>
<path d="M28 10L27 10L27 11L28 11L28 10Z" fill="#000000" fill-rule="evenodd" opacity="1" stroke="none"/>
<path d="M4 11L5 11L5 12L4 12L4 11Z" fill="#000000" fill-rule="evenodd" opacity="1" stroke="none"/>
<path d="M28 11L27 11L27 12L28 12L28 11Z" fill="#000000" fill-rule="evenodd" opacity="1" stroke="none"/>
<path d="M5 12L6 12L6 13L5 13L5 12Z" fill="#000000" fill-rule="evenodd" opacity="1" stroke="none"/>
<path d="M27 12L26 12L26 13L27 13L27 12Z" fill="#000000" fill-rule="evenodd" opacity="1" stroke="none"/>
<path d="M6 13L7 13L7 14L6 14L6 13Z" fill="#000000" fill-rule="evenodd" opacity="1" stroke="none"/>
<path d="M26 13L25 13L25 14L26 14L26 13Z" fill="#000000" fill-rule="evenodd" opacity="1" stroke="none"/>
<path d="M5 7L6 7L6 8L5 8L5 7Z" fill="#000000" fill-rule="evenodd" opacity="1" stroke="none"/>
<path d="M27 7L26 7L26 8L27 8L27 7Z" fill="#000000" fill-rule="evenodd" opacity="1" stroke="none"/>
<path d="M6 8L7 8L7 9L6 9L6 8Z" fill="#000000" fill-rule="evenodd" opacity="1" stroke="none"/>
<path d="M26 8L25 8L25 9L26 9L26 8Z" fill="#000000" fill-rule="evenodd" opacity="1" stroke="none"/>
<path d="M7 8L8 8L8 9L7 9L7 8Z" fill="#000000" fill-rule="evenodd" opacity="1" stroke="none"/>
<path d="M25 8L24 8L24 9L25 9L25 8Z" fill="#000000" fill-rule="evenodd" opacity="1" stroke="none"/>
<path d="M8 8L9 8L9 9L8 9L8 8Z" fill="#000000" fill-rule="evenodd" opacity="1" stroke="none"/>
<path d="M24 8L23 8L23 9L24 9L24 8Z" fill="#000000" fill-rule="evenodd" opacity="1" stroke="none"/>
<path d="M9 8L10 8L10 9L9 9L9 8Z" fill="#000000" fill-rule="evenodd" opacity="1" stroke="none"/>
<path d="M23 8L22 8L22 9L23 9L23 8Z" fill="#000000" fill-rule="evenodd" opacity="1" stroke="none"/>
<path d="M10 8L11 8L11 9L10 9L10 8Z" fill="#000000" fill-rule="evenodd" opacity="1" stroke="none"/>
<path d="M22 8L21 8L21 9L22 9L22 8Z" fill="#000000" fill-rule="evenodd" opacity="1" stroke="none"/>
<path d="M11 8L12 8L12 9L11 9L11 8Z" fill="#000000" fill-rule="evenodd" opacity="1" stroke="none"/>
<path d="M21 8L20 8L20 9L21 9L21 8Z" fill="#000000" fill-rule="evenodd" opacity="1" stroke="none"/>
<path d="M12 8L13 8L13 9L12 9L12 8Z" fill="#000000" fill-rule="evenodd" opacity="1" stroke="none"/>
<path d="M20 8L19 8L19 9L20 9L20 8Z" fill="#000000" fill-rule="evenodd" opacity="1" stroke="none"/>
<path d="M13 8L14 8L14 9L13 9L13 8Z" fill="#000000" fill-rule="evenodd" opacity="1" stroke="none"/>
<path d="M19 8L18 8L18 9L19 9L19 8Z" fill="#000000" fill-rule="evenodd" opacity="1" stroke="none"/>
<path d="M14 8L15 8L15 9L14 9L14 8Z" fill="#000000" fill-rule="evenodd" opacity="1" stroke="none"/>
<path d="M18 8L17 8L17 9L18 9L18 8Z" fill="#000000" fill-rule="evenodd" opacity="1" stroke="none"/>
<path d="M15 8L16 8L16 9L15 9L15 8Z" fill="#000000" fill-rule="evenodd" opacity="1" stroke="none"/>
<path d="M17 8L16 8L16 9L17 9L17 8Z" fill="#000000" fill-rule="evenodd" opacity="1" stroke="none"/>
<path d="M4 7L5 7L5 8L4 8L4 7Z" fill="#b4b4b4" fill-rule="evenodd" opacity="1" stroke="none"/>
<path d="M28 7L27 7L27 8L28 8L28 7Z" fill="#b4b4b4" fill-rule="evenodd" opacity="1" stroke="none"/>
<path d="M4 8L5 8L5 9L4 9L4 8Z" fill="#b4b4b4" fill-rule="evenodd" opacity="1" stroke="none"/>
<path d="M28 8L27 8L27 9L28 9L28 8Z" fill="#b4b4b4" fill-rule="evenodd" opacity="1" stroke="none"/>
<path d="M5 8L6 8L6 9L5 9L5 8Z" fill="#b4b4b4" fill-rule="evenodd" opacity="1" stroke="none"/>
<path d="M27 8L26 8L26 9L27 9L27 8Z" fill="#b4b4b4" fill-rule="evenodd" opacity="1" stroke="none"/>
<path d="M4 9L5 9L5 10L4 10L4 9Z" fill="#b4b4b4" fill-rule="evenodd" opacity="1" stroke="none"/>
<path d="M28 9L27 9L27 10L28 10L28 9Z" fill="#b4b4b4" fill-rule="evenodd" opacity="1" stroke="none"/>
<path d="M5 9L6 9L6 10L5 10L5 9Z" fill="#b4b4b4" fill-rule="evenodd" opacity="1" stroke="none"/>
<path d="M27 9L26 9L26 10L27 10L27 9Z" fill="#b4b4b4" fill-rule="evenodd" opacity="1" stroke="none"/>
<path d="M5 10L6 10L6 11L5 11L5 10Z" fill="#b4b4b4" fill-rule="evenodd" opacity="1" stroke="none"/>
<path d="M27 10L26 10L26 11L27 11L27 10Z" fill="#b4b4b4" fill-rule="evenodd" opacity="1" stroke="none"/>
<path d="M5 11L6 11L6 12L5 12L5 11Z" fill="#b4b4b4" fill-rule="evenodd" opacity="1" stroke="none"/>
<path d="M27 11L26 11L26 12L27 12L27 11Z" fill="#b4b4b4" fill-rule="evenodd" opacity="1" stroke="none"/>
<path d="M6 9L7 9L7 10L6 10L6 9Z" fill="#b4b4b4" fill-rule="evenodd" opacity="1" stroke="none"/>
<path d="M26 9L25 9L25 10L26 10L26 9Z" fill="#b4b4b4" fill-rule="evenodd" opacity="1" stroke="none"/>
<path d="M6 10L7 10L7 11L6 11L6 10Z" fill="#b4b4b4" fill-rule="evenodd" opacity="1" stroke="none"/>
<path d="M26 10L25 10L25 11L26 11L26 10Z" fill="#b4b4b4" fill-rule="evenodd" opacity="1" stroke="none"/>
<path d="M6 11L7 11L7 12L6 12L6 11Z" fill="#b4b4b4" fill-rule="evenodd" opacity="1" stroke="none"/>
<path d="M26 11L25 11L25 12L26 12L26 11Z" fill="#b4b4b4" fill-rule="evenodd" opacity="1" stroke="none"/>
<path d="M6 12L7 12L7 13L6 13L6 12Z" fill="#b4b4b4" fill-rule="evenodd" opacity="1" stroke="none"/>
<path d="M26 12L25 12L25 13L26 13L26 12Z" fill="#b4b4b4" fill-rule="evenodd" opacity="1" stroke="none"/>
<path d="M7 9L8 9L8 10L7 10L7 9Z" fill="#b4b4b4" fill-rule="evenodd" opacity="1" stroke="none"/>
<path d="M25 9L24 9L24 10L25 10L25 9Z" fill="#b4b4b4" fill-rule="evenodd" opacity="1" stroke="none"/>
<path d="M7 10L8 10L8 11L7 11L7 10Z" fill="#b4b4b4" fill-rule="evenodd" opacity="1" stroke="none"/>
<path d="M25 10L24 10L24 11L25 11L25 10Z" fill="#b4b4b4" fill-rule="evenodd" opacity="1" stroke="none"/>
<path d="M7 11L8 11L8 12L7 12L7 11Z" fill="#b4b4b4" fill-rule="evenodd" opacity="1" stroke="none"/>
<path d="M25 11L24 11L24 12L25 12L25 11Z" fill="#b4b4b4" fill-rule="evenodd" opacity="1" stroke="none"/>
<path d="M7 12L8 12L8 13L7 13L7 12Z" fill="#b4b4b4" fill-rule="evenodd" opacity="1" stroke="none"/>
<path d="M25 12L24 12L24 13L25 13L25 12Z" fill="#b4b4b4" fill-rule="evenodd" opacity="1" stroke="none"/>
<path d="M8 9L9 9L9 10L8 10L8 9Z" fill="#b4b4b4" fill-rule="evenodd" opacity="1" stroke="none"/>
<path d="M24 9L23 9L23 10L24 10L24 9Z" fill="#b4b4b4" fill-rule="evenodd" opacity="1" stroke="none"/>
<path d="M8 10L9 10L9 11L8 11L8 10Z" fill="#b4b4b4" fill-rule="evenodd" opacity="1" stroke="none"/>
<path d="M24 10L23 10L23 11L24 11L24 10Z" fill="#b4b4b4" fill-rule="evenodd" opacity="1" stroke="none"/>
<path d="M8 11L9 11L9 12L8 12L8 11Z" fill="#b4b4b4" fill-rule="evenodd" opacity="1" stroke="none"/>
<path d="M24 11L23 11L23 12L24 12L24 11Z" fill="#b4b4b4" fill-rule="evenodd" opacity="1" stroke="none"/>
<path d="M8 12L9 12L9 13L8 13L8 12Z" fill="#b4b4b4" fill-rule="evenodd" opacity="1" stroke="none"/>
<path d="M24 12L23 12L23 13L24 13L24 12Z" fill="#b4b4b4" fill-rule="evenodd" opacity="1" stroke="none"/>
<path d="M9 9L10 9L10 10L9 10L9 9Z" fill="#b4b4b4" fill-rule="evenodd" opacity="1" stroke="none"/>
<path d="M23 9L22 9L22 10L23 10L23 9Z" fill="#b4b4b4" fill-rule="evenodd" opacity="1" stroke="none"/>
<path d="M9 10L10 10L10 11L9 11L9 10Z" fill="#b4b4b4" fill-rule="evenodd" opacity="1" stroke="none"/>
<path d="M23 10L22 10L22 11L23 11L23 10Z" fill="#b4b4b4" fill-rule="evenodd" opacity="1" stroke="none"/>
<path d="M9 11L10 11L10 12L9 12L9 11Z" fill="#b4b4b4" fill-rule="evenodd" opacity="1" stroke="none"/>
<path d="M23 11L22 11L22 12L23 12L23 11Z" fill="#b4b4b4" fill-rule="evenodd" opacity="1" stroke="none"/>
<path d="M9 12L10 12L10 13L9 13L9 12Z" fill="#b4b4b4" fill-rule="evenodd" opacity="1" stroke="none"/>
<path d="M23 12L22 12L22 13L23 13L23 12Z" fill="#b4b4b4" fill-rule="evenodd" opacity="1" stroke="none"/>
<path d="M10 9L11 9L11 10L10 10L10 9Z" fill="#b4b4b4" fill-rule="evenodd" opacity="1" stroke="none"/>
<path d="M22 9L21 9L21 10L22 10L22 9Z" fill="#b4b4b4" fill-rule="evenodd" opacity="1" stroke="none"/>
<path d="M10 10L11 10L11 11L10 11L10 10Z" fill="#b4b4b4" fill-rule="evenodd" opacity="1" stroke="none"/>
<path d="M22 10L21 10L21 11L22 11L22 10Z" fill="#b4b4b4" fill-rule="evenodd" opacity="1" stroke="none"/>
<path d="M10 11L11 11L11 12L10 12L10 11Z" fill="#b4b4b4" fill-rule="evenodd" opacity="1" stroke="none"/>
<path d="M22 11L21 11L21 12L22 12L22 11Z" fill="#b4b4b4" fill-rule="evenodd" opacity="1" stroke="none"/>
<path d="M10 12L11 12L11 13L10 13L10 12Z" fill="#b4b4b4" fill-rule="evenodd" opacity="1" stroke="none"/>
<path d="M22 12L21 12L21 13L22 13L22 12Z" fill="#b4b4b4" fill-rule="evenodd" opacity="1" stroke="none"/>
<path d="M11 9L12 9L12 10L11 10L11 9Z" fill="#b4b4b4" fill-rule="evenodd" opacity="1" stroke="none"/>
<path d="M21 9L20 9L20 10L21 10L21 9Z" fill="#b4b4b4" fill-rule="evenodd" opacity="1" stroke="none"/>
<path d="M11 10L12 10L12 11L11 11L11 10Z" fill="#b4b4b4" fill-rule="evenodd" opacity="1" stroke="none"/>
<path d="M21 10L20 10L20 11L21 11L21 10Z" fill="#b4b4b4" fill-rule="evenodd" opacity="1" stroke="none"/>
<path d="M11 11L12 11L12 12L11 12L11 11Z" fill="#b4b4b4" fill-rule="evenodd" opacity="1" stroke="none"/>
<path d="M21 11L20 11L20 12L21 12L21 11Z" fill="#b4b4b4" fill-rule="evenodd" opacity="1" stroke="none"/>
<path d="M11 12L12 12L12 13L11 13L11 12Z" fill="#b4b4b4" fill-rule="evenodd" opacity="1" stroke="none"/>
<path d="M21 12L20 12L20 13L21 13L21 12Z" fill="#b4b4b4" fill-rule="evenodd" opacity="1" stroke="none"/>
<path d="M12 9L13 9L13 10L12 10L12 9Z" fill="#b4b4b4" fill-rule="evenodd" opacity="1" stroke="none"/>
<path d="M20 9L19 9L19 10L20 10L20 9Z" fill="#b4b4b4" fill-rule="evenodd" opacity="1" stroke="none"/>
<path d="M12 10L13 10L13 11L12 11L12 10Z" fill="#b4b4b4" fill-rule="evenodd" opacity="1" stroke="none"/>
<path d="M20 10L19 10L19 11L20 11L20 10Z" fill="#b4b4b4" fill-rule="evenodd" opacity="1" stroke="none"/>
<path d="M12 11L13 11L13 12L12 12L12 11Z" fill="#b4b4b4" fill-rule="evenodd" opacity="1" stroke="none"/>
<path d="M20 11L19 11L19 12L20 12L20 11Z" fill="#b4b4b4" fill-rule="evenodd" opacity="1" stroke="none"/>
<path d="M12 12L13 12L13 13L12 13L12 12Z" fill="#b4b4b4" fill-rule="evenodd" opacity="1" stroke="none"/>
<path d="M20 12L19 12L19 13L20 13L20 12Z" fill="#b4b4b4" fill-rule="evenodd" opacity="1" stroke="none"/>
<path d="M13 9L14 9L14 10L13 10L13 9Z" fill="#b4b4b4" fill-rule="evenodd" opacity="1" stroke="none"/>
<path d="M19 9L18 9L18 10L19 10L19 9Z" fill="#b4b4b4" fill-rule="evenodd" opacity="1" stroke="none"/>
<path d="M13 10L14 10L14 11L13 11L13 10Z" fill="#b4b4b4" fill-rule="evenodd" opacity="1" stroke="none"/>
<path d="M19 10L18 10L18 11L19 11L19 10Z" fill="#b4b4b4" fill-rule="evenodd" opacity="1" stroke="none"/>
<path d="M13 11L14 11L14 12L13 12L13 11Z" fill="#b4b4b4" fill-rule="evenodd" opacity="1" stroke="none"/>
<path d="M19 11L18 11L18 12L19 12L19 11Z" fill="#b4b4b4" fill-rule="evenodd" opacity="1" stroke="none"/>
<path d="M13 12L14 12L14 13L13 13L13 12Z" fill="#b4b4b4" fill-rule="evenodd" opacity="1" stroke="none"/>
<path d="M19 12L18 12L18 13L19 13L19 12Z" fill="#b4b4b4" fill-rule="evenodd" opacity="1" stroke="none"/>
<path d="M14 9L15 9L15 10L14 10L14 9Z" fill="#b4b4b4" fill-rule="evenodd" opacity="1" stroke="none"/>
<path d="M18 9L17 9L17 10L18 10L18 9Z" fill="#b4b4b4" fill-rule="evenodd" opacity="1" stroke="none"/>
<path d="M14 10L15 10L15 11L14 11L14 10Z" fill="#b4b4b4" fill-rule="evenodd" opacity="1" stroke="none"/>
<path d="M18 10L17 10L17 11L18 11L18 10Z" fill="#b4b4b4" fill-rule="evenodd" opacity="1" stroke="none"/>
<path d="M14 11L15 11L15 12L14 12L14 11Z" fill="#b4b4b4" fill-rule="evenodd" opacity="1" stroke="none"/>
<path d="M18 11L17 11L17 12L18 12L18 11Z" fill="#b4b4b4" fill-rule="evenodd" opacity="1" stroke="none"/>
<path d="M14 12L15 12L15 13L14 13L14 12Z" fill="#b4b4b4" fill-rule="evenodd" opacity="1" stroke="none"/>
<path d="M18 12L17 12L17 13L18 13L18 12Z" fill="#b4b4b4" fill-rule="evenodd" opacity="1" stroke="none"/>
<path d="M15 9L16 9L16 10L15 10L15 9Z" fill="#b4b4b4" fill-rule="evenodd" opacity="1" stroke="none"/>
<path d="M17 9L16 9L16 10L17 10L17 9Z" fill="#b4b4b4" fill-rule="evenodd" opacity="1" stroke="none"/>
<path d="M15 10L16 10L16 11L15 11L15 10Z" fill="#b4b4b4" fill-rule="evenodd" opacity="1" stroke="none"/>
<path d="M17 10L16 10L16 11L17 11L17 10Z" fill="#b4b4b4" fill-rule="evenodd" opacity="1" stroke="none"/>
<path d="M15 11L16 11L16 12L15 12L15 11Z" fill="#b4b4b4" fill-rule="evenodd" opacity="1" stroke="none"/>
<path d="M17 11L16 11L16 12L17 12L17 11Z" fill="#b4b4b4" fill-rule="evenodd" opacity="1" stroke="none"/>
<path d="M15 12L16 12L16 13L15 13L15 12Z" fill="#b4b4b4" fill-rule="evenodd" opacity="1" stroke="none"/>
<path d="M17 12L16 12L16 13L17 13L17 12Z" fill="#b4b4b4" fill-rule="evenodd" opacity="1" stroke="none"/>
<path d="M4 4L5 4L5 5L4 5L4 4Z" fill="#b4b4b4" fill-rule="evenodd" opacity="1" stroke="none"/>
<path d="M28 4L27 4L27 5L28 5L28 4Z" fill="#b4b4b4" fill-rule="evenodd" opacity="1" stroke="none"/>
<path d="M4 5L5 5L5 6L4 6L4 5Z" fill="#b4b4b4" fill-rule="evenodd" opacity="1" stroke="none"/>
<path d="M28 5L27 5L27 6L28 6L28 5Z" fill="#b4b4b4" fill-rule="evenodd" opacity="1" stroke="none"/>
<path d="M5 3L6 3L6 4L5 4L5 3Z" fill="#b4b4b4" fill-rule="evenodd" opacity="1" stroke="none"/>
<path d="M27 3L26 3L26 4L27 4L27 3Z" fill="#b4b4b4" fill-rule="evenodd" opacity="1" stroke="none"/>
<path d="M6 3L7 3L7 4L6 4L6 3Z" fill="#b4b4b4" fill-rule="evenodd" opacity="1" stroke="none"/>
<path d="M26 3L25 3L25 4L26 4L26 3Z" fill="#b4b4b4" fill-rule="evenodd" opacity="1" stroke="none"/>
<path d="M7 2L8 2L8 3L7 3L7 2Z" fill="#b4b4b4" fill-rule="evenodd" opacity="1" stroke="none"/>
<path d="M25 2L24 2L24 3L25 3L25 2Z" fill="#b4b4b4" fill-rule="evenodd" opacity="1" stroke="none"/>
<path d="M8 2L9 2L9 3L8 3L8 2Z" fill="#b4b4b4" fill-rule="evenodd" opacity="1" stroke="none"/>
<path d="M24 2L23 2L23 3L24 3L24 2Z" fill="#b4b4b4" fill-rule="evenodd" opacity="1" stroke="none"/>
<path d="M9 2L10 2L10 3L9 3L9 2Z" fill="#b4b4b4" fill-rule="evenodd" opacity="1" stroke="none"/>
<path d="M23 2L22 2L22 3L23 3L23 2Z" fill="#b4b4b4" fill-rule="evenodd" opacity="1" stroke="none"/>
<path d="M10 2L11 2L11 3L10 3L10 2Z" fill="#b4b4b4" fill-rule="evenodd" opacity="1" stroke="none"/>
<path d="M22 2L21 2L21 3L22 3L22 2Z" fill="#b4b4b4" fill-rule="evenodd" opacity="1" stroke="none"/>
<path d="M11 2L12 2L12 3L11 3L11 2Z" fill="#b4b4b4" fill-rule="evenodd" opacity="1" stroke="none"/>
<path d="M21 2L20 2L20 3L21 3L21 2Z" fill="#b4b4b4" fill-rule="evenodd" opacity="1" stroke="none"/>
<path d="M12 2L13 2L13 3L12 3L12 2Z" fill="#b4b4b4" fill-rule="evenodd" opacity="1" stroke="none"/>
<path d="M20 2L19 2L19 3L20 3L20 2Z" fill="#b4b4b4" fill-rule="evenodd" opacity="1" stroke="none"/>
<path d="M13 2L14 2L14 3L13 3L13 2Z" fill="#b4b4b4" fill-rule="evenodd" opacity="1" stroke="none"/>
<path d="M19 2L18 2L18 3L19 3L19 2Z" fill="#b4b4b4" fill-rule="evenodd" opacity="1" stroke="none"/>
<path d="M14 2L15 2L15 3L14 3L14 2Z" fill="#b4b4b4" fill-rule="evenodd" opacity="1" stroke="none"/>
<path d="M18 2L17 2L17 3L18 3L18 2Z" fill="#b4b4b4" fill-rule="evenodd" opacity="1" stroke="none"/>
<path d="M15 2L16 2L16 3L15 3L15 2Z" fill="#b4b4b4" fill-rule="evenodd" opacity="1" stroke="none"/>
<path d="M17 2L16 2L16 3L17 3L17 2Z" fill="#b4b4b4" fill-rule="evenodd" opacity="1" stroke="none"/>
<path d="M5 6L6 6L6 7L5 7L5 6Z" fill="#b4b4b4" fill-rule="evenodd" opacity="1" stroke="none"/>
<path d="M27 6L26 6L26 7L27 7L27 6Z" fill="#b4b4b4" fill-rule="evenodd" opacity="1" stroke="none"/>
<path d="M6 7L7 7L7 8L6 8L6 7Z" fill="#b4b4b4" fill-rule="evenodd" opacity="1" stroke="none"/>
<path d="M26 7L25 7L25 8L26 8L26 7Z" fill="#b4b4b4" fill-rule="evenodd" opacity="1" stroke="none"/>
<path d="M7 7L8 7L8 8L7 8L7 7Z" fill="#b4b4b4" fill-rule="evenodd" opacity="1" stroke="none"/>
<path d="M25 7L24 7L24 8L25 8L25 7Z" fill="#b4b4b4" fill-rule="evenodd" opacity="1" stroke="none"/>
<path d="M8 7L9 7L9 8L8 8L8 7Z" fill="#b4b4b4" fill-rule="evenodd" opacity="1" stroke="none"/>
<path d="M24 7L23 7L23 8L24 8L24 7Z" fill="#b4b4b4" fill-rule="evenodd" opacity="1" stroke="none"/>
<path d="M9 7L10 7L10 8L9 8L9 7Z" fill="#b4b4b4" fill-rule="evenodd" opacity="1" stroke="none"/>
<path d="M23 7L22 7L22 8L23 8L23 7Z" fill="#b4b4b4" fill-rule="evenodd" opacity="1" stroke="none"/>
<path d="M10 7L11 7L11 8L10 8L10 7Z" fill="#b4b4b4" fill-rule="evenodd" opacity="1" stroke="none"/>
<path d="M22 7L21 7L21 8L22 8L22 7Z" fill="#b4b4b4" fill-rule="evenodd" opacity="1" stroke="none"/>
<path d="M11 7L12 7L12 8L11 8L11 7Z" fill="#b4b4b4" fill-rule="evenodd" opacity="1" stroke="none"/>
<path d="M21 7L20 7L20 8L21 8L21 7Z" fill="#b4b4b4" fill-rule="evenodd" opacity="1" stroke="none"/>
<path d="M12 7L13 7L13 8L12 8L12 7Z" fill="#b4b4b4" fill-rule="evenodd" opacity="1" stroke="none"/>
<path d="M20 7L19 7L19 8L20 8L20 7Z" fill="#b4b4b4" fill-rule="evenodd" opacity="1" stroke="none"/>
<path d="M13 7L14 7L14 8L13 8L13 7Z" fill="#b4b4b4" fill-rule="evenodd" opacity="1" stroke="none"/>
<path d="M19 7L18 7L18 8L19 8L19 7Z" fill="#b4b4b4" fill-rule="evenodd" opacity="1" stroke="none"/>
<path d="M14 7L15 7L15 8L14 8L14 7Z" fill="#b4b4b4" fill-rule="evenodd" opacity="1" stroke="none"/>
<path d="M18 7L17 7L17 8L18 8L18 7Z" fill="#b4b4b4" fill-rule="evenodd" opacity="1" stroke="none"/>
<path d="M15 7L16 7L16 8L15 8L15 7Z" fill="#b4b4b4" fill-rule="evenodd" opacity="1" stroke="none"/>
<path d="M17 7L16 7L16 8L17 8L17 7Z" fill="#b4b4b4" fill-rule="evenodd" opacity="1" stroke="none"/>
<path d="M7 3L8 3L8 4L7 4L7 3Z" fill="#7a7a7a" fill-rule="evenodd" opacity="1" stroke="none"/>
<path d="M25 3L24 3L24 4L25 4L25 3Z" fill="#7a7a7a" fill-rule="evenodd" opacity="1" stroke="none"/>
<path d="M8 3L9 3L9 4L8 4L8 3Z" fill="#7a7a7a" fill-rule="evenodd" opacity="1" stroke="none"/>
<path d="M24 3L23 3L23 4L24 4L24 3Z" fill="#7a7a7a" fill-rule="evenodd" opacity="1" stroke="none"/>
<path d="M9 3L10 3L10 4L9 4L9 3Z" fill="#7a7a7a" fill-rule="evenodd" opacity="1" stroke="none"/>
<path d="M23 3L22 3L22 4L23 4L23 3Z" fill="#7a7a7a" fill-rule="evenodd" opacity="1" stroke="none"/>
<path d="M10 3L11 3L11 4L10 4L10 3Z" fill="#7a7a7a" fill-rule="evenodd" opacity="1" stroke="none"/>
<path d="M22 3L21 3L21 4L22 4L22 3Z" fill="#7a7a7a" fill-rule="evenodd" opacity="1" stroke="none"/>
<path d="M11 3L12 3L12 4L11 4L11 3Z" fill="#7a7a7a" fill-rule="evenodd" opacity="1" stroke="none"/>
<path d="M21 3L20 3L20 4L21 4L21 3Z" fill="#7a7a7a" fill-rule="evenodd" opacity="1" stroke="none"/>
<path d="M12 3L13 3L13 4L12 4L12 3Z" fill="#7a7a7a" fill-rule="evenodd" opacity="1" stroke="none"/>
<path d="M20 3L19 3L19 4L20 4L20 3Z" fill="#7a7a7a" fill-rule="evenodd" opacity="1" stroke="none"/>
<path d="M13 3L14 3L14 4L13 4L13 3Z" fill="#7a7a7a" fill-rule="evenodd" opacity="1" stroke="none"/>
<path d="M19 3L18 3L18 4L19 4L19 3Z" fill="#7a7a7a" fill-rule="evenodd" opacity="1" stroke="none"/>
<path d="M14 3L15 3L15 4L14 4L14 3Z" fill="#7a7a7a" fill-rule="evenodd" opacity="1" stroke="none"/>
<path d="M18 3L17 3L17 4L18 4L18 3Z" fill="#7a7a7a" fill-rule="evenodd" opacity="1" stroke="none"/>
<path d="M15 3L16 3L16 4L15 4L15 3Z" fill="#7a7a7a" fill-rule="evenodd" opacity="1" stroke="none"/>
<path d="M17 3L16 3L16 4L17 4L17 3Z" fill="#7a7a7a" fill-rule="evenodd" opacity="1" stroke="none"/>
<path d="M6 4L7 4L7 5L6 5L6 4Z" fill="#7a7a7a" fill-rule="evenodd" opacity="1" stroke="none"/>
<path d="M26 4L25 4L25 5L26 5L26 4Z" fill="#7a7a7a" fill-rule="evenodd" opacity="1" stroke="none"/>
<path d="M7 4L8 4L8 5L7 5L7 4Z" fill="#7a7a7a" fill-rule="evenodd" opacity="1" stroke="none"/>
<path d="M25 4L24 4L24 5L25 5L25 4Z" fill="#7a7a7a" fill-rule="evenodd" opacity="1" stroke="none"/>
<path d="M8 4L9 4L9 5L8 5L8 4Z" fill="#7a7a7a" fill-rule="evenodd" opacity="1" stroke="none"/>
<path d="M24 4L23 4L23 5L24 5L24 4Z" fill="#7a7a7a" fill-rule="evenodd" opacity="1" stroke="none"/>
<path d="M9 4L10 4L10 5L9 5L9 4Z" fill="#7a7a7a" fill-rule="evenodd" opacity="1" stroke="none"/>
<path d="M23 4L22 4L22 5L23 5L23 4Z" fill="#7a7a7a" fill-rule="evenodd" opacity="1" stroke="none"/>
<path d="M10 4L11 4L11 5L10 5L10 4Z" fill="#7a7a7a" fill-rule="evenodd" opacity="1" stroke="none"/>
<path d="M22 4L21 4L21 5L22 5L22 4Z" fill="#7a7a7a" fill-rule="evenodd" opacity="1" stroke="none"/>
<path d="M11 4L12 4L12 5L11 5L11 4Z" fill="#7a7a7a" fill-rule="evenodd" opacity="1" stroke="none"/>
<path d="M21 4L20 4L20 5L21 5L21 4Z" fill="#7a7a7a" fill-rule="evenodd" opacity="1" stroke="none"/>
<path d="M12 4L13 4L13 5L12 5L12 4Z" fill="#7a7a7a" fill-rule="evenodd" opacity="1" stroke="none"/>
<path d="M20 4L19 4L19 5L20 5L20 4Z" fill="#7a7a7a" fill-rule="evenodd" opacity="1" stroke="none"/>
<path d="M13 4L14 4L14 5L13 5L13 4Z" fill="#7a7a7a" fill-rule="evenodd" opacity="1" stroke="none"/>
<path d="M19 4L18 4L18 5L19 5L19 4Z" fill="#7a7a7a" fill-rule="evenodd" opacity="1" stroke="none"/>
<path d="M14 4L15 4L15 5L14 5L14 4Z" fill="#7a7a7a" fill-rule="evenodd" opacity="1" stroke="none"/>
<path d="M18 4L17 4L17 5L18 5L18 4Z" fill="#7a7a7a" fill-rule="evenodd" opacity="1" stroke="none"/>
<path d="M15 4L16 4L16 5L15 5L15 4Z" fill="#7a7a7a" fill-rule="evenodd" opacity="1" stroke="none"/>
<path d="M17 4L16 4L16 5L17 5L17 4Z" fill="#7a7a7a" fill-rule="evenodd" opacity="1" stroke="none"/>
<path d="M6 5L7 5L7 6L6 6L6 5Z" fill="#7a7a7a" fill-rule="evenodd" opacity="1" stroke="none"/>
<path d="M26 5L25 5L25 6L26 6L26 5Z" fill="#7a7a7a" fill-rule="evenodd" opacity="1" stroke="none"/>
<path d="M7 5L8 5L8 6L7 6L7 5Z" fill="#7a7a7a" fill-rule="evenodd" opacity="1" stroke="none"/>
<path d="M25 5L24 5L24 6L25 6L25 5Z" fill="#7a7a7a" fill-rule="evenodd" opacity="1" stroke="none"/>
<path d="M8 5L9 5L9 6L8 6L8 5Z" fill="#7a7a7a" fill-rule="evenodd" opacity="1" stroke="none"/>
<path d="M24 5L23 5L23 6L24 6L24 5Z" fill="#7a7a7a" fill-rule="evenodd" opacity="1" stroke="none"/>
<path d="M9 5L10 5L10 6L9 6L9 5Z" fill="#7a7a7a" fill-rule="evenodd" opacity="1" stroke="none"/>
<path d="M23 5L22 5L22 6L23 6L23 5Z" fill="#7a7a7a" fill-rule="evenodd" opacity="1" stroke="none"/>
<path d="M10 5L11 5L11 6L10 6L10 5Z" fill="#7a7a7a" fill-rule="evenodd" opacity="1" stroke="none"/>
<path d="M22 5L21 5L21 6L22 6L22 5Z" fill="#7a7a7a" fill-rule="evenodd" opacity="1" stroke="none"/>
<path d="M11 5L12 5L12 6L11 6L11 5Z" fill="#7a7a7a" fill-rule="evenodd" opacity="1" stroke="none"/>
<path d="M21 5L20 5L20 6L21 6L21 5Z" fill="#7a7a7a" fill-rule="evenodd" opacity="1" stroke="none"/>
<path d="M12 5L13 5L13 6L12 6L12 5Z" fill="#7a7a7a" fill-rule="evenodd" opacity="1" stroke="none"/>
<path d="M20 5L19 5L19 6L20 6L20 5Z" fill="#7a7a7a" fill-rule="evenodd" opacity="1" stroke="none"/>
<path d="M13 5L14 5L14 6L13 6L13 5Z" fill="#7a7a7a" fill-rule="evenodd" opacity="1" stroke="none"/>
<path d="M19 5L18 5L18 6L19 6L19 5Z" fill="#7a7a7a" fill-rule="evenodd" opacity="1" stroke="none"/>
<path d="M14 5L15 5L15 6L14 6L14 5Z" fill="#7a7a7a" fill-rule="evenodd" opacity="1" stroke="none"/>
<path d="M18 5L17 5L17 6L18 6L18 5Z" fill="#7a7a7a" fill-rule="evenodd" opacity="1" stroke="none"/>
<path d="M15 5L16 5L16 6L15 6L15 5Z" fill="#7a7a7a" fill-rule="evenodd" opacity="1" stroke="none"/>
<path d="M17 5L16 5L16 6L17 6L17 5Z" fill="#7a7a7a" fill-rule="evenodd" opacity="1" stroke="none"/>
<path d="M15 6L16 6L16 7L15 7L15 6Z" fill="#7a7a7a" fill-rule="evenodd" opacity="1" stroke="none"/>
<path d="M17 6L16 6L16 7L17 7L17 6Z" fill="#7a7a7a" fill-rule="evenodd" opacity="1" stroke="none"/>
<path d="M14 6L15 6L15 7L14 7L14 6Z" fill="#7a7a7a" fill-rule="evenodd" opacity="1" stroke="none"/>
<path d="M18 6L17 6L17 7L18 7L18 6Z" fill="#7a7a7a" fill-rule="evenodd" opacity="1" stroke="none"/>
<path d="M13 6L14 6L14 7L13 7L13 6Z" fill="#7a7a7a" fill-rule="evenodd" opacity="1" stroke="none"/>
<path d="M19 6L18 6L18 7L19 7L19 6Z" fill="#7a7a7a" fill-rule="evenodd" opacity="1" stroke="none"/>
<path d="M12 6L13 6L13 7L12 7L12 6Z" fill="#7a7a7a" fill-rule="evenodd" opacity="1" stroke="none"/>
<path d="M20 6L19 6L19 7L20 7L20 6Z" fill="#7a7a7a" fill-rule="evenodd" opacity="1" stroke="none"/>
<path d="M11 6L12 6L12 7L11 7L11 6Z" fill="#7a7a7a" fill-rule="evenodd" opacity="1" stroke="none"/>
<path d="M21 6L20 6L20 7L21 7L21 6Z" fill="#7a7a7a" fill-rule="evenodd" opacity="1" stroke="none"/>
<path d="M10 6L11 6L11 7L10 7L10 6Z" fill="#7a7a7a" fill-rule="evenodd" opacity="1" stroke="none"/>
<path d="M22 6L21 6L21 7L22 7L22 6Z" fill="#7a7a7a" fill-rule="evenodd" opacity="1" stroke="none"/>
<path d="M9 6L10 6L10 7L9 7L9 6Z" fill="#7a7a7a" fill-rule="evenodd" opacity="1" stroke="none"/>
<path d="M23 6L22 6L22 7L23 7L23 6Z" fill="#7a7a7a" fill-rule="evenodd" opacity="1" stroke="none"/>
<path d="M8 6L9 6L9 7L8 7L8 6Z" fill="#7a7a7a" fill-rule="evenodd" opacity="1" stroke="none"/>
<path d="M24 6L23 6L23 7L24 7L24 6Z" fill="#7a7a7a" fill-rule="evenodd" opacity="1" stroke="none"/>
<path d="M7 6L8 6L8 7L7 7L7 6Z" fill="#7a7a7a" fill-rule="evenodd" opacity="1" stroke="none"/>
<path d="M25 6L24 6L24 7L25 7L25 6Z" fill="#7a7a7a" fill-rule="evenodd" opacity="1" stroke="none"/>
<path d="M6 6L7 6L7 7L6 7L6 6Z" fill="#b4b4b4" fill-rule="evenodd" opacity="1" stroke="none"/>
<path d="M26 6L25 6L25 7L26 7L26 6Z" fill="#b4b4b4" fill-rule="evenodd" opacity="1" stroke="none"/>
<path d="M5 4L6 4L6 5L5 5L5 4Z" fill="#b4b4b4" fill-rule="evenodd" opacity="1" stroke="none"/>
<path d="M27 4L26 4L26 5L27 5L27 4Z" fill="#b4b4b4" fill-rule="evenodd" opacity="1" stroke="none"/>
<path d="M5 6L6 6L6 6L5 6Z" fill="#b4b4b4" fill-rule="evenodd" opacity="1" stroke="none"/>
<path d="M27 6L26 6L26 6L27 6Z" fill="#b4b4b4" fill-rule="evenodd" opacity="1" stroke="none"/>
<path d="M5 5L6 5L6 5L5 5Z" fill="#b4b4b4" fill-rule="evenodd" opacity="1" stroke="none"/>
<path d="M27 5L26 5L26 5L27 5Z" fill="#b4b4b4" fill-rule="evenodd" opacity="1" stroke="none"/>
<path d="M5 5L6 5L6 6L5 6L5 5Z" fill="#b4b4b4" fill-rule="evenodd" opacity="1" stroke="none"/>
<path d="M27 5L26 5L26 6L27 6L27 5Z" fill="#b4b4b4" fill-rule="evenodd" opacity="1" stroke="none"/>
<path d="M7 1L16 1" fill="none" fill-rule="evenodd" opacity="0.498493" stroke="#ffffff" stroke-linecap="round" stroke-linejoin="round" stroke-width="0.1"/>
<path d="M7 1L7 2" fill="none" fill-rule="evenodd" opacity="0.498493" stroke="#ffffff" stroke-linecap="round" stroke-linejoin="round" stroke-width="0.1"/>
<path d="M25 1L25 2" fill="none" fill-rule="evenodd" opacity="0.498493" stroke="#ffffff" stroke-linecap="round" stroke-linejoin="round" stroke-width="0.1"/>
<path d="M5 2L7 2" fill="none" fill-rule="evenodd" opacity="0.498493" stroke="#ffffff" stroke-linecap="round" stroke-linejoin="round" stroke-width="0.1"/>
<path d="M27 2L25 2" fill="none" fill-rule="evenodd" opacity="0.498493" stroke="#ffffff" stroke-linecap="round" stroke-linejoin="round" stroke-width="0.1"/>
<path d="M5 2L5 3" fill="none" fill-rule="evenodd" opacity="0.498493" stroke="#ffffff" stroke-linecap="round" stroke-linejoin="round" stroke-width="0.1"/>
<path d="M27 2L27 3" fill="none" fill-rule="evenodd" opacity="0.498493" stroke="#ffffff" stroke-linecap="round" stroke-linejoin="round" stroke-width="0.1"/>
<path d="M4 3L5 3" fill="none" fill-rule="evenodd" opacity="0.498493" stroke="#ffffff" stroke-linecap="round" stroke-linejoin="round" stroke-width="0.1"/>
<path d="M28 3L27 3" fill="none" fill-rule="evenodd" opacity="0.498493" stroke="#ffffff" stroke-linecap="round" stroke-linejoin="round" stroke-width="0.1"/>
<path d="M4 3L4 4" fill="none" fill-rule="evenodd" opacity="0.498493" stroke="#ffffff" stroke-linecap="round" stroke-linejoin="round" stroke-width="0.1"/>
<path d="M28 3L28 4" fill="none" fill-rule="evenodd" opacity="0.498493" stroke="#ffffff" stroke-linecap="round" stroke-linejoin="round" stroke-width="0.1"/>
<path d="M3 4L4 4" fill="none" fill-rule="evenodd" opacity="0.498493" stroke="#ffffff" stroke-linecap="round" stroke-linejoin="round" stroke-width="0.1"/>
<path d="M29 4L28 4" fill="none" fill-rule="evenodd" opacity="0.498493" stroke="#ffffff" stroke-linecap="round" stroke-linejoin="round" stroke-width="0.1"/>
<path d="M3 4L3 5" fill="none" fill-rule="evenodd" opacity="0.498493" stroke="#ffffff" stroke-linecap="round" stroke-linejoin="round" stroke-width="0.1"/>
<path d="M29 4L29 5" fill="none" fill-rule="evenodd" opacity="0.498493" stroke="#ffffff" stroke-linecap="round" stroke-linejoin="round" stroke-width="0.1"/>
<path d="M2 5L3 5" fill="none" fill-rule="evenodd" opacity="0.498493" stroke="#ffffff" stroke-linecap="round" stroke-linejoin="round" stroke-width="0.1"/>
<path d="M30 5L29 5" fill="none" fill-rule="evenodd" opacity="0.498493" stroke="#ffffff" stroke-linecap="round" stroke-linejoin="round" stroke-width="0.1"/>
<path d="M2 5L2 8" fill="none" fill-rule="evenodd" opacity="0.498493" stroke="#ffffff" stroke-linecap="round" stroke-linejoin="round" stroke-width="0.1"/>
<path d="M30 5L30 8" fill="none" fill-rule="evenodd" opacity="0.498493" stroke="#ffffff" stroke-linecap="round" stroke-linejoin="round" stroke-width="0.1"/>
<path d="M2 8L3 8" fill="none" fill-rule="evenodd" opacity="0.498493" stroke="#ffffff" stroke-linecap="round" stroke-linejoin="round" stroke-width="0.1"/>
<path d="M30 8L29 8" fill="none" fill-rule="evenodd" opacity="0.498493" stroke="#ffffff" stroke-linecap="round" stroke-linejoin="round" stroke-width="0.1"/>
<path d="M3 8L3 10" fill="none" fill-rule="evenodd" opacity="0.498493" stroke="#ffffff" stroke-linecap="round" stroke-linejoin="round" stroke-width="0.1"/>
<path d="M29 8L29 10" fill="none" fill-rule="evenodd" opacity="0.498493" stroke="#ffffff" stroke-linecap="round" stroke-linejoin="round" stroke-width="0.1"/>
<path d="M3 10L4 10" fill="none" fill-rule="evenodd" opacity="0.498493" stroke="#ffffff" stroke-linecap="round" stroke-linejoin="round" stroke-width="0.1"/>
<path d="M29 10L28 10" fill="none" fill-rule="evenodd" opacity="0.498493" stroke="#ffffff" stroke-linecap="round" stroke-linejoin="round" stroke-width="0.1"/>
<path d="M4 10L4 12" fill="none" fill-rule="evenodd" opacity="0.498493" stroke="#ffffff" stroke-linecap="round" stroke-linejoin="round" stroke-width="0.1"/>
<path d="M28 10L28 12" fill="none" fill-rule="evenodd" opacity="0.498493" stroke="#ffffff" stroke-linecap="round" stroke-linejoin="round" stroke-width="0.1"/>
<path d="M4 12L5 12" fill="none" fill-rule="evenodd" opacity="0.498493" stroke="#ffffff" stroke-linecap="round" stroke-linejoin="round" stroke-width="0.1"/>
<path d="M28 12L27 12" fill="none" fill-rule="evenodd" opacity="0.498493" stroke="#ffffff" stroke-linecap="round" stroke-linejoin="round" stroke-width="0.1"/>
<path d="M5 12L5 13" fill="none" fill-rule="evenodd" opacity="0.498493" stroke="#ffffff" stroke-linecap="round" stroke-linejoin="round" stroke-width="0.1"/>
<path d="M27 12L27 13" fill="none" fill-rule="evenodd" opacity="0.498493" stroke="#ffffff" stroke-linecap="round" stroke-linejoin="round" stroke-width="0.1"/>
<path d="M5 13L6 13" fill="none" fill-rule="evenodd" opacity="0.498493" stroke="#ffffff" stroke-linecap="round" stroke-linejoin="round" stroke-width="0.1"/>
<path d="M27 13L26 13" fill="none" fill-rule="evenodd" opacity="0.498493" stroke="#ffffff" stroke-linecap="round" stroke-linejoin="round" stroke-width="0.1"/>
<path d="M6 13L6 14" fill="none" fill-rule="evenodd" opacity="0.498493" stroke="#ffffff" stroke-linecap="round" stroke-linejoin="round" stroke-width="0.1"/>
<path d="M26 13L26 14" fill="none" fill-rule="evenodd" opacity="0.498493" stroke="#ffffff" stroke-linecap="round" stroke-linejoin="round" stroke-width="0.1"/>
<path d="M6 14L9 14" fill="none" fill-rule="evenodd" opacity="0.498493" stroke="#ffffff" stroke-linecap="round" stroke-linejoin="round" stroke-width="0.1"/>
<path d="M26 14L23 14" fill="none" fill-rule="evenodd" opacity="0.498493" stroke="#ffffff" stroke-linecap="round" stroke-linejoin="round" stroke-width="0.1"/>
<path d="M9 14L9 15" fill="none" fill-rule="evenodd" opacity="0.498493" stroke="#ffffff" stroke-linecap="round" stroke-linejoin="round" stroke-width="0.1"/>
<path d="M23 14L23 15" fill="none" fill-rule="evenodd" opacity="0.498493" stroke="#ffffff" stroke-linecap="round" stroke-linejoin="round" stroke-width="0.1"/>
<path d="M9 15L16 15" fill="none" fill-rule="evenodd" opacity="0.498493" stroke="#ffffff" stroke-linecap="round" stroke-linejoin="round" stroke-width="0.1"/>
<path d="M23 15L16 15" fill="none" fill-rule="evenodd" opacity="0.498493" stroke="#ffffff" stroke-linecap="round" stroke-linejoin="round" stroke-width="0.1"/>
</g>
<g id="图层-1" vectornator:layerName="图层 1">
<path d="M16 1L25 1" fill="none" fill-rule="evenodd" opacity="0.498493" stroke="#ffffff" stroke-linecap="round" stroke-linejoin="round" stroke-width="0.1"/>
</g>
</svg>
