<?xml version="1.0" encoding="UTF-8" standalone="no"?>
<!DOCTYPE svg PUBLIC "-//W3C//DTD SVG 1.1//EN" "http://www.w3.org/Graphics/SVG/1.1/DTD/svg11.dtd">

<!-- Created with Vectornator (http://vectornator.io/) -->
<svg height="100%" stroke-miterlimit="10" style="fill-rule:nonzero;clip-rule:evenodd;stroke-linecap:round;stroke-linejoin:round;" version="1.1" viewBox="0 0 16 32" width="100%" xml:space="preserve" xmlns="http://www.w3.org/2000/svg" xmlns:vectornator="http://vectornator.io" xmlns:xlink="http://www.w3.org/1999/xlink">
<metadata>
<vectornator:setting key="IsTimeLapseWatermarkDisabled" value="false"/>
<vectornator:setting key="UndoHistoryDisabled" value="true"/>
<vectornator:setting key="VNDimensionsVisible" value="true"/>
<vectornator:setting key="VNSnapToGuides" value="false"/>
<vectornator:setting key="WDCMYKEnabledKey" value="false"/>
<vectornator:setting key="WDDisplayWhiteBackground" value="false"/>
<vectornator:setting key="WDDynamicGuides" value="false"/>
<vectornator:setting key="WDGuidesVisible" value="true"/>
<vectornator:setting key="WDIsolateActiveLayer" value="false"/>
<vectornator:setting key="WDOutlineMode" value="false"/>
<vectornator:setting key="WDRulersVisible" value="true"/>
<vectornator:setting key="WDSnapToEdges" value="false"/>
<vectornator:setting key="WDSnapToGrid" value="true"/>
<vectornator:setting key="WDSnapToPoints" value="false"/>
<vectornator:setting key="WDUnits" value="Pixels"/>
</metadata>
<defs/>
<g id="图层-1-Copy" vectornator:layerName="图层 1 Copy">
<path d="M9 15L10 15L10 16L9 16L9 15Z" fill="#fff4e5" fill-rule="evenodd" opacity="1" stroke="none"/>
<path d="M10 17L11 17" fill="none" fill-rule="evenodd" opacity="0.502605" stroke="#ffffff" stroke-linecap="round" stroke-linejoin="round" stroke-width="0.1"/>
<path d="M4 2L5 2L5 1L4 1L4 2Z" fill="#000000" fill-rule="evenodd" opacity="1" stroke="none"/>
<path d="M5 2L6 2L6 1L5 1L5 2Z" fill="#000000" fill-rule="evenodd" opacity="1" stroke="none"/>
<path d="M6 3L7 3L7 2L6 2L6 3Z" fill="#000000" fill-rule="evenodd" opacity="1" stroke="none"/>
<path d="M7 4L8 4L8 3L7 3L7 4Z" fill="#000000" fill-rule="evenodd" opacity="1" stroke="none"/>
<path d="M8 4L9 4L9 3L8 3L8 4Z" fill="#000000" fill-rule="evenodd" opacity="1" stroke="none"/>
<path d="M9 3L10 3L10 2L9 2L9 3Z" fill="#000000" fill-rule="evenodd" opacity="1" stroke="none"/>
<path d="M10 2L11 2L11 1L10 1L10 2Z" fill="#000000" fill-rule="evenodd" opacity="1" stroke="none"/>
<path d="M11 2L12 2L12 1L11 1L11 2Z" fill="#000000" fill-rule="evenodd" opacity="1" stroke="none"/>
<path d="M12 3L13 3L13 2L12 2L12 3Z" fill="#000000" fill-rule="evenodd" opacity="1" stroke="none"/>
<path d="M3 3L4 3L4 2L3 2L3 3Z" fill="#000000" fill-rule="evenodd" opacity="1" stroke="none"/>
<path d="M2 4L3 4L3 3L2 3L2 4Z" fill="#000000" fill-rule="evenodd" opacity="1" stroke="none"/>
<path d="M2 5L3 5L3 4L2 4L2 5Z" fill="#000000" fill-rule="evenodd" opacity="1" stroke="none"/>
<path d="M2 6L3 6L3 5L2 5L2 6Z" fill="#000000" fill-rule="evenodd" opacity="1" stroke="none"/>
<path d="M3 7L4 7L4 6L3 6L3 7Z" fill="#000000" fill-rule="evenodd" opacity="1" stroke="none"/>
<path d="M4 8L5 8L5 7L4 7L4 8Z" fill="#000000" fill-rule="evenodd" opacity="1" stroke="none"/>
<path d="M5 8L6 8L6 7L5 7L5 8Z" fill="#000000" fill-rule="evenodd" opacity="1" stroke="none"/>
<path d="M5 9L6 9L6 8L5 8L5 9Z" fill="#000000" fill-rule="evenodd" opacity="1" stroke="none"/>
<path d="M5 10L6 10L6 9L5 9L5 10Z" fill="#000000" fill-rule="evenodd" opacity="1" stroke="none"/>
<path d="M5 11L6 11L6 10L5 10L5 11Z" fill="#000000" fill-rule="evenodd" opacity="1" stroke="none"/>
<path d="M5 12L6 12L6 11L5 11L5 12Z" fill="#000000" fill-rule="evenodd" opacity="1" stroke="none"/>
<path d="M5 13L6 13L6 12L5 12L5 13Z" fill="#000000" fill-rule="evenodd" opacity="1" stroke="none"/>
<path d="M5 14L6 14L6 13L5 13L5 14Z" fill="#000000" fill-rule="evenodd" opacity="1" stroke="none"/>
<path d="M5 15L6 15L6 14L5 14L5 15Z" fill="#000000" fill-rule="evenodd" opacity="1" stroke="none"/>
<path d="M5 16L6 16L6 15L5 15L5 16Z" fill="#000000" fill-rule="evenodd" opacity="1" stroke="none"/>
<path d="M10 8L11 8L11 7L10 7L10 8Z" fill="#000000" fill-rule="evenodd" opacity="1" stroke="none"/>
<path d="M10 9L11 9L11 8L10 8L10 9Z" fill="#000000" fill-rule="evenodd" opacity="1" stroke="none"/>
<path d="M10 10L11 10L11 9L10 9L10 10Z" fill="#000000" fill-rule="evenodd" opacity="1" stroke="none"/>
<path d="M10 11L11 11L11 10L10 10L10 11Z" fill="#000000" fill-rule="evenodd" opacity="1" stroke="none"/>
<path d="M10 12L11 12L11 11L10 11L10 12Z" fill="#000000" fill-rule="evenodd" opacity="1" stroke="none"/>
<path d="M10 13L11 13L11 12L10 12L10 13Z" fill="#000000" fill-rule="evenodd" opacity="1" stroke="none"/>
<path d="M10 14L11 14L11 13L10 13L10 14Z" fill="#000000" fill-rule="evenodd" opacity="1" stroke="none"/>
<path d="M10 15L11 15L11 14L10 14L10 15Z" fill="#000000" fill-rule="evenodd" opacity="1" stroke="none"/>
<path d="M10 16L11 16L11 15L10 15L10 16Z" fill="#000000" fill-rule="evenodd" opacity="1" stroke="none"/>
<path d="M11 8L12 8L12 7L11 7L11 8Z" fill="#000000" fill-rule="evenodd" opacity="1" stroke="none"/>
<path d="M12 7L13 7L13 6L12 6L12 7Z" fill="#000000" fill-rule="evenodd" opacity="1" stroke="none"/>
<path d="M13 6L14 6L14 5L13 5L13 6Z" fill="#000000" fill-rule="evenodd" opacity="1" stroke="none"/>
<path d="M13 5L14 5L14 4L13 4L13 5Z" fill="#000000" fill-rule="evenodd" opacity="1" stroke="none"/>
<path d="M13 4L14 4L14 3L13 3L13 4Z" fill="#000000" fill-rule="evenodd" opacity="1" stroke="none"/>
<path d="M6 16L7 16L7 15L6 15L6 16Z" fill="#fff4e5" fill-rule="evenodd" opacity="1" stroke="none"/>
<path d="M7 16L8 16L8 15L7 15L7 16Z" fill="#fff4e5" fill-rule="evenodd" opacity="1" stroke="none"/>
<path d="M8 16L8 16L8 15L8 15L8 16Z" fill="#fff4e5" fill-rule="evenodd" opacity="1" stroke="none"/>
<path d="M8 16L9 16L9 15L8 15L8 16Z" fill="#fff4e5" fill-rule="evenodd" opacity="1" stroke="none"/>
<path d="M6 15L7 15L7 14L6 14L6 15Z" fill="#fff4e5" fill-rule="evenodd" opacity="1" stroke="none"/>
<path d="M7 15L8 15L8 14L7 14L7 15Z" fill="#fff4e5" fill-rule="evenodd" opacity="1" stroke="none"/>
<path d="M8 15L9 15L9 14L8 14L8 15Z" fill="#fff4e5" fill-rule="evenodd" opacity="1" stroke="none"/>
<path d="M9 15L10 15L10 14L9 14L9 15Z" fill="#fff4e5" fill-rule="evenodd" opacity="1" stroke="none"/>
<path d="M8 14L9 14L9 13L8 13L8 14Z" fill="#fff4e5" fill-rule="evenodd" opacity="1" stroke="none"/>
<path d="M7 14L8 14L8 13L7 13L7 14Z" fill="#fff4e5" fill-rule="evenodd" opacity="1" stroke="none"/>
<path d="M6 14L7 14L7 13L6 13L6 14Z" fill="#fff4e5" fill-rule="evenodd" opacity="1" stroke="none"/>
<path d="M9 14L10 14L10 13L9 13L9 14Z" fill="#fff4e5" fill-rule="evenodd" opacity="1" stroke="none"/>
<path d="M7 13L9 13L9 12L7 12L7 13Z" fill="#fff4e5" fill-rule="evenodd" opacity="1" stroke="none"/>
<path d="M6 13L7 13L7 12L6 12L6 13Z" fill="#fff4e5" fill-rule="evenodd" opacity="1" stroke="none"/>
<path d="M9 13L10 13L10 12L9 12L9 13Z" fill="#fff4e5" fill-rule="evenodd" opacity="1" stroke="none"/>
<path d="M6 12L10 12L10 4L6 4L6 12Z" fill="#fff4e5" fill-rule="evenodd" opacity="1" stroke="none"/>
<path d="M4 7L6 7L6 2L4 2L4 7Z" fill="#fff4e5" fill-rule="evenodd" opacity="1" stroke="none"/>
<path d="M10 7L12 7L12 2L10 2L10 7Z" fill="#fff4e5" fill-rule="evenodd" opacity="1" stroke="none"/>
<path d="M9 4L10 4L10 3L9 3L9 4Z" fill="#fff4e5" fill-rule="evenodd" opacity="1" stroke="none"/>
<path d="M6 4L7 4L7 3L6 3L6 4Z" fill="#fff4e5" fill-rule="evenodd" opacity="1" stroke="none"/>
<path d="M3 6L4 6L4 3L3 3L3 6Z" fill="#fff4e5" fill-rule="evenodd" opacity="1" stroke="none"/>
<path d="M12 6L13 6L13 3L12 3L12 6Z" fill="#fff4e5" fill-rule="evenodd" opacity="1" stroke="none"/>
<path d="M11 8L12 8" fill="none" fill-rule="evenodd" opacity="0.502605" stroke="#ffffff" stroke-linecap="round" stroke-linejoin="round" stroke-width="0.1"/>
<path d="M12 8L12 7" fill="none" fill-rule="evenodd" opacity="0.502605" stroke="#ffffff" stroke-linecap="round" stroke-linejoin="round" stroke-width="0.1"/>
<path d="M12 7L13 7" fill="none" fill-rule="evenodd" opacity="0.502605" stroke="#ffffff" stroke-linecap="round" stroke-linejoin="round" stroke-width="0.1"/>
<path d="M13 7L13 6" fill="none" fill-rule="evenodd" opacity="0.502605" stroke="#ffffff" stroke-linecap="round" stroke-linejoin="round" stroke-width="0.1"/>
<path d="M13 6L14 6" fill="none" fill-rule="evenodd" opacity="0.502605" stroke="#ffffff" stroke-linecap="round" stroke-linejoin="round" stroke-width="0.1"/>
<path d="M14 6L14 3" fill="none" fill-rule="evenodd" opacity="0.502605" stroke="#ffffff" stroke-linecap="round" stroke-linejoin="round" stroke-width="0.1"/>
<path d="M13 3L14 3" fill="none" fill-rule="evenodd" opacity="0.502605" stroke="#ffffff" stroke-linecap="round" stroke-linejoin="round" stroke-width="0.1"/>
<path d="M13 3L13 2" fill="none" fill-rule="evenodd" opacity="0.502605" stroke="#ffffff" stroke-linecap="round" stroke-linejoin="round" stroke-width="0.1"/>
<path d="M12 2L13 2" fill="none" fill-rule="evenodd" opacity="0.502605" stroke="#ffffff" stroke-linecap="round" stroke-linejoin="round" stroke-width="0.1"/>
<path d="M12 2L12 1" fill="none" fill-rule="evenodd" opacity="0.502605" stroke="#ffffff" stroke-linecap="round" stroke-linejoin="round" stroke-width="0.1"/>
<path d="M10 1L12 1" fill="none" fill-rule="evenodd" opacity="0.502605" stroke="#ffffff" stroke-linecap="round" stroke-linejoin="round" stroke-width="0.1"/>
<path d="M10 2L10 1" fill="none" fill-rule="evenodd" opacity="0.502605" stroke="#ffffff" stroke-linecap="round" stroke-linejoin="round" stroke-width="0.1"/>
<path d="M9 2L10 2" fill="none" fill-rule="evenodd" opacity="0.502605" stroke="#ffffff" stroke-linecap="round" stroke-linejoin="round" stroke-width="0.1"/>
<path d="M9 3L9 2" fill="none" fill-rule="evenodd" opacity="0.502605" stroke="#ffffff" stroke-linecap="round" stroke-linejoin="round" stroke-width="0.1"/>
<path d="M7 3L9 3" fill="none" fill-rule="evenodd" opacity="0.502605" stroke="#ffffff" stroke-linecap="round" stroke-linejoin="round" stroke-width="0.1"/>
<path d="M7 3L7 2" fill="none" fill-rule="evenodd" opacity="0.502605" stroke="#ffffff" stroke-linecap="round" stroke-linejoin="round" stroke-width="0.1"/>
<path d="M6 2L7 2" fill="none" fill-rule="evenodd" opacity="0.502605" stroke="#ffffff" stroke-linecap="round" stroke-linejoin="round" stroke-width="0.1"/>
<path d="M6 2L6 1" fill="none" fill-rule="evenodd" opacity="0.502605" stroke="#ffffff" stroke-linecap="round" stroke-linejoin="round" stroke-width="0.1"/>
<path d="M4 1L6 1" fill="none" fill-rule="evenodd" opacity="0.502605" stroke="#ffffff" stroke-linecap="round" stroke-linejoin="round" stroke-width="0.1"/>
<path d="M4 2L4 1" fill="none" fill-rule="evenodd" opacity="0.502605" stroke="#ffffff" stroke-linecap="round" stroke-linejoin="round" stroke-width="0.1"/>
<path d="M3 2L4 2" fill="none" fill-rule="evenodd" opacity="0.502605" stroke="#ffffff" stroke-linecap="round" stroke-linejoin="round" stroke-width="0.1"/>
<path d="M3 3L3 2" fill="none" fill-rule="evenodd" opacity="0.502605" stroke="#ffffff" stroke-linecap="round" stroke-linejoin="round" stroke-width="0.1"/>
<path d="M2 3L3 3" fill="none" fill-rule="evenodd" opacity="0.502605" stroke="#ffffff" stroke-linecap="round" stroke-linejoin="round" stroke-width="0.1"/>
<path d="M2 6L2 3" fill="none" fill-rule="evenodd" opacity="0.502605" stroke="#ffffff" stroke-linecap="round" stroke-linejoin="round" stroke-width="0.1"/>
<path d="M2 6L3 6" fill="none" fill-rule="evenodd" opacity="0.502605" stroke="#ffffff" stroke-linecap="round" stroke-linejoin="round" stroke-width="0.1"/>
<path d="M3 7L3 6" fill="none" fill-rule="evenodd" opacity="0.502605" stroke="#ffffff" stroke-linecap="round" stroke-linejoin="round" stroke-width="0.1"/>
<path d="M3 7L4 7" fill="none" fill-rule="evenodd" opacity="0.502605" stroke="#ffffff" stroke-linecap="round" stroke-linejoin="round" stroke-width="0.1"/>
<path d="M4 8L4 7" fill="none" fill-rule="evenodd" opacity="0.502605" stroke="#ffffff" stroke-linecap="round" stroke-linejoin="round" stroke-width="0.1"/>
<path d="M4 8L5 8" fill="none" fill-rule="evenodd" opacity="0.502605" stroke="#ffffff" stroke-linecap="round" stroke-linejoin="round" stroke-width="0.1"/>
</g>
<g id="图层-1" vectornator:layerName="图层 1">
<path d="M9 17L10 17L10 16L9 16L9 17Z" fill="#fff4e5" fill-rule="evenodd" opacity="1" stroke="none"/>
<path d="M4 30L5 30L5 31L4 31L4 30Z" fill="#000000" fill-rule="evenodd" opacity="1" stroke="none"/>
<path d="M5 30L6 30L6 31L5 31L5 30Z" fill="#000000" fill-rule="evenodd" opacity="1" stroke="none"/>
<path d="M6 29L7 29L7 30L6 30L6 29Z" fill="#000000" fill-rule="evenodd" opacity="1" stroke="none"/>
<path d="M7 28L8 28L8 29L7 29L7 28Z" fill="#000000" fill-rule="evenodd" opacity="1" stroke="none"/>
<path d="M8 28L9 28L9 29L8 29L8 28Z" fill="#000000" fill-rule="evenodd" opacity="1" stroke="none"/>
<path d="M9 29L10 29L10 30L9 30L9 29Z" fill="#000000" fill-rule="evenodd" opacity="1" stroke="none"/>
<path d="M10 30L11 30L11 31L10 31L10 30Z" fill="#000000" fill-rule="evenodd" opacity="1" stroke="none"/>
<path d="M11 30L12 30L12 31L11 31L11 30Z" fill="#000000" fill-rule="evenodd" opacity="1" stroke="none"/>
<path d="M12 29L13 29L13 30L12 30L12 29Z" fill="#000000" fill-rule="evenodd" opacity="1" stroke="none"/>
<path d="M3 29L4 29L4 30L3 30L3 29Z" fill="#000000" fill-rule="evenodd" opacity="1" stroke="none"/>
<path d="M2 28L3 28L3 29L2 29L2 28Z" fill="#000000" fill-rule="evenodd" opacity="1" stroke="none"/>
<path d="M2 27L3 27L3 28L2 28L2 27Z" fill="#000000" fill-rule="evenodd" opacity="1" stroke="none"/>
<path d="M2 26L3 26L3 27L2 27L2 26Z" fill="#000000" fill-rule="evenodd" opacity="1" stroke="none"/>
<path d="M3 25L4 25L4 26L3 26L3 25Z" fill="#000000" fill-rule="evenodd" opacity="1" stroke="none"/>
<path d="M4 24L5 24L5 25L4 25L4 24Z" fill="#000000" fill-rule="evenodd" opacity="1" stroke="none"/>
<path d="M5 24L6 24L6 25L5 25L5 24Z" fill="#000000" fill-rule="evenodd" opacity="1" stroke="none"/>
<path d="M5 23L6 23L6 24L5 24L5 23Z" fill="#000000" fill-rule="evenodd" opacity="1" stroke="none"/>
<path d="M5 22L6 22L6 23L5 23L5 22Z" fill="#000000" fill-rule="evenodd" opacity="1" stroke="none"/>
<path d="M5 21L6 21L6 22L5 22L5 21Z" fill="#000000" fill-rule="evenodd" opacity="1" stroke="none"/>
<path d="M5 20L6 20L6 21L5 21L5 20Z" fill="#000000" fill-rule="evenodd" opacity="1" stroke="none"/>
<path d="M5 19L6 19L6 20L5 20L5 19Z" fill="#000000" fill-rule="evenodd" opacity="1" stroke="none"/>
<path d="M5 18L6 18L6 19L5 19L5 18Z" fill="#000000" fill-rule="evenodd" opacity="1" stroke="none"/>
<path d="M5 17L6 17L6 18L5 18L5 17Z" fill="#000000" fill-rule="evenodd" opacity="1" stroke="none"/>
<path d="M5 16L6 16L6 17L5 17L5 16Z" fill="#000000" fill-rule="evenodd" opacity="1" stroke="none"/>
<path d="M10 24L11 24L11 25L10 25L10 24Z" fill="#000000" fill-rule="evenodd" opacity="1" stroke="none"/>
<path d="M10 23L11 23L11 24L10 24L10 23Z" fill="#000000" fill-rule="evenodd" opacity="1" stroke="none"/>
<path d="M10 22L11 22L11 23L10 23L10 22Z" fill="#000000" fill-rule="evenodd" opacity="1" stroke="none"/>
<path d="M10 21L11 21L11 22L10 22L10 21Z" fill="#000000" fill-rule="evenodd" opacity="1" stroke="none"/>
<path d="M10 20L11 20L11 21L10 21L10 20Z" fill="#000000" fill-rule="evenodd" opacity="1" stroke="none"/>
<path d="M10 19L11 19L11 20L10 20L10 19Z" fill="#000000" fill-rule="evenodd" opacity="1" stroke="none"/>
<path d="M10 18L11 18L11 19L10 19L10 18Z" fill="#000000" fill-rule="evenodd" opacity="1" stroke="none"/>
<path d="M10 17L11 17L11 18L10 18L10 17Z" fill="#000000" fill-rule="evenodd" opacity="1" stroke="none"/>
<path d="M10 16L11 16L11 17L10 17L10 16Z" fill="#000000" fill-rule="evenodd" opacity="1" stroke="none"/>
<path d="M11 24L12 24L12 25L11 25L11 24Z" fill="#000000" fill-rule="evenodd" opacity="1" stroke="none"/>
<path d="M12 25L13 25L13 26L12 26L12 25Z" fill="#000000" fill-rule="evenodd" opacity="1" stroke="none"/>
<path d="M13 26L14 26L14 27L13 27L13 26Z" fill="#000000" fill-rule="evenodd" opacity="1" stroke="none"/>
<path d="M13 27L14 27L14 28L13 28L13 27Z" fill="#000000" fill-rule="evenodd" opacity="1" stroke="none"/>
<path d="M13 28L14 28L14 29L13 29L13 28Z" fill="#000000" fill-rule="evenodd" opacity="1" stroke="none"/>
<path d="M6 16L7 16L7 17L6 17L6 16Z" fill="#fff4e5" fill-rule="evenodd" opacity="1" stroke="none"/>
<path d="M7 16L8 16L8 17L7 17L7 16Z" fill="#fff4e5" fill-rule="evenodd" opacity="1" stroke="none"/>
<path d="M8 16L8 16L8 17L8 17L8 16Z" fill="#fff4e5" fill-rule="evenodd" opacity="1" stroke="none"/>
<path d="M8 16L9 16L9 17L8 17L8 16Z" fill="#fff4e5" fill-rule="evenodd" opacity="1" stroke="none"/>
<path d="M6 17L7 17L7 18L6 18L6 17Z" fill="#fff4e5" fill-rule="evenodd" opacity="1" stroke="none"/>
<path d="M7 17L8 17L8 18L7 18L7 17Z" fill="#fff4e5" fill-rule="evenodd" opacity="1" stroke="none"/>
<path d="M8 17L9 17L9 18L8 18L8 17Z" fill="#fff4e5" fill-rule="evenodd" opacity="1" stroke="none"/>
<path d="M9 17L10 17L10 18L9 18L9 17Z" fill="#fff4e5" fill-rule="evenodd" opacity="1" stroke="none"/>
<path d="M8 18L9 18L9 19L8 19L8 18Z" fill="#fff4e5" fill-rule="evenodd" opacity="1" stroke="none"/>
<path d="M7 18L8 18L8 19L7 19L7 18Z" fill="#fff4e5" fill-rule="evenodd" opacity="1" stroke="none"/>
<path d="M6 18L7 18L7 19L6 19L6 18Z" fill="#fff4e5" fill-rule="evenodd" opacity="1" stroke="none"/>
<path d="M9 18L10 18L10 19L9 19L9 18Z" fill="#fff4e5" fill-rule="evenodd" opacity="1" stroke="none"/>
<path d="M7 19L9 19L9 20L7 20L7 19Z" fill="#fff4e5" fill-rule="evenodd" opacity="1" stroke="none"/>
<path d="M6 19L7 19L7 20L6 20L6 19Z" fill="#fff4e5" fill-rule="evenodd" opacity="1" stroke="none"/>
<path d="M9 19L10 19L10 20L9 20L9 19Z" fill="#fff4e5" fill-rule="evenodd" opacity="1" stroke="none"/>
<path d="M6 20L10 20L10 28L6 28L6 20Z" fill="#fff4e5" fill-rule="evenodd" opacity="1" stroke="none"/>
<path d="M4 25L6 25L6 30L4 30L4 25Z" fill="#fff4e5" fill-rule="evenodd" opacity="1" stroke="none"/>
<path d="M10 25L12 25L12 30L10 30L10 25Z" fill="#fff4e5" fill-rule="evenodd" opacity="1" stroke="none"/>
<path d="M9 28L10 28L10 29L9 29L9 28Z" fill="#fff4e5" fill-rule="evenodd" opacity="1" stroke="none"/>
<path d="M6 28L7 28L7 29L6 29L6 28Z" fill="#fff4e5" fill-rule="evenodd" opacity="1" stroke="none"/>
<path d="M3 26L4 26L4 29L3 29L3 26Z" fill="#fff4e5" fill-rule="evenodd" opacity="1" stroke="none"/>
<path d="M12 26L13 26L13 29L12 29L12 26Z" fill="#fff4e5" fill-rule="evenodd" opacity="1" stroke="none"/>
<path d="M11 24L12 24" fill="none" fill-rule="evenodd" opacity="0.502605" stroke="#ffffff" stroke-linecap="round" stroke-linejoin="round" stroke-width="0.1"/>
<path d="M12 24L12 25" fill="none" fill-rule="evenodd" opacity="0.502605" stroke="#ffffff" stroke-linecap="round" stroke-linejoin="round" stroke-width="0.1"/>
<path d="M12 25L13 25" fill="none" fill-rule="evenodd" opacity="0.502605" stroke="#ffffff" stroke-linecap="round" stroke-linejoin="round" stroke-width="0.1"/>
<path d="M13 25L13 26" fill="none" fill-rule="evenodd" opacity="0.502605" stroke="#ffffff" stroke-linecap="round" stroke-linejoin="round" stroke-width="0.1"/>
<path d="M13 26L14 26" fill="none" fill-rule="evenodd" opacity="0.502605" stroke="#ffffff" stroke-linecap="round" stroke-linejoin="round" stroke-width="0.1"/>
<path d="M14 26L14 29" fill="none" fill-rule="evenodd" opacity="0.502605" stroke="#ffffff" stroke-linecap="round" stroke-linejoin="round" stroke-width="0.1"/>
<path d="M13 29L14 29" fill="none" fill-rule="evenodd" opacity="0.502605" stroke="#ffffff" stroke-linecap="round" stroke-linejoin="round" stroke-width="0.1"/>
<path d="M13 29L13 30" fill="none" fill-rule="evenodd" opacity="0.502605" stroke="#ffffff" stroke-linecap="round" stroke-linejoin="round" stroke-width="0.1"/>
<path d="M12 30L13 30" fill="none" fill-rule="evenodd" opacity="0.502605" stroke="#ffffff" stroke-linecap="round" stroke-linejoin="round" stroke-width="0.1"/>
<path d="M12 30L12 31" fill="none" fill-rule="evenodd" opacity="0.502605" stroke="#ffffff" stroke-linecap="round" stroke-linejoin="round" stroke-width="0.1"/>
<path d="M10 31L12 31" fill="none" fill-rule="evenodd" opacity="0.502605" stroke="#ffffff" stroke-linecap="round" stroke-linejoin="round" stroke-width="0.1"/>
<path d="M10 30L10 31" fill="none" fill-rule="evenodd" opacity="0.502605" stroke="#ffffff" stroke-linecap="round" stroke-linejoin="round" stroke-width="0.1"/>
<path d="M9 30L10 30" fill="none" fill-rule="evenodd" opacity="0.502605" stroke="#ffffff" stroke-linecap="round" stroke-linejoin="round" stroke-width="0.1"/>
<path d="M9 29L9 30" fill="none" fill-rule="evenodd" opacity="0.502605" stroke="#ffffff" stroke-linecap="round" stroke-linejoin="round" stroke-width="0.1"/>
<path d="M7 29L9 29" fill="none" fill-rule="evenodd" opacity="0.502605" stroke="#ffffff" stroke-linecap="round" stroke-linejoin="round" stroke-width="0.1"/>
<path d="M7 29L7 30" fill="none" fill-rule="evenodd" opacity="0.502605" stroke="#ffffff" stroke-linecap="round" stroke-linejoin="round" stroke-width="0.1"/>
<path d="M6 30L7 30" fill="none" fill-rule="evenodd" opacity="0.502605" stroke="#ffffff" stroke-linecap="round" stroke-linejoin="round" stroke-width="0.1"/>
<path d="M6 30L6 31" fill="none" fill-rule="evenodd" opacity="0.502605" stroke="#ffffff" stroke-linecap="round" stroke-linejoin="round" stroke-width="0.1"/>
<path d="M4 31L6 31" fill="none" fill-rule="evenodd" opacity="0.502605" stroke="#ffffff" stroke-linecap="round" stroke-linejoin="round" stroke-width="0.1"/>
<path d="M4 30L4 31" fill="none" fill-rule="evenodd" opacity="0.502605" stroke="#ffffff" stroke-linecap="round" stroke-linejoin="round" stroke-width="0.1"/>
<path d="M3 30L4 30" fill="none" fill-rule="evenodd" opacity="0.502605" stroke="#ffffff" stroke-linecap="round" stroke-linejoin="round" stroke-width="0.1"/>
<path d="M3 29L3 30" fill="none" fill-rule="evenodd" opacity="0.502605" stroke="#ffffff" stroke-linecap="round" stroke-linejoin="round" stroke-width="0.1"/>
<path d="M2 29L3 29" fill="none" fill-rule="evenodd" opacity="0.502605" stroke="#ffffff" stroke-linecap="round" stroke-linejoin="round" stroke-width="0.1"/>
<path d="M2 26L2 29" fill="none" fill-rule="evenodd" opacity="0.502605" stroke="#ffffff" stroke-linecap="round" stroke-linejoin="round" stroke-width="0.1"/>
<path d="M2 26L3 26" fill="none" fill-rule="evenodd" opacity="0.502605" stroke="#ffffff" stroke-linecap="round" stroke-linejoin="round" stroke-width="0.1"/>
<path d="M3 25L3 26" fill="none" fill-rule="evenodd" opacity="0.502605" stroke="#ffffff" stroke-linecap="round" stroke-linejoin="round" stroke-width="0.1"/>
<path d="M3 25L4 25" fill="none" fill-rule="evenodd" opacity="0.502605" stroke="#ffffff" stroke-linecap="round" stroke-linejoin="round" stroke-width="0.1"/>
<path d="M4 24L4 25" fill="none" fill-rule="evenodd" opacity="0.502605" stroke="#ffffff" stroke-linecap="round" stroke-linejoin="round" stroke-width="0.1"/>
<path d="M4 24L5 24" fill="none" fill-rule="evenodd" opacity="0.502605" stroke="#ffffff" stroke-linecap="round" stroke-linejoin="round" stroke-width="0.1"/>
<path d="M11 8L11 24" fill="none" fill-rule="evenodd" opacity="0.502605" stroke="#ffffff" stroke-linecap="butt" stroke-linejoin="miter" stroke-width="0.1"/>
<path d="M5 8L5 24" fill="none" fill-rule="evenodd" opacity="0.502605" stroke="#ffffff" stroke-linecap="butt" stroke-linejoin="miter" stroke-width="0.1"/>
</g>
</svg>
