<?xml version="1.0" encoding="UTF-8" standalone="no"?>
<!DOCTYPE svg PUBLIC "-//W3C//DTD SVG 1.1//EN" "http://www.w3.org/Graphics/SVG/1.1/DTD/svg11.dtd">

<!-- Created with Vectornator (http://vectornator.io/) -->
<svg height="100%" stroke-miterlimit="10" style="fill-rule:nonzero;clip-rule:evenodd;stroke-linecap:round;stroke-linejoin:round;" version="1.1" viewBox="0 0 32 48" width="100%" xml:space="preserve" xmlns="http://www.w3.org/2000/svg" xmlns:vectornator="http://vectornator.io" xmlns:xlink="http://www.w3.org/1999/xlink">
<metadata>
<vectornator:setting key="IsTimeLapseWatermarkDisabled" value="false"/>
<vectornator:setting key="UndoHistoryDisabled" value="true"/>
<vectornator:setting key="VNDimensionsVisible" value="true"/>
<vectornator:setting key="VNSnapToGuides" value="false"/>
<vectornator:setting key="WDCMYKEnabledKey" value="false"/>
<vectornator:setting key="WDDisplayWhiteBackground" value="false"/>
<vectornator:setting key="WDDynamicGuides" value="false"/>
<vectornator:setting key="WDGuidesVisible" value="true"/>
<vectornator:setting key="WDIsolateActiveLayer" value="false"/>
<vectornator:setting key="WDOutlineMode" value="false"/>
<vectornator:setting key="WDRulersVisible" value="true"/>
<vectornator:setting key="WDSnapToEdges" value="false"/>
<vectornator:setting key="WDSnapToGrid" value="true"/>
<vectornator:setting key="WDSnapToPoints" value="false"/>
<vectornator:setting key="WDUnits" value="Pixels"/>
</metadata>
<defs>
<clipPath id="TextBounds">
<rect height="9" width="32.4" x="0" y="19"/>
</clipPath>
</defs>
<g id="图层-1" vectornator:layerName="图层 1">
<path d="M5 45L6 45L6 46L5 46L5 45Z" fill="#000000" fill-rule="evenodd" opacity="1" stroke="none"/>
<path d="M7 45L8 45L8 46L7 46L7 45Z" fill="#000000" fill-rule="evenodd" opacity="1" stroke="none"/>
<path d="M6 45L7 45L7 46L6 46L6 45Z" fill="#000000" fill-rule="evenodd" opacity="1" stroke="none"/>
<path d="M8 45L9 45L9 46L8 46L8 45Z" fill="#000000" fill-rule="evenodd" opacity="1" stroke="none"/>
<path d="M9 45L10 45L10 46L9 46L9 45Z" fill="#000000" fill-rule="evenodd" opacity="1" stroke="none"/>
<path d="M9 44L11 44L11 45L9 45L9 44Z" fill="#000000" fill-rule="evenodd" opacity="1" stroke="none"/>
<path d="M11 44L12 44L12 45L11 45L11 44Z" fill="#000000" fill-rule="evenodd" opacity="1" stroke="none"/>
<path d="M12 44L13 44L13 45L12 45L12 44Z" fill="#000000" fill-rule="evenodd" opacity="1" stroke="none"/>
<path d="M13 44L14 44L14 45L13 45L13 44Z" fill="#000000" fill-rule="evenodd" opacity="1" stroke="none"/>
<path d="M14 44L15 44L15 45L14 45L14 44Z" fill="#000000" fill-rule="evenodd" opacity="1" stroke="none"/>
<path d="M15 44L16 44L16 45L15 45L15 44Z" fill="#000000" fill-rule="evenodd" opacity="1" stroke="none"/>
<path d="M16 44L17 44L17 45L16 45L16 44Z" fill="#000000" fill-rule="evenodd" opacity="1" stroke="none"/>
<path d="M17 44L18 44L18 45L17 45L17 44Z" fill="#000000" fill-rule="evenodd" opacity="1" stroke="none"/>
<path d="M18 44L19 44L19 45L18 45L18 44Z" fill="#000000" fill-rule="evenodd" opacity="1" stroke="none"/>
<path d="M19 44L20 44L20 45L19 45L19 44Z" fill="#000000" fill-rule="evenodd" opacity="1" stroke="none"/>
<path d="M20 44L21 44L21 45L20 45L20 44Z" fill="#000000" fill-rule="evenodd" opacity="1" stroke="none"/>
<path d="M21 44L22 44L22 45L21 45L21 44Z" fill="#000000" fill-rule="evenodd" opacity="1" stroke="none"/>
<path d="M22 45L23 45L23 46L22 46L22 45Z" fill="#000000" fill-rule="evenodd" opacity="1" stroke="none"/>
<path d="M23 45L24 45L24 46L23 46L23 45Z" fill="#000000" fill-rule="evenodd" opacity="1" stroke="none"/>
<path d="M24 45L25 45L25 46L24 46L24 45Z" fill="#000000" fill-rule="evenodd" opacity="1" stroke="none"/>
<path d="M25 45L26 45L26 46L25 46L25 45Z" fill="#000000" fill-rule="evenodd" opacity="1" stroke="none"/>
<path d="M26 45L27 45L27 46L26 46L26 45Z" fill="#000000" fill-rule="evenodd" opacity="1" stroke="none"/>
<path d="M26 43L27 43L27 45L26 45L26 43Z" fill="#000000" fill-rule="evenodd" opacity="1" stroke="none"/>
<path d="M5 44L6 44L6 45L5 45L5 44Z" fill="#000000" fill-rule="evenodd" opacity="1" stroke="none"/>
<path d="M5 43L6 43L6 44L5 44L5 43Z" fill="#000000" fill-rule="evenodd" opacity="1" stroke="none"/>
<path d="M6 44L7 44L7 45L6 45L6 44Z" fill="#000000" fill-rule="evenodd" opacity="1" stroke="none"/>
<path d="M7 44L8 44L8 45L7 45L7 44Z" fill="#000000" fill-rule="evenodd" opacity="1" stroke="none"/>
<path d="M8 44L9 44L9 45L8 45L8 44Z" fill="#000000" fill-rule="evenodd" opacity="1" stroke="none"/>
<path d="M22 44L23 44L23 45L22 45L22 44Z" fill="#000000" fill-rule="evenodd" opacity="1" stroke="none"/>
<path d="M23 44L24 44L24 45L23 45L23 44Z" fill="#000000" fill-rule="evenodd" opacity="1" stroke="none"/>
<path d="M24 44L25 44L25 45L24 45L24 44Z" fill="#000000" fill-rule="evenodd" opacity="1" stroke="none"/>
<path d="M25 44L26 44L26 45L25 45L25 44Z" fill="#000000" fill-rule="evenodd" opacity="1" stroke="none"/>
<path d="M6 43L7 43L7 44L6 44L6 43Z" fill="#000000" fill-rule="evenodd" opacity="1" stroke="none"/>
<path d="M7 43L8 43L8 44L7 44L7 43Z" fill="#000000" fill-rule="evenodd" opacity="1" stroke="none"/>
<path d="M8 43L9 43L9 44L8 44L8 43Z" fill="#000000" fill-rule="evenodd" opacity="1" stroke="none"/>
<path d="M9 43L10 43L10 44L9 44L9 43Z" fill="#000000" fill-rule="evenodd" opacity="1" stroke="none"/>
<path d="M10 43L11 43L11 44L10 44L10 43Z" fill="#000000" fill-rule="evenodd" opacity="1" stroke="none"/>
<path d="M11 43L12 43L12 44L11 44L11 43Z" fill="#000000" fill-rule="evenodd" opacity="1" stroke="none"/>
<path d="M12 43L13 43L13 44L12 44L12 43Z" fill="#000000" fill-rule="evenodd" opacity="1" stroke="none"/>
<path d="M13 43L14 43L14 44L13 44L13 43Z" fill="#000000" fill-rule="evenodd" opacity="1" stroke="none"/>
<path d="M14 43L15 43L15 44L14 44L14 43Z" fill="#000000" fill-rule="evenodd" opacity="1" stroke="none"/>
<path d="M15 43L16 43L16 44L15 44L15 43Z" fill="#000000" fill-rule="evenodd" opacity="1" stroke="none"/>
<path d="M16 43L17 43L17 44L16 44L16 43Z" fill="#000000" fill-rule="evenodd" opacity="1" stroke="none"/>
<path d="M17 43L18 43L18 44L17 44L17 43Z" fill="#000000" fill-rule="evenodd" opacity="1" stroke="none"/>
<path d="M18 43L19 43L19 44L18 44L18 43Z" fill="#000000" fill-rule="evenodd" opacity="1" stroke="none"/>
<path d="M19 43L20 43L20 44L19 44L19 43Z" fill="#000000" fill-rule="evenodd" opacity="1" stroke="none"/>
<path d="M20 43L21 43L21 44L20 44L20 43Z" fill="#000000" fill-rule="evenodd" opacity="1" stroke="none"/>
<path d="M21 43L22 43L22 44L21 44L21 43Z" fill="#000000" fill-rule="evenodd" opacity="1" stroke="none"/>
<path d="M22 43L23 43L23 44L22 44L22 43Z" fill="#000000" fill-rule="evenodd" opacity="1" stroke="none"/>
<path d="M23 43L24 43L24 44L23 44L23 43Z" fill="#000000" fill-rule="evenodd" opacity="1" stroke="none"/>
<path d="M24 43L25 43L25 44L24 44L24 43Z" fill="#000000" fill-rule="evenodd" opacity="1" stroke="none"/>
<path d="M25 43L26 43L26 44L25 44L25 43Z" fill="#000000" fill-rule="evenodd" opacity="1" stroke="none"/>
<path d="M3 16L6 16L6 24L3 24L3 16Z" fill="#000000" fill-rule="evenodd" opacity="1" stroke="none"/>
<path d="M26 16L29 16L29 24L26 24L26 16Z" fill="#000000" fill-rule="evenodd" opacity="1" stroke="none"/>
<path d="M11 24L12 24L12 40.15L11 40.15L11 24Z" fill="#000000" fill-rule="evenodd" opacity="1" stroke="none"/>
<path d="M21 24L20 24L20 40.15L21 40.15L21 24Z" fill="#000000" fill-rule="evenodd" opacity="1" stroke="none"/>
<path d="M10 16L11 16L11 24L10 24L10 16Z" fill="#000000" fill-rule="evenodd" opacity="1" stroke="none"/>
<path d="M21 16L22 16L22 24L21 24L21 16Z" fill="#000000" fill-rule="evenodd" opacity="1" stroke="none"/>
<path d="M2 15L4 15L4 15L2 15Z" fill="#000000" fill-rule="evenodd" opacity="1" stroke="none"/>
<path d="M1 15L31 15L31 16L1 16L1 15Z" fill="#000000" fill-rule="evenodd" opacity="1" stroke="none"/>
<path d="M5 14L27 14L27 15L5 15L5 14Z" fill="#000000" fill-rule="evenodd" opacity="1" stroke="none"/>
<path d="M1 10L3 10L3 15L1 15L1 10Z" fill="#000000" fill-rule="evenodd" opacity="1" stroke="none"/>
<path d="M29 10L31 10L31 15L29 15L29 10Z" fill="#000000" fill-rule="evenodd" opacity="1" stroke="none"/>
<path d="M3 10L29 10L29 12L3 12L3 10Z" fill="#000000" fill-rule="evenodd" opacity="1" stroke="none"/>
<path d="M3 9L4 9L4 10L3 10L3 9Z" fill="#000000" fill-rule="evenodd" opacity="1" stroke="none"/>
<path d="M28 9L29 9L29 10L28 10L28 9Z" fill="#000000" fill-rule="evenodd" opacity="1" stroke="none"/>
<path d="M4 5L6 5L6 10L4 10L4 5Z" fill="#000000" fill-rule="evenodd" opacity="1" stroke="none"/>
<path d="M26 5L28 5L28 10L26 10L26 5Z" fill="#000000" fill-rule="evenodd" opacity="1" stroke="none"/>
<path d="M6 6L26 6L26 8L6 8L6 6Z" fill="#000000" fill-rule="evenodd" opacity="1" stroke="none"/>
<path d="M6 5L8 5L8 6L6 6L6 5Z" fill="#000000" fill-rule="evenodd" opacity="1" stroke="none"/>
<path d="M24 5L26 5L26 6L24 6L24 5Z" fill="#000000" fill-rule="evenodd" opacity="1" stroke="none"/>
<path d="M8 2L11 2L11 6L8 6L8 2Z" fill="#000000" fill-rule="evenodd" opacity="1" stroke="none"/>
<path d="M21 2L24 2L24 6L21 6L21 2Z" fill="#000000" fill-rule="evenodd" opacity="1" stroke="none"/>
<path d="M11 2L21 2L21 4L11 4L11 2Z" fill="#000000" fill-rule="evenodd" opacity="1" stroke="none"/>
<path d="M12 39L13 39L13 43L12 43L12 39Z" fill="#000000" fill-rule="evenodd" opacity="1" stroke="none"/>
<path d="M19 39L20 39L20 43L19 43L19 39Z" fill="#000000" fill-rule="evenodd" opacity="1" stroke="none"/>
<path d="M6 16L10 16L10 24L6 24L6 16Z" fill="#3490ff" fill-rule="evenodd" opacity="1" stroke="none"/>
<path d="M7 24L11 24L11 43L7 43L7 24Z" fill="#3490ff" fill-rule="evenodd" opacity="1" stroke="none"/>
<path d="M21 24L25 24L25 43L21 43L21 24Z" fill="#3490ff" fill-rule="evenodd" opacity="1" stroke="none"/>
<path d="M22 16L26 16L26 24L22 24L22 16Z" fill="#3490ff" fill-rule="evenodd" opacity="1" stroke="none"/>
<path d="M23 39L24 39L24 39L23 39Z" fill="#3490ff" fill-rule="evenodd" opacity="1" stroke="none"/>
<path d="M11 40L12 40L12 43L11 43L11 40Z" fill="#3490ff" fill-rule="evenodd" opacity="1" stroke="none"/>
<path d="M20 40L21 40L21 43L20 43L20 40Z" fill="#3490ff" fill-rule="evenodd" opacity="1" stroke="none"/>
<path d="M6 8L26 8L26 10L6 10L6 8Z" fill="#3490ff" fill-rule="evenodd" opacity="1" stroke="none"/>
<path d="M3 12L5 12L5 15L3 15L3 12Z" fill="#3490ff" fill-rule="evenodd" opacity="1" stroke="none"/>
<path d="M27 12L29 12L29 15L27 15L27 12Z" fill="#3490ff" fill-rule="evenodd" opacity="1" stroke="none"/>
<path d="M5 12L27 12L27 14L5 14L5 12Z" fill="#3490ff" fill-rule="evenodd" opacity="1" stroke="none"/>
<path d="M11 4L21 4L21 6L11 6L11 4Z" fill="#3490ff" fill-rule="evenodd" opacity="1" stroke="none"/>
<path d="M8 2L24 2" fill="none" fill-rule="evenodd" opacity="0.496705" stroke="#ffffff" stroke-linecap="butt" stroke-linejoin="miter" stroke-width="0.1"/>
<path d="M24 2L24 5" fill="none" fill-rule="evenodd" opacity="0.496705" stroke="#ffffff" stroke-linecap="round" stroke-linejoin="round" stroke-width="0.1"/>
<path d="M24 5L28 5" fill="none" fill-rule="evenodd" opacity="0.496705" stroke="#ffffff" stroke-linecap="round" stroke-linejoin="round" stroke-width="0.1"/>
<path d="M28 5L28 9" fill="none" fill-rule="evenodd" opacity="0.496705" stroke="#ffffff" stroke-linecap="round" stroke-linejoin="round" stroke-width="0.1"/>
<path d="M28 9L29 9" fill="none" fill-rule="evenodd" opacity="0.496705" stroke="#ffffff" stroke-linecap="round" stroke-linejoin="round" stroke-width="0.1"/>
<path d="M29 9L29 10" fill="none" fill-rule="evenodd" opacity="0.496705" stroke="#ffffff" stroke-linecap="round" stroke-linejoin="round" stroke-width="0.1"/>
<path d="M29 10L31 10" fill="none" fill-rule="evenodd" opacity="0.496705" stroke="#ffffff" stroke-linecap="round" stroke-linejoin="round" stroke-width="0.1"/>
<path d="M31 10L31 16" fill="none" fill-rule="evenodd" opacity="0.496705" stroke="#ffffff" stroke-linecap="round" stroke-linejoin="round" stroke-width="0.1"/>
<path d="M29 16L31 16" fill="none" fill-rule="evenodd" opacity="0.496705" stroke="#ffffff" stroke-linecap="round" stroke-linejoin="round" stroke-width="0.1"/>
<path d="M29 16L29 24" fill="none" fill-rule="evenodd" opacity="0.496705" stroke="#ffffff" stroke-linecap="round" stroke-linejoin="round" stroke-width="0.1"/>
<path d="M28 24L29 24" fill="none" fill-rule="evenodd" opacity="0.496705" stroke="#ffffff" stroke-linecap="round" stroke-linejoin="round" stroke-width="0.1"/>
<path d="M28 24L28 43" fill="none" fill-rule="evenodd" opacity="0.496705" stroke="#ffffff" stroke-linecap="round" stroke-linejoin="round" stroke-width="0.1"/>
<path d="M27 43L28 43" fill="none" fill-rule="evenodd" opacity="0.496705" stroke="#ffffff" stroke-linecap="round" stroke-linejoin="round" stroke-width="0.1"/>
<path d="M25 24L28 24L28 43L25 43L25 24Z" fill="#000000" fill-rule="evenodd" opacity="1" stroke="none"/>
<path d="M4 24L7 24L7 43L4 43L4 24Z" fill="#000000" fill-rule="evenodd" opacity="1" stroke="none"/>
<path d="M27 43L27 46" fill="none" fill-rule="evenodd" opacity="0.496705" stroke="#ffffff" stroke-linecap="round" stroke-linejoin="round" stroke-width="0.1"/>
<path d="M22 46L27 46" fill="none" fill-rule="evenodd" opacity="0.496705" stroke="#ffffff" stroke-linecap="round" stroke-linejoin="round" stroke-width="0.1"/>
<path d="M22 45L22 46" fill="none" fill-rule="evenodd" opacity="0.496705" stroke="#ffffff" stroke-linecap="round" stroke-linejoin="round" stroke-width="0.1"/>
<path d="M10 45L22 45" fill="none" fill-rule="evenodd" opacity="0.496705" stroke="#ffffff" stroke-linecap="round" stroke-linejoin="round" stroke-width="0.1"/>
<path d="M10 45L10 46" fill="none" fill-rule="evenodd" opacity="0.496705" stroke="#ffffff" stroke-linecap="round" stroke-linejoin="round" stroke-width="0.1"/>
<path d="M5 46L10 46" fill="none" fill-rule="evenodd" opacity="0.496705" stroke="#ffffff" stroke-linecap="round" stroke-linejoin="round" stroke-width="0.1"/>
<path d="M5 43L5 46" fill="none" fill-rule="evenodd" opacity="1" stroke="none"/>
<path d="M5 43L5 46" fill="none" fill-rule="evenodd" opacity="0.502773" stroke="#ffffff" stroke-linecap="round" stroke-linejoin="round" stroke-width="0.1"/>
<path d="M4 43L5 43" fill="none" fill-rule="evenodd" opacity="0.502773" stroke="#ffffff" stroke-linecap="round" stroke-linejoin="round" stroke-width="0.1"/>
<path d="M4 24L4 43" fill="none" fill-rule="evenodd" opacity="0.502773" stroke="#ffffff" stroke-linecap="round" stroke-linejoin="round" stroke-width="0.1"/>
<path d="M3 24L4 24" fill="none" fill-rule="evenodd" opacity="0.502773" stroke="#ffffff" stroke-linecap="round" stroke-linejoin="round" stroke-width="0.1"/>
<path d="M3 16L3 24" fill="none" fill-rule="evenodd" opacity="0.502773" stroke="#ffffff" stroke-linecap="round" stroke-linejoin="round" stroke-width="0.1"/>
<path d="M1 16L3 16" fill="none" fill-rule="evenodd" opacity="0.502773" stroke="#ffffff" stroke-linecap="round" stroke-linejoin="round" stroke-width="0.1"/>
<path d="M1 10L1 16" fill="none" fill-rule="evenodd" opacity="0.502773" stroke="#ffffff" stroke-linecap="round" stroke-linejoin="round" stroke-width="0.1"/>
<path d="M1 10L3 10" fill="none" fill-rule="evenodd" opacity="0.502773" stroke="#ffffff" stroke-linecap="round" stroke-linejoin="round" stroke-width="0.1"/>
<path d="M3 9L3 10" fill="none" fill-rule="evenodd" opacity="0.502773" stroke="#ffffff" stroke-linecap="round" stroke-linejoin="round" stroke-width="0.1"/>
<path d="M3 9L4 9" fill="none" fill-rule="evenodd" opacity="0.502773" stroke="#ffffff" stroke-linecap="round" stroke-linejoin="round" stroke-width="0.1"/>
<path d="M4 5L4 9" fill="none" fill-rule="evenodd" opacity="0.502773" stroke="#ffffff" stroke-linecap="round" stroke-linejoin="round" stroke-width="0.1"/>
<path d="M4 5L8 5" fill="none" fill-rule="evenodd" opacity="0.502773" stroke="#ffffff" stroke-linecap="round" stroke-linejoin="round" stroke-width="0.1"/>
<path d="M8 2L8 5" fill="none" fill-rule="evenodd" opacity="0.502773" stroke="#ffffff" stroke-linecap="round" stroke-linejoin="round" stroke-width="0.1"/>
<path d="M11 16L21 16L21 24L11 24L11 16Z" fill="#3490ff" fill-rule="evenodd" opacity="1" stroke="none"/>
<path d="M12 24L20 24L20 39L12 39L12 24Z" fill="#3490ff" fill-rule="evenodd" opacity="1" stroke="none"/>
<path d="M13 39L19 39L19 43L13 43L13 39Z" fill="#3490ff" fill-rule="evenodd" opacity="1" stroke="none"/>
<g fill="#ffffff" opacity="1" stroke="none">
<path clip-path="url(#TextBounds)" d="M1.885 21.121L1.885 21.611L6.701 21.611L6.701 26.245C6.701 26.483 6.582 26.609 6.358 26.609C6.008 26.609 5.637 26.595 5.252 26.581L5.364 27.071L6.533 27.071C6.981 27.071 7.205 26.833 7.205 26.371L7.205 21.611L8.129 21.611L8.129 21.121L1.885 21.121ZM5.42 22.682L2.697 22.682L2.697 25.867L3.187 25.867L3.187 25.251L5.42 25.251L5.42 22.682ZM3.187 24.789L3.187 23.137L4.937 23.137L4.937 24.789L3.187 24.789Z" fill-rule="evenodd"/>
<path clip-path="url(#TextBounds)" d="M10.656 22.654L10.656 25.146L13.358 25.146L13.358 22.654L10.656 22.654ZM12.882 24.719L11.125 24.719L11.125 23.088L12.882 23.088L12.882 24.719ZM14.807 21.121L9.193 21.121L9.193 27.008L9.683 27.008L9.683 26.707L14.317 26.707L14.317 27.008L14.807 27.008L14.807 21.121ZM9.683 26.259L9.683 21.569L14.317 21.569L14.317 26.259L9.683 26.259Z" fill-rule="evenodd"/>
<path clip-path="url(#TextBounds)" d="M16.13 25.734C16.662 25.594 17.18 25.44 17.67 25.265L17.67 27.078L18.167 27.078L18.167 20.736L17.67 20.736L17.67 24.775C17.32 24.908 16.97 25.027 16.62 25.125L16.62 21.303L16.13 21.303L16.13 25.139C16.13 25.209 16.074 25.265 15.976 25.307L16.13 25.734ZM19.595 22.262L21.002 22.262C20.96 23.228 20.736 24.068 20.316 24.782C19.91 24.208 19.588 23.578 19.336 22.892C19.427 22.696 19.511 22.486 19.595 22.262ZM19.042 23.438C19.294 24.082 19.623 24.677 20.015 25.237C19.581 25.811 18.993 26.28 18.258 26.644L18.545 27.099C19.273 26.707 19.868 26.224 20.33 25.643C20.771 26.189 21.296 26.693 21.905 27.148L22.248 26.742C21.632 26.294 21.1 25.783 20.638 25.209C21.156 24.397 21.436 23.41 21.485 22.262L22.087 22.262L22.087 21.765L19.749 21.765C19.833 21.457 19.91 21.121 19.98 20.764L19.476 20.68C19.273 21.912 18.881 22.899 18.307 23.627L18.622 24.012C18.769 23.837 18.909 23.648 19.042 23.438Z" fill-rule="evenodd"/>
<path clip-path="url(#TextBounds)" d="M26.014 20.694C25.818 21.744 25.496 22.549 25.048 23.109L25.419 23.424C25.657 23.13 25.867 22.766 26.056 22.318L26.539 22.318C26.273 23.662 25.783 24.649 25.062 25.265L25.391 25.643C26.175 24.95 26.707 23.844 26.987 22.318L27.533 22.318C27.4 23.382 27.197 24.243 26.924 24.894C26.63 25.538 26.196 26.126 25.608 26.658L25.916 27.057C26.553 26.476 27.029 25.818 27.351 25.09C27.624 24.411 27.834 23.487 27.988 22.318L28.464 22.318C28.45 24.348 28.422 25.566 28.373 25.958C28.31 26.406 28.065 26.63 27.638 26.63C27.477 26.63 27.288 26.616 27.064 26.602L27.183 27.057C27.435 27.071 27.61 27.078 27.708 27.078C28.387 27.078 28.765 26.77 28.842 26.154C28.912 25.608 28.947 24.166 28.947 21.828L26.231 21.828C26.329 21.52 26.413 21.184 26.49 20.82L26.014 20.694ZM23.48 22.654L24.054 22.654L24.054 24.544C23.662 24.698 23.256 24.824 22.836 24.922L22.955 25.412C23.333 25.293 23.697 25.16 24.054 25.02L24.054 27.12L24.544 27.12L24.544 24.81C24.733 24.719 24.922 24.628 25.104 24.53L25.104 24.054C24.922 24.152 24.74 24.243 24.544 24.334L24.544 22.654L25.132 22.654L25.132 22.164L24.544 22.164L24.544 20.708L24.054 20.708L24.054 22.164L23.564 22.164C23.606 21.863 23.634 21.555 23.648 21.247L23.207 21.212C23.172 22.031 23.025 22.808 22.759 23.55L23.2 23.676C23.312 23.347 23.403 23.004 23.48 22.654Z" fill-rule="evenodd"/>
</g>
</g>
</svg>
