<?xml version="1.0" encoding="UTF-8" standalone="no"?>
<!DOCTYPE svg PUBLIC "-//W3C//DTD SVG 1.1//EN" "http://www.w3.org/Graphics/SVG/1.1/DTD/svg11.dtd">

<!-- Created with Vectornator (http://vectornator.io/) -->
<svg height="100%" stroke-miterlimit="10" style="fill-rule:nonzero;clip-rule:evenodd;stroke-linecap:round;stroke-linejoin:round;" version="1.1" viewBox="0 0 32 48" width="100%" xml:space="preserve" xmlns="http://www.w3.org/2000/svg" xmlns:vectornator="http://vectornator.io" xmlns:xlink="http://www.w3.org/1999/xlink">
<metadata>
<vectornator:setting key="IsTimeLapseWatermarkDisabled" value="false"/>
<vectornator:setting key="UndoHistoryDisabled" value="true"/>
<vectornator:setting key="VNDimensionsVisible" value="true"/>
<vectornator:setting key="VNSnapToGuides" value="false"/>
<vectornator:setting key="WDCMYKEnabledKey" value="false"/>
<vectornator:setting key="WDDisplayWhiteBackground" value="false"/>
<vectornator:setting key="WDDynamicGuides" value="false"/>
<vectornator:setting key="WDGuidesVisible" value="true"/>
<vectornator:setting key="WDIsolateActiveLayer" value="false"/>
<vectornator:setting key="WDOutlineMode" value="false"/>
<vectornator:setting key="WDRulersVisible" value="true"/>
<vectornator:setting key="WDSnapToEdges" value="false"/>
<vectornator:setting key="WDSnapToGrid" value="true"/>
<vectornator:setting key="WDSnapToPoints" value="false"/>
<vectornator:setting key="WDUnits" value="Pixels"/>
</metadata>
<defs>
<clipPath id="TextBounds">
<rect height="9" width="32.4" x="0" y="19"/>
</clipPath>
</defs>
<g id="图层-1" vectornator:layerName="图层 1">
<path d="M5 45L6 45L6 46L5 46L5 45Z" fill="#000000" fill-rule="evenodd" opacity="1" stroke="none"/>
<path d="M7 45L8 45L8 46L7 46L7 45Z" fill="#000000" fill-rule="evenodd" opacity="1" stroke="none"/>
<path d="M6 45L7 45L7 46L6 46L6 45Z" fill="#000000" fill-rule="evenodd" opacity="1" stroke="none"/>
<path d="M8 45L9 45L9 46L8 46L8 45Z" fill="#000000" fill-rule="evenodd" opacity="1" stroke="none"/>
<path d="M9 45L10 45L10 46L9 46L9 45Z" fill="#000000" fill-rule="evenodd" opacity="1" stroke="none"/>
<path d="M9 44L11 44L11 45L9 45L9 44Z" fill="#000000" fill-rule="evenodd" opacity="1" stroke="none"/>
<path d="M11 44L12 44L12 45L11 45L11 44Z" fill="#000000" fill-rule="evenodd" opacity="1" stroke="none"/>
<path d="M12 44L13 44L13 45L12 45L12 44Z" fill="#000000" fill-rule="evenodd" opacity="1" stroke="none"/>
<path d="M13 44L14 44L14 45L13 45L13 44Z" fill="#000000" fill-rule="evenodd" opacity="1" stroke="none"/>
<path d="M14 44L15 44L15 45L14 45L14 44Z" fill="#000000" fill-rule="evenodd" opacity="1" stroke="none"/>
<path d="M15 44L16 44L16 45L15 45L15 44Z" fill="#000000" fill-rule="evenodd" opacity="1" stroke="none"/>
<path d="M16 44L17 44L17 45L16 45L16 44Z" fill="#000000" fill-rule="evenodd" opacity="1" stroke="none"/>
<path d="M17 44L18 44L18 45L17 45L17 44Z" fill="#000000" fill-rule="evenodd" opacity="1" stroke="none"/>
<path d="M18 44L19 44L19 45L18 45L18 44Z" fill="#000000" fill-rule="evenodd" opacity="1" stroke="none"/>
<path d="M19 44L20 44L20 45L19 45L19 44Z" fill="#000000" fill-rule="evenodd" opacity="1" stroke="none"/>
<path d="M20 44L21 44L21 45L20 45L20 44Z" fill="#000000" fill-rule="evenodd" opacity="1" stroke="none"/>
<path d="M21 44L22 44L22 45L21 45L21 44Z" fill="#000000" fill-rule="evenodd" opacity="1" stroke="none"/>
<path d="M22 45L23 45L23 46L22 46L22 45Z" fill="#000000" fill-rule="evenodd" opacity="1" stroke="none"/>
<path d="M23 45L24 45L24 46L23 46L23 45Z" fill="#000000" fill-rule="evenodd" opacity="1" stroke="none"/>
<path d="M24 45L25 45L25 46L24 46L24 45Z" fill="#000000" fill-rule="evenodd" opacity="1" stroke="none"/>
<path d="M25 45L26 45L26 46L25 46L25 45Z" fill="#000000" fill-rule="evenodd" opacity="1" stroke="none"/>
<path d="M26 45L27 45L27 46L26 46L26 45Z" fill="#000000" fill-rule="evenodd" opacity="1" stroke="none"/>
<path d="M26 43L27 43L27 45L26 45L26 43Z" fill="#000000" fill-rule="evenodd" opacity="1" stroke="none"/>
<path d="M5 44L6 44L6 45L5 45L5 44Z" fill="#000000" fill-rule="evenodd" opacity="1" stroke="none"/>
<path d="M5 43L6 43L6 44L5 44L5 43Z" fill="#000000" fill-rule="evenodd" opacity="1" stroke="none"/>
<path d="M6 44L7 44L7 45L6 45L6 44Z" fill="#000000" fill-rule="evenodd" opacity="1" stroke="none"/>
<path d="M7 44L8 44L8 45L7 45L7 44Z" fill="#000000" fill-rule="evenodd" opacity="1" stroke="none"/>
<path d="M8 44L9 44L9 45L8 45L8 44Z" fill="#000000" fill-rule="evenodd" opacity="1" stroke="none"/>
<path d="M22 44L23 44L23 45L22 45L22 44Z" fill="#000000" fill-rule="evenodd" opacity="1" stroke="none"/>
<path d="M23 44L24 44L24 45L23 45L23 44Z" fill="#000000" fill-rule="evenodd" opacity="1" stroke="none"/>
<path d="M24 44L25 44L25 45L24 45L24 44Z" fill="#000000" fill-rule="evenodd" opacity="1" stroke="none"/>
<path d="M25 44L26 44L26 45L25 45L25 44Z" fill="#000000" fill-rule="evenodd" opacity="1" stroke="none"/>
<path d="M6 43L7 43L7 44L6 44L6 43Z" fill="#000000" fill-rule="evenodd" opacity="1" stroke="none"/>
<path d="M7 43L8 43L8 44L7 44L7 43Z" fill="#000000" fill-rule="evenodd" opacity="1" stroke="none"/>
<path d="M8 43L9 43L9 44L8 44L8 43Z" fill="#000000" fill-rule="evenodd" opacity="1" stroke="none"/>
<path d="M9 43L10 43L10 44L9 44L9 43Z" fill="#000000" fill-rule="evenodd" opacity="1" stroke="none"/>
<path d="M10 43L11 43L11 44L10 44L10 43Z" fill="#000000" fill-rule="evenodd" opacity="1" stroke="none"/>
<path d="M11 43L12 43L12 44L11 44L11 43Z" fill="#000000" fill-rule="evenodd" opacity="1" stroke="none"/>
<path d="M12 43L13 43L13 44L12 44L12 43Z" fill="#000000" fill-rule="evenodd" opacity="1" stroke="none"/>
<path d="M13 43L14 43L14 44L13 44L13 43Z" fill="#000000" fill-rule="evenodd" opacity="1" stroke="none"/>
<path d="M14 43L15 43L15 44L14 44L14 43Z" fill="#000000" fill-rule="evenodd" opacity="1" stroke="none"/>
<path d="M15 43L16 43L16 44L15 44L15 43Z" fill="#000000" fill-rule="evenodd" opacity="1" stroke="none"/>
<path d="M16 43L17 43L17 44L16 44L16 43Z" fill="#000000" fill-rule="evenodd" opacity="1" stroke="none"/>
<path d="M17 43L18 43L18 44L17 44L17 43Z" fill="#000000" fill-rule="evenodd" opacity="1" stroke="none"/>
<path d="M18 43L19 43L19 44L18 44L18 43Z" fill="#000000" fill-rule="evenodd" opacity="1" stroke="none"/>
<path d="M19 43L20 43L20 44L19 44L19 43Z" fill="#000000" fill-rule="evenodd" opacity="1" stroke="none"/>
<path d="M20 43L21 43L21 44L20 44L20 43Z" fill="#000000" fill-rule="evenodd" opacity="1" stroke="none"/>
<path d="M21 43L22 43L22 44L21 44L21 43Z" fill="#000000" fill-rule="evenodd" opacity="1" stroke="none"/>
<path d="M22 43L23 43L23 44L22 44L22 43Z" fill="#000000" fill-rule="evenodd" opacity="1" stroke="none"/>
<path d="M23 43L24 43L24 44L23 44L23 43Z" fill="#000000" fill-rule="evenodd" opacity="1" stroke="none"/>
<path d="M24 43L25 43L25 44L24 44L24 43Z" fill="#000000" fill-rule="evenodd" opacity="1" stroke="none"/>
<path d="M25 43L26 43L26 44L25 44L25 43Z" fill="#000000" fill-rule="evenodd" opacity="1" stroke="none"/>
<path d="M4 24L7 24L7 43L4 43L4 24Z" fill="#000000" fill-rule="evenodd" opacity="1" stroke="none"/>
<path d="M25 24L28 24L28 43L25 43L25 24Z" fill="#000000" fill-rule="evenodd" opacity="1" stroke="none"/>
<path d="M3 16L6 16L6 24L3 24L3 16Z" fill="#000000" fill-rule="evenodd" opacity="1" stroke="none"/>
<path d="M26 16L29 16L29 24L26 24L26 16Z" fill="#000000" fill-rule="evenodd" opacity="1" stroke="none"/>
<path d="M11 24L12 24L12 40.15L11 40.15L11 24Z" fill="#000000" fill-rule="evenodd" opacity="1" stroke="none"/>
<path d="M21 24L20 24L20 40.15L21 40.15L21 24Z" fill="#000000" fill-rule="evenodd" opacity="1" stroke="none"/>
<path d="M10 16L11 16L11 24L10 24L10 16Z" fill="#000000" fill-rule="evenodd" opacity="1" stroke="none"/>
<path d="M21 16L22 16L22 24L21 24L21 16Z" fill="#000000" fill-rule="evenodd" opacity="1" stroke="none"/>
<path d="M2 15L4 15L4 15L2 15Z" fill="#000000" fill-rule="evenodd" opacity="1" stroke="none"/>
<path d="M1 15L31 15L31 16L1 16L1 15Z" fill="#000000" fill-rule="evenodd" opacity="1" stroke="none"/>
<path d="M5 14L27 14L27 15L5 15L5 14Z" fill="#000000" fill-rule="evenodd" opacity="1" stroke="none"/>
<path d="M1 10L3 10L3 15L1 15L1 10Z" fill="#000000" fill-rule="evenodd" opacity="1" stroke="none"/>
<path d="M29 10L31 10L31 15L29 15L29 10Z" fill="#000000" fill-rule="evenodd" opacity="1" stroke="none"/>
<path d="M3 10L29 10L29 12L3 12L3 10Z" fill="#000000" fill-rule="evenodd" opacity="1" stroke="none"/>
<path d="M3 9L4 9L4 10L3 10L3 9Z" fill="#000000" fill-rule="evenodd" opacity="1" stroke="none"/>
<path d="M28 9L29 9L29 10L28 10L28 9Z" fill="#000000" fill-rule="evenodd" opacity="1" stroke="none"/>
<path d="M4 5L6 5L6 10L4 10L4 5Z" fill="#000000" fill-rule="evenodd" opacity="1" stroke="none"/>
<path d="M26 5L28 5L28 10L26 10L26 5Z" fill="#000000" fill-rule="evenodd" opacity="1" stroke="none"/>
<path d="M6 6L26 6L26 8L6 8L6 6Z" fill="#000000" fill-rule="evenodd" opacity="1" stroke="none"/>
<path d="M6 5L8 5L8 6L6 6L6 5Z" fill="#000000" fill-rule="evenodd" opacity="1" stroke="none"/>
<path d="M24 5L26 5L26 6L24 6L24 5Z" fill="#000000" fill-rule="evenodd" opacity="1" stroke="none"/>
<path d="M8 2L11 2L11 6L8 6L8 2Z" fill="#000000" fill-rule="evenodd" opacity="1" stroke="none"/>
<path d="M21 2L24 2L24 6L21 6L21 2Z" fill="#000000" fill-rule="evenodd" opacity="1" stroke="none"/>
<path d="M11 2L21 2L21 4L11 4L11 2Z" fill="#000000" fill-rule="evenodd" opacity="1" stroke="none"/>
<path d="M12 39L13 39L13 43L12 43L12 39Z" fill="#000000" fill-rule="evenodd" opacity="1" stroke="none"/>
<path d="M19 39L20 39L20 43L19 43L19 39Z" fill="#000000" fill-rule="evenodd" opacity="1" stroke="none"/>
<path d="M29 16L29 24" fill="none" fill-rule="evenodd" opacity="0.498608" stroke="#ffffff" stroke-linecap="round" stroke-linejoin="round" stroke-width="0.1"/>
<path d="M28 24L29 24" fill="none" fill-rule="evenodd" opacity="0.498608" stroke="#ffffff" stroke-linecap="round" stroke-linejoin="round" stroke-width="0.1"/>
<path d="M28 24L28 43" fill="none" fill-rule="evenodd" opacity="0.498608" stroke="#ffffff" stroke-linecap="round" stroke-linejoin="round" stroke-width="0.1"/>
<path d="M27 43L28 43" fill="none" fill-rule="evenodd" opacity="0.498608" stroke="#ffffff" stroke-linecap="round" stroke-linejoin="round" stroke-width="0.1"/>
<path d="M27 43L27 46" fill="none" fill-rule="evenodd" opacity="0.498608" stroke="#ffffff" stroke-linecap="round" stroke-linejoin="round" stroke-width="0.1"/>
<path d="M22 45L22 46" fill="none" fill-rule="evenodd" opacity="0.498608" stroke="#ffffff" stroke-linecap="round" stroke-linejoin="round" stroke-width="0.1"/>
<path d="M22 46L27 46" fill="none" fill-rule="evenodd" opacity="0.498608" stroke="#ffffff" stroke-linecap="round" stroke-linejoin="round" stroke-width="0.1"/>
<path d="M10 45L22 45" fill="none" fill-rule="evenodd" opacity="0.498608" stroke="#ffffff" stroke-linecap="round" stroke-linejoin="round" stroke-width="0.1"/>
<path d="M10 45L10 46" fill="none" fill-rule="evenodd" opacity="0.498608" stroke="#ffffff" stroke-linecap="round" stroke-linejoin="round" stroke-width="0.1"/>
<path d="M5 46L10 46" fill="none" fill-rule="evenodd" opacity="0.498608" stroke="#ffffff" stroke-linecap="round" stroke-linejoin="round" stroke-width="0.1"/>
<path d="M5 43L5 46" fill="none" fill-rule="evenodd" opacity="1" stroke="none"/>
<path d="M5 43L5 46" fill="none" fill-rule="evenodd" opacity="0.498478" stroke="#ffffff" stroke-linecap="round" stroke-linejoin="round" stroke-width="0.1"/>
<path d="M4 43L5 43" fill="none" fill-rule="evenodd" opacity="0.498478" stroke="#ffffff" stroke-linecap="round" stroke-linejoin="round" stroke-width="0.1"/>
<path d="M4 24L4 43" fill="none" fill-rule="evenodd" opacity="0.498478" stroke="#ffffff" stroke-linecap="round" stroke-linejoin="round" stroke-width="0.1"/>
<path d="M3 24L4 24" fill="none" fill-rule="evenodd" opacity="0.498478" stroke="#ffffff" stroke-linecap="round" stroke-linejoin="round" stroke-width="0.1"/>
<path d="M3 16L3 24" fill="none" fill-rule="evenodd" opacity="0.498478" stroke="#ffffff" stroke-linecap="round" stroke-linejoin="round" stroke-width="0.1"/>
<path d="M1 16L3 16" fill="none" fill-rule="evenodd" opacity="0.498478" stroke="#ffffff" stroke-linecap="round" stroke-linejoin="round" stroke-width="0.1"/>
<path d="M1 10L1 16" fill="none" fill-rule="evenodd" opacity="0.498478" stroke="#ffffff" stroke-linecap="round" stroke-linejoin="round" stroke-width="0.1"/>
<path d="M1 10L3 10" fill="none" fill-rule="evenodd" opacity="0.498478" stroke="#ffffff" stroke-linecap="round" stroke-linejoin="round" stroke-width="0.1"/>
<path d="M3 9L3 10" fill="none" fill-rule="evenodd" opacity="0.498478" stroke="#ffffff" stroke-linecap="round" stroke-linejoin="round" stroke-width="0.1"/>
<path d="M3 9L4 9" fill="none" fill-rule="evenodd" opacity="0.498478" stroke="#ffffff" stroke-linecap="round" stroke-linejoin="round" stroke-width="0.1"/>
<path d="M4 5L4 9" fill="none" fill-rule="evenodd" opacity="0.498478" stroke="#ffffff" stroke-linecap="round" stroke-linejoin="round" stroke-width="0.1"/>
<path d="M4 5L8 5" fill="none" fill-rule="evenodd" opacity="0.498478" stroke="#ffffff" stroke-linecap="round" stroke-linejoin="round" stroke-width="0.1"/>
<path d="M8 2L8 5" fill="none" fill-rule="evenodd" opacity="0.498478" stroke="#ffffff" stroke-linecap="round" stroke-linejoin="round" stroke-width="0.1"/>
<path d="M8 2L24 2" fill="none" fill-rule="evenodd" opacity="0.498478" stroke="#ffffff" stroke-linecap="round" stroke-linejoin="round" stroke-width="0.1"/>
<path d="M24 2L24 5" fill="none" fill-rule="evenodd" opacity="0.498478" stroke="#ffffff" stroke-linecap="round" stroke-linejoin="round" stroke-width="0.1"/>
<path d="M24 5L28 5" fill="none" fill-rule="evenodd" opacity="0.498478" stroke="#ffffff" stroke-linecap="round" stroke-linejoin="round" stroke-width="0.1"/>
<path d="M28 5L28 9" fill="none" fill-rule="evenodd" opacity="0.498478" stroke="#ffffff" stroke-linecap="round" stroke-linejoin="round" stroke-width="0.1"/>
<path d="M28 9L29 9" fill="none" fill-rule="evenodd" opacity="0.498478" stroke="#ffffff" stroke-linecap="round" stroke-linejoin="round" stroke-width="0.1"/>
<path d="M29 9L29 10" fill="none" fill-rule="evenodd" opacity="0.498478" stroke="#ffffff" stroke-linecap="round" stroke-linejoin="round" stroke-width="0.1"/>
<path d="M29 10L31 10" fill="none" fill-rule="evenodd" opacity="0.498478" stroke="#ffffff" stroke-linecap="round" stroke-linejoin="round" stroke-width="0.1"/>
<path d="M31 10L31 16" fill="none" fill-rule="evenodd" opacity="0.498478" stroke="#ffffff" stroke-linecap="round" stroke-linejoin="round" stroke-width="0.1"/>
<path d="M29 16L31 16" fill="none" fill-rule="evenodd" opacity="0.498478" stroke="#ffffff" stroke-linecap="round" stroke-linejoin="round" stroke-width="0.1"/>
<path d="M11 16L21 16L21 24L11 24L11 16Z" fill="#7a7a7a" fill-rule="evenodd" opacity="1" stroke="none"/>
<path d="M6 16L10 16L10 24L6 24L6 16Z" fill="#7a7a7a" fill-rule="evenodd" opacity="1" stroke="none"/>
<path d="M22 16L26 16L26 24L22 24L22 16Z" fill="#7a7a7a" fill-rule="evenodd" opacity="1" stroke="none"/>
<path d="M21 24L25 24L25 43L21 43L21 24Z" fill="#7a7a7a" fill-rule="evenodd" opacity="1" stroke="none"/>
<path d="M7 24L11 24L11 43L7 43L7 24Z" fill="#7a7a7a" fill-rule="evenodd" opacity="1" stroke="none"/>
<path d="M12 24L20 24L20 39L12 39L12 24Z" fill="#7a7a7a" fill-rule="evenodd" opacity="1" stroke="none"/>
<path d="M13 39L19 39L19 43L13 43L13 39Z" fill="#7a7a7a" fill-rule="evenodd" opacity="1" stroke="none"/>
<path d="M11 40L12 40L12 43L11 43L11 40Z" fill="#7a7a7a" fill-rule="evenodd" opacity="1" stroke="none"/>
<path d="M20 40L21 40L21 43L20 43L20 40Z" fill="#7a7a7a" fill-rule="evenodd" opacity="1" stroke="none"/>
<path d="M3 12L29 12L29 14L3 14L3 12Z" fill="#7a7a7a" fill-rule="evenodd" opacity="1" stroke="none"/>
<path d="M27 14L29 14L29 15L27 15L27 14Z" fill="#7a7a7a" fill-rule="evenodd" opacity="1" stroke="none"/>
<path d="M3 14L5 14L5 15L3 15L3 14Z" fill="#7a7a7a" fill-rule="evenodd" opacity="1" stroke="none"/>
<path d="M6 8L26 8L26 10L6 10L6 8Z" fill="#7a7a7a" fill-rule="evenodd" opacity="1" stroke="none"/>
<path d="M11 4L21 4L21 6L11 6L11 4Z" fill="#7a7a7a" fill-rule="evenodd" opacity="1" stroke="none"/>
<g fill="#ffffff" opacity="1" stroke="none">
<path clip-path="url(#TextBounds)" d="M1.99 21.317L1.99 21.793L3.173 21.793L3.173 24.999L1.864 24.999L1.864 25.468L8.143 25.468L8.143 24.999L6.827 24.999L6.827 21.793L8.01 21.793L8.01 21.317L6.827 21.317L6.827 20.673L6.316 20.673L6.316 21.317L3.684 21.317L3.684 20.673L3.173 20.673L3.173 21.317L1.99 21.317ZM3.684 24.999L3.684 24.201L6.316 24.201L6.316 24.999L3.684 24.999ZM3.684 23.767L3.684 22.99L6.316 22.99L6.316 23.767L3.684 23.767ZM3.684 22.556L3.684 21.793L6.316 21.793L6.316 22.556L3.684 22.556ZM4.048 25.636C3.488 26.035 2.795 26.385 1.969 26.693L2.284 27.099C3.124 26.77 3.831 26.392 4.405 25.958L4.048 25.636ZM5.896 25.657L5.644 26.035C6.365 26.294 7.072 26.651 7.758 27.099L8.038 26.672C7.394 26.273 6.68 25.937 5.896 25.657Z" fill-rule="evenodd"/>
<path clip-path="url(#TextBounds)" d="M10.285 20.659C9.963 21.751 9.438 22.724 8.724 23.578L8.885 24.103C9.151 23.809 9.403 23.494 9.627 23.172L9.627 27.134L10.124 27.134L10.124 22.36C10.369 21.891 10.572 21.394 10.74 20.869L10.285 20.659ZM14.219 26.987C14.548 26.987 14.779 26.91 14.905 26.756C15.024 26.602 15.108 26.154 15.15 25.419L14.674 25.258C14.646 25.881 14.597 26.245 14.527 26.35C14.443 26.448 14.317 26.504 14.135 26.504L11.937 26.504C11.699 26.504 11.587 26.392 11.587 26.175L11.587 23.256L12.63 22.927L12.63 25.573L13.134 25.573L13.134 22.766L14.163 22.444C14.156 23.445 14.142 24.026 14.114 24.18C14.079 24.348 13.988 24.432 13.841 24.432C13.729 24.432 13.61 24.425 13.477 24.418L13.624 24.908L13.736 24.908C14.226 24.908 14.499 24.747 14.569 24.439C14.632 24.124 14.667 23.228 14.667 21.751L13.134 22.241L13.134 20.694L12.63 20.694L12.63 22.402L11.587 22.738L11.587 21.345L11.083 21.345L11.083 22.899L10.418 23.116L10.418 23.627L11.083 23.417L11.083 26.245C11.083 26.735 11.321 26.987 11.811 26.987L14.219 26.987Z" fill-rule="evenodd"/>
<path clip-path="url(#TextBounds)" d="M18.377 21.828L18.377 22.311L22.031 22.311L22.031 21.828L20.505 21.828C20.379 21.394 20.246 21.016 20.106 20.68L19.588 20.764C19.742 21.086 19.889 21.443 20.015 21.828L18.377 21.828ZM18.118 26.357L18.118 26.847L22.206 26.847L22.206 26.357L20.834 26.357C21.17 25.349 21.45 24.194 21.674 22.892L21.184 22.759C20.939 24.187 20.659 25.384 20.337 26.357L18.118 26.357ZM19.126 22.843L18.664 22.99C18.965 23.935 19.21 24.922 19.406 25.951L19.868 25.832C19.651 24.712 19.406 23.711 19.126 22.843ZM15.857 22.57L15.857 23.053L16.816 23.053L16.816 25.545C16.48 25.629 16.137 25.706 15.787 25.769L15.913 26.266C16.767 26.07 17.572 25.825 18.314 25.531L18.314 25.034C17.992 25.167 17.663 25.286 17.327 25.391L17.327 23.053L18.223 23.053L18.223 22.57L17.327 22.57L17.327 20.722L16.816 20.722L16.816 22.57L15.857 22.57Z" fill-rule="evenodd"/>
<path clip-path="url(#TextBounds)" d="M22.899 22.563L22.899 23.053L23.725 23.053L23.725 25.517C23.417 25.608 23.109 25.685 22.787 25.755L22.913 26.252C23.662 26.063 24.362 25.825 25.006 25.538L25.006 25.034C24.754 25.146 24.495 25.251 24.229 25.349L24.229 23.053L25.076 23.053L25.076 22.563L24.229 22.563L24.229 20.701L23.725 20.701L23.725 22.563L22.899 22.563ZM25.804 21.45L25.804 22.15C25.79 24.264 25.328 25.804 24.432 26.763L24.81 27.085C25.538 26.301 26 25.174 26.196 23.697C26.434 24.411 26.777 25.048 27.239 25.615C26.826 26.028 26.315 26.378 25.699 26.665L25.979 27.106C26.609 26.819 27.141 26.448 27.582 26C27.967 26.406 28.422 26.763 28.947 27.085L29.262 26.665C28.744 26.364 28.289 26.021 27.897 25.629C28.415 24.978 28.751 24.166 28.905 23.2L28.905 22.92L27.897 22.92C28.023 22.472 28.149 21.926 28.275 21.296L28.275 20.988L24.999 20.988L24.999 21.45L25.804 21.45ZM27.554 25.258C26.896 24.488 26.476 23.578 26.287 22.521C26.287 22.402 26.294 22.276 26.294 22.15L26.294 21.45L27.736 21.45C27.575 22.29 27.428 22.927 27.295 23.361L28.422 23.361C28.268 24.082 27.981 24.712 27.554 25.258Z" fill-rule="evenodd"/>
</g>
</g>
</svg>
